<?xml version="1.0" encoding="utf-8" standalone="no"?>
<!DOCTYPE svg PUBLIC "-//W3C//DTD SVG 1.1//EN"
  "http://www.w3.org/Graphics/SVG/1.1/DTD/svg11.dtd">
<svg xmlns:xlink="http://www.w3.org/1999/xlink" width="572.4pt" height="568.8pt" viewBox="0 0 572.4 568.8" xmlns="http://www.w3.org/2000/svg" version="1.1">
 <metadata>
  <rdf:RDF xmlns:dc="http://purl.org/dc/elements/1.1/" xmlns:cc="http://creativecommons.org/ns#" xmlns:rdf="http://www.w3.org/1999/02/22-rdf-syntax-ns#">
   <cc:Work>
    <dc:type rdf:resource="http://purl.org/dc/dcmitype/StillImage"/>
    <dc:date>2026-06-15T19:33:05.427821</dc:date>
    <dc:format>image/svg+xml</dc:format>
    <dc:creator>
     <cc:Agent>
      <dc:title>Matplotlib v3.10.3, https://matplotlib.org/</dc:title>
     </cc:Agent>
    </dc:creator>
   </cc:Work>
  </rdf:RDF>
 </metadata>
 <defs>
  <style type="text/css">*{stroke-linejoin: round; stroke-linecap: butt}</style>
 </defs>
 <g id="figure_1">
  <g id="patch_1">
   <path d="M 0 568.8 
L 572.4 568.8 
L 572.4 0 
L 0 0 
z
" style="fill: #ffffff"/>
  </g>
  <g id="axes_1">
   <g id="patch_2">
    <path d="M 286.2 127.996436 
Q 286.2 145.799832 286.2 160.249127 
" style="fill: none; stroke: #1f3a5f; stroke-width: 3; stroke-linecap: round"/>
    <path d="M 290.2 152.249127 
L 286.2 160.249127 
L 282.2 152.249127 
z
" style="fill: #1f3a5f; stroke: #1f3a5f; stroke-width: 3; stroke-linecap: round"/>
   </g>
   <g id="patch_3">
    <path d="M 286.2 246.796436 
Q 286.2 264.599832 286.2 279.049127 
" style="fill: none; stroke: #1f3a5f; stroke-width: 3; stroke-linecap: round"/>
    <path d="M 290.2 271.049127 
L 286.2 279.049127 
L 282.2 271.049127 
z
" style="fill: #1f3a5f; stroke: #1f3a5f; stroke-width: 3; stroke-linecap: round"/>
   </g>
   <g id="patch_4">
    <path d="M 286.2 365.596436 
Q 286.2 383.399832 286.2 397.849127 
" style="fill: none; stroke: #1f3a5f; stroke-width: 3; stroke-linecap: round"/>
    <path d="M 290.2 389.849127 
L 286.2 397.849127 
L 282.2 389.849127 
z
" style="fill: #1f3a5f; stroke: #1f3a5f; stroke-width: 3; stroke-linecap: round"/>
   </g>
   <g id="patch_5">
    <path d="M 35.1 129.96 
L 537.3 129.96 
Q 548.46 129.96 548.46 122.04 
L 548.46 50.76 
Q 548.46 42.84 537.3 42.84 
L 35.1 42.84 
Q 23.94 42.84 23.94 50.76 
L 23.94 122.04 
Q 23.94 129.96 35.1 129.96 
z
" clip-path="url(#p5699c7f0c9)" style="fill: #e9ecef; stroke: #1f3a5f; stroke-width: 1.5; stroke-linejoin: miter"/>
   </g>
   <g id="patch_6">
    <path d="M 35.1 248.76 
L 537.3 248.76 
Q 548.46 248.76 548.46 240.84 
L 548.46 169.56 
Q 548.46 161.64 537.3 161.64 
L 35.1 161.64 
Q 23.94 161.64 23.94 169.56 
L 23.94 240.84 
Q 23.94 248.76 35.1 248.76 
z
" clip-path="url(#p5699c7f0c9)" style="fill: #e9ecef; stroke: #1f3a5f; stroke-width: 1.5; stroke-linejoin: miter"/>
   </g>
   <g id="patch_7">
    <path d="M 35.1 367.56 
L 537.3 367.56 
Q 548.46 367.56 548.46 359.64 
L 548.46 288.36 
Q 548.46 280.44 537.3 280.44 
L 35.1 280.44 
Q 23.94 280.44 23.94 288.36 
L 23.94 359.64 
Q 23.94 367.56 35.1 367.56 
z
" clip-path="url(#p5699c7f0c9)" style="fill: #1f3a5f"/>
   </g>
   <g id="patch_8">
    <path d="M 35.1 486.36 
L 537.3 486.36 
Q 548.46 486.36 548.46 478.44 
L 548.46 407.16 
Q 548.46 399.24 537.3 399.24 
L 35.1 399.24 
Q 23.94 399.24 23.94 407.16 
L 23.94 478.44 
Q 23.94 486.36 35.1 486.36 
z
" clip-path="url(#p5699c7f0c9)" style="fill: #e9ecef; stroke: #1f3a5f; stroke-width: 1.5; stroke-linejoin: miter"/>
   </g>
   <g id="text_1">
    <!-- TECHNOLOGY LAYER -->
    <g style="fill: #1f3a5f" transform="translate(222.516562 69.710625) scale(0.12 -0.12)">
     <defs>
      <path id="Arial-BoldMT-54" d="M 1497 0 
L 1497 3806 
L 138 3806 
L 138 4581 
L 3778 4581 
L 3778 3806 
L 2422 3806 
L 2422 0 
L 1497 0 
z
" transform="scale(0.015625)"/>
      <path id="Arial-BoldMT-45" d="M 466 0 
L 466 4581 
L 3863 4581 
L 3863 3806 
L 1391 3806 
L 1391 2791 
L 3691 2791 
L 3691 2019 
L 1391 2019 
L 1391 772 
L 3950 772 
L 3950 0 
L 466 0 
z
" transform="scale(0.015625)"/>
      <path id="Arial-BoldMT-43" d="M 3397 1684 
L 4294 1400 
Q 4088 650 3608 286 
Q 3128 -78 2391 -78 
Q 1478 -78 890 545 
Q 303 1169 303 2250 
Q 303 3394 893 4026 
Q 1484 4659 2447 4659 
Q 3288 4659 3813 4163 
Q 4125 3869 4281 3319 
L 3366 3100 
Q 3284 3456 3026 3662 
Q 2769 3869 2400 3869 
Q 1891 3869 1573 3503 
Q 1256 3138 1256 2319 
Q 1256 1450 1568 1081 
Q 1881 713 2381 713 
Q 2750 713 3015 947 
Q 3281 1181 3397 1684 
z
" transform="scale(0.015625)"/>
      <path id="Arial-BoldMT-48" d="M 469 0 
L 469 4581 
L 1394 4581 
L 1394 2778 
L 3206 2778 
L 3206 4581 
L 4131 4581 
L 4131 0 
L 3206 0 
L 3206 2003 
L 1394 2003 
L 1394 0 
L 469 0 
z
" transform="scale(0.015625)"/>
      <path id="Arial-BoldMT-4e" d="M 475 0 
L 475 4581 
L 1375 4581 
L 3250 1522 
L 3250 4581 
L 4109 4581 
L 4109 0 
L 3181 0 
L 1334 2988 
L 1334 0 
L 475 0 
z
" transform="scale(0.015625)"/>
      <path id="Arial-BoldMT-4f" d="M 278 2263 
Q 278 2963 488 3438 
Q 644 3788 914 4066 
Q 1184 4344 1506 4478 
Q 1934 4659 2494 4659 
Q 3506 4659 4114 4031 
Q 4722 3403 4722 2284 
Q 4722 1175 4119 548 
Q 3516 -78 2506 -78 
Q 1484 -78 881 545 
Q 278 1169 278 2263 
z
M 1231 2294 
Q 1231 1516 1590 1114 
Q 1950 713 2503 713 
Q 3056 713 3411 1111 
Q 3766 1509 3766 2306 
Q 3766 3094 3420 3481 
Q 3075 3869 2503 3869 
Q 1931 3869 1581 3476 
Q 1231 3084 1231 2294 
z
" transform="scale(0.015625)"/>
      <path id="Arial-BoldMT-4c" d="M 491 0 
L 491 4544 
L 1416 4544 
L 1416 772 
L 3716 772 
L 3716 0 
L 491 0 
z
" transform="scale(0.015625)"/>
      <path id="Arial-BoldMT-47" d="M 2597 1684 
L 2597 2456 
L 4591 2456 
L 4591 631 
Q 4300 350 3748 136 
Q 3197 -78 2631 -78 
Q 1913 -78 1378 223 
Q 844 525 575 1086 
Q 306 1647 306 2306 
Q 306 3022 606 3578 
Q 906 4134 1484 4431 
Q 1925 4659 2581 4659 
Q 3434 4659 3914 4301 
Q 4394 3944 4531 3313 
L 3613 3141 
Q 3516 3478 3248 3673 
Q 2981 3869 2581 3869 
Q 1975 3869 1617 3484 
Q 1259 3100 1259 2344 
Q 1259 1528 1621 1120 
Q 1984 713 2572 713 
Q 2863 713 3155 827 
Q 3447 941 3656 1103 
L 3656 1684 
L 2597 1684 
z
" transform="scale(0.015625)"/>
      <path id="Arial-BoldMT-59" d="M 1669 0 
L 1669 1928 
L -9 4581 
L 1075 4581 
L 2153 2769 
L 3209 4581 
L 4275 4581 
L 2591 1922 
L 2591 0 
L 1669 0 
z
" transform="scale(0.015625)"/>
      <path id="Arial-BoldMT-20" transform="scale(0.015625)"/>
      <path id="Arial-BoldMT-41" d="M 4597 0 
L 3591 0 
L 3191 1041 
L 1359 1041 
L 981 0 
L 0 0 
L 1784 4581 
L 2763 4581 
L 4597 0 
z
M 2894 1813 
L 2263 3513 
L 1644 1813 
L 2894 1813 
z
" transform="scale(0.015625)"/>
      <path id="Arial-BoldMT-52" d="M 469 0 
L 469 4581 
L 2416 4581 
Q 3150 4581 3483 4457 
Q 3816 4334 4016 4018 
Q 4216 3703 4216 3297 
Q 4216 2781 3912 2445 
Q 3609 2109 3006 2022 
Q 3306 1847 3501 1637 
Q 3697 1428 4028 894 
L 4588 0 
L 3481 0 
L 2813 997 
Q 2456 1531 2325 1670 
Q 2194 1809 2047 1861 
Q 1900 1913 1581 1913 
L 1394 1913 
L 1394 0 
L 469 0 
z
M 1394 2644 
L 2078 2644 
Q 2744 2644 2909 2700 
Q 3075 2756 3169 2893 
Q 3263 3031 3263 3238 
Q 3263 3469 3139 3611 
Q 3016 3753 2791 3791 
Q 2678 3806 2116 3806 
L 1394 3806 
L 1394 2644 
z
" transform="scale(0.015625)"/>
     </defs>
     <use xlink:href="#Arial-BoldMT-54"/>
     <use xlink:href="#Arial-BoldMT-45" transform="translate(61.083984 0)"/>
     <use xlink:href="#Arial-BoldMT-43" transform="translate(127.783203 0)"/>
     <use xlink:href="#Arial-BoldMT-48" transform="translate(200 0)"/>
     <use xlink:href="#Arial-BoldMT-4e" transform="translate(272.216797 0)"/>
     <use xlink:href="#Arial-BoldMT-4f" transform="translate(344.433594 0)"/>
     <use xlink:href="#Arial-BoldMT-4c" transform="translate(422.216797 0)"/>
     <use xlink:href="#Arial-BoldMT-4f" transform="translate(483.300781 0)"/>
     <use xlink:href="#Arial-BoldMT-47" transform="translate(561.083984 0)"/>
     <use xlink:href="#Arial-BoldMT-59" transform="translate(638.867188 0)"/>
     <use xlink:href="#Arial-BoldMT-20" transform="translate(703.816406 0)"/>
     <use xlink:href="#Arial-BoldMT-4c" transform="translate(731.599609 0)"/>
     <use xlink:href="#Arial-BoldMT-41" transform="translate(792.683594 0)"/>
     <use xlink:href="#Arial-BoldMT-59" transform="translate(855.775391 0)"/>
     <use xlink:href="#Arial-BoldMT-45" transform="translate(922.474609 0)"/>
     <use xlink:href="#Arial-BoldMT-52" transform="translate(989.173828 0)"/>
    </g>
   </g>
   <g id="text_2">
    <!-- AI  |  Radiomics  |  Liquid Biopsy  |  ctDNA  |  Multiomics  |  Digital Health -->
    <g transform="translate(126.600781 96.9075) scale(0.1 -0.1)">
     <defs>
      <path id="ArialMT-41" d="M -9 0 
L 1750 4581 
L 2403 4581 
L 4278 0 
L 3588 0 
L 3053 1388 
L 1138 1388 
L 634 0 
L -9 0 
z
M 1313 1881 
L 2866 1881 
L 2388 3150 
Q 2169 3728 2063 4100 
Q 1975 3659 1816 3225 
L 1313 1881 
z
" transform="scale(0.015625)"/>
      <path id="ArialMT-49" d="M 597 0 
L 597 4581 
L 1203 4581 
L 1203 0 
L 597 0 
z
" transform="scale(0.015625)"/>
      <path id="ArialMT-20" transform="scale(0.015625)"/>
      <path id="ArialMT-7c" d="M 588 -1347 
L 588 4659 
L 1078 4659 
L 1078 -1347 
L 588 -1347 
z
" transform="scale(0.015625)"/>
      <path id="ArialMT-52" d="M 503 0 
L 503 4581 
L 2534 4581 
Q 3147 4581 3465 4457 
Q 3784 4334 3975 4021 
Q 4166 3709 4166 3331 
Q 4166 2844 3850 2509 
Q 3534 2175 2875 2084 
Q 3116 1969 3241 1856 
Q 3506 1613 3744 1247 
L 4541 0 
L 3778 0 
L 3172 953 
Q 2906 1366 2734 1584 
Q 2563 1803 2427 1890 
Q 2291 1978 2150 2013 
Q 2047 2034 1813 2034 
L 1109 2034 
L 1109 0 
L 503 0 
z
M 1109 2559 
L 2413 2559 
Q 2828 2559 3062 2645 
Q 3297 2731 3419 2920 
Q 3541 3109 3541 3331 
Q 3541 3656 3305 3865 
Q 3069 4075 2559 4075 
L 1109 4075 
L 1109 2559 
z
" transform="scale(0.015625)"/>
      <path id="ArialMT-61" d="M 2588 409 
Q 2275 144 1986 34 
Q 1697 -75 1366 -75 
Q 819 -75 525 192 
Q 231 459 231 875 
Q 231 1119 342 1320 
Q 453 1522 633 1644 
Q 813 1766 1038 1828 
Q 1203 1872 1538 1913 
Q 2219 1994 2541 2106 
Q 2544 2222 2544 2253 
Q 2544 2597 2384 2738 
Q 2169 2928 1744 2928 
Q 1347 2928 1158 2789 
Q 969 2650 878 2297 
L 328 2372 
Q 403 2725 575 2942 
Q 747 3159 1072 3276 
Q 1397 3394 1825 3394 
Q 2250 3394 2515 3294 
Q 2781 3194 2906 3042 
Q 3031 2891 3081 2659 
Q 3109 2516 3109 2141 
L 3109 1391 
Q 3109 606 3145 398 
Q 3181 191 3288 0 
L 2700 0 
Q 2613 175 2588 409 
z
M 2541 1666 
Q 2234 1541 1622 1453 
Q 1275 1403 1131 1340 
Q 988 1278 909 1158 
Q 831 1038 831 891 
Q 831 666 1001 516 
Q 1172 366 1500 366 
Q 1825 366 2078 508 
Q 2331 650 2450 897 
Q 2541 1088 2541 1459 
L 2541 1666 
z
" transform="scale(0.015625)"/>
      <path id="ArialMT-64" d="M 2575 0 
L 2575 419 
Q 2259 -75 1647 -75 
Q 1250 -75 917 144 
Q 584 363 401 755 
Q 219 1147 219 1656 
Q 219 2153 384 2558 
Q 550 2963 881 3178 
Q 1213 3394 1622 3394 
Q 1922 3394 2156 3267 
Q 2391 3141 2538 2938 
L 2538 4581 
L 3097 4581 
L 3097 0 
L 2575 0 
z
M 797 1656 
Q 797 1019 1065 703 
Q 1334 388 1700 388 
Q 2069 388 2326 689 
Q 2584 991 2584 1609 
Q 2584 2291 2321 2609 
Q 2059 2928 1675 2928 
Q 1300 2928 1048 2622 
Q 797 2316 797 1656 
z
" transform="scale(0.015625)"/>
      <path id="ArialMT-69" d="M 425 3934 
L 425 4581 
L 988 4581 
L 988 3934 
L 425 3934 
z
M 425 0 
L 425 3319 
L 988 3319 
L 988 0 
L 425 0 
z
" transform="scale(0.015625)"/>
      <path id="ArialMT-6f" d="M 213 1659 
Q 213 2581 725 3025 
Q 1153 3394 1769 3394 
Q 2453 3394 2887 2945 
Q 3322 2497 3322 1706 
Q 3322 1066 3130 698 
Q 2938 331 2570 128 
Q 2203 -75 1769 -75 
Q 1072 -75 642 372 
Q 213 819 213 1659 
z
M 791 1659 
Q 791 1022 1069 705 
Q 1347 388 1769 388 
Q 2188 388 2466 706 
Q 2744 1025 2744 1678 
Q 2744 2294 2464 2611 
Q 2184 2928 1769 2928 
Q 1347 2928 1069 2612 
Q 791 2297 791 1659 
z
" transform="scale(0.015625)"/>
      <path id="ArialMT-6d" d="M 422 0 
L 422 3319 
L 925 3319 
L 925 2853 
Q 1081 3097 1340 3245 
Q 1600 3394 1931 3394 
Q 2300 3394 2536 3241 
Q 2772 3088 2869 2813 
Q 3263 3394 3894 3394 
Q 4388 3394 4653 3120 
Q 4919 2847 4919 2278 
L 4919 0 
L 4359 0 
L 4359 2091 
Q 4359 2428 4304 2576 
Q 4250 2725 4106 2815 
Q 3963 2906 3769 2906 
Q 3419 2906 3187 2673 
Q 2956 2441 2956 1928 
L 2956 0 
L 2394 0 
L 2394 2156 
Q 2394 2531 2256 2718 
Q 2119 2906 1806 2906 
Q 1569 2906 1367 2781 
Q 1166 2656 1075 2415 
Q 984 2175 984 1722 
L 984 0 
L 422 0 
z
" transform="scale(0.015625)"/>
      <path id="ArialMT-63" d="M 2588 1216 
L 3141 1144 
Q 3050 572 2676 248 
Q 2303 -75 1759 -75 
Q 1078 -75 664 370 
Q 250 816 250 1647 
Q 250 2184 428 2587 
Q 606 2991 970 3192 
Q 1334 3394 1763 3394 
Q 2303 3394 2647 3120 
Q 2991 2847 3088 2344 
L 2541 2259 
Q 2463 2594 2264 2762 
Q 2066 2931 1784 2931 
Q 1359 2931 1093 2626 
Q 828 2322 828 1663 
Q 828 994 1084 691 
Q 1341 388 1753 388 
Q 2084 388 2306 591 
Q 2528 794 2588 1216 
z
" transform="scale(0.015625)"/>
      <path id="ArialMT-73" d="M 197 991 
L 753 1078 
Q 800 744 1014 566 
Q 1228 388 1613 388 
Q 2000 388 2187 545 
Q 2375 703 2375 916 
Q 2375 1106 2209 1216 
Q 2094 1291 1634 1406 
Q 1016 1563 777 1677 
Q 538 1791 414 1992 
Q 291 2194 291 2438 
Q 291 2659 392 2848 
Q 494 3038 669 3163 
Q 800 3259 1026 3326 
Q 1253 3394 1513 3394 
Q 1903 3394 2198 3281 
Q 2494 3169 2634 2976 
Q 2775 2784 2828 2463 
L 2278 2388 
Q 2241 2644 2061 2787 
Q 1881 2931 1553 2931 
Q 1166 2931 1000 2803 
Q 834 2675 834 2503 
Q 834 2394 903 2306 
Q 972 2216 1119 2156 
Q 1203 2125 1616 2013 
Q 2213 1853 2448 1751 
Q 2684 1650 2818 1456 
Q 2953 1263 2953 975 
Q 2953 694 2789 445 
Q 2625 197 2315 61 
Q 2006 -75 1616 -75 
Q 969 -75 630 194 
Q 291 463 197 991 
z
" transform="scale(0.015625)"/>
      <path id="ArialMT-4c" d="M 469 0 
L 469 4581 
L 1075 4581 
L 1075 541 
L 3331 541 
L 3331 0 
L 469 0 
z
" transform="scale(0.015625)"/>
      <path id="ArialMT-71" d="M 2538 -1272 
L 2538 353 
Q 2406 169 2170 47 
Q 1934 -75 1669 -75 
Q 1078 -75 651 397 
Q 225 869 225 1691 
Q 225 2191 398 2587 
Q 572 2984 901 3189 
Q 1231 3394 1625 3394 
Q 2241 3394 2594 2875 
L 2594 3319 
L 3100 3319 
L 3100 -1272 
L 2538 -1272 
z
M 803 1669 
Q 803 1028 1072 708 
Q 1341 388 1716 388 
Q 2075 388 2334 692 
Q 2594 997 2594 1619 
Q 2594 2281 2320 2615 
Q 2047 2950 1678 2950 
Q 1313 2950 1058 2639 
Q 803 2328 803 1669 
z
" transform="scale(0.015625)"/>
      <path id="ArialMT-75" d="M 2597 0 
L 2597 488 
Q 2209 -75 1544 -75 
Q 1250 -75 995 37 
Q 741 150 617 320 
Q 494 491 444 738 
Q 409 903 409 1263 
L 409 3319 
L 972 3319 
L 972 1478 
Q 972 1038 1006 884 
Q 1059 663 1231 536 
Q 1403 409 1656 409 
Q 1909 409 2131 539 
Q 2353 669 2445 892 
Q 2538 1116 2538 1541 
L 2538 3319 
L 3100 3319 
L 3100 0 
L 2597 0 
z
" transform="scale(0.015625)"/>
      <path id="ArialMT-42" d="M 469 0 
L 469 4581 
L 2188 4581 
Q 2713 4581 3030 4442 
Q 3347 4303 3526 4014 
Q 3706 3725 3706 3409 
Q 3706 3116 3547 2856 
Q 3388 2597 3066 2438 
Q 3481 2316 3704 2022 
Q 3928 1728 3928 1328 
Q 3928 1006 3792 729 
Q 3656 453 3456 303 
Q 3256 153 2954 76 
Q 2653 0 2216 0 
L 469 0 
z
M 1075 2656 
L 2066 2656 
Q 2469 2656 2644 2709 
Q 2875 2778 2992 2937 
Q 3109 3097 3109 3338 
Q 3109 3566 3000 3739 
Q 2891 3913 2687 3977 
Q 2484 4041 1991 4041 
L 1075 4041 
L 1075 2656 
z
M 1075 541 
L 2216 541 
Q 2509 541 2628 563 
Q 2838 600 2978 687 
Q 3119 775 3209 942 
Q 3300 1109 3300 1328 
Q 3300 1584 3169 1773 
Q 3038 1963 2805 2039 
Q 2572 2116 2134 2116 
L 1075 2116 
L 1075 541 
z
" transform="scale(0.015625)"/>
      <path id="ArialMT-70" d="M 422 -1272 
L 422 3319 
L 934 3319 
L 934 2888 
Q 1116 3141 1344 3267 
Q 1572 3394 1897 3394 
Q 2322 3394 2647 3175 
Q 2972 2956 3137 2557 
Q 3303 2159 3303 1684 
Q 3303 1175 3120 767 
Q 2938 359 2589 142 
Q 2241 -75 1856 -75 
Q 1575 -75 1351 44 
Q 1128 163 984 344 
L 984 -1272 
L 422 -1272 
z
M 931 1641 
Q 931 1000 1190 694 
Q 1450 388 1819 388 
Q 2194 388 2461 705 
Q 2728 1022 2728 1688 
Q 2728 2322 2467 2637 
Q 2206 2953 1844 2953 
Q 1484 2953 1207 2617 
Q 931 2281 931 1641 
z
" transform="scale(0.015625)"/>
      <path id="ArialMT-79" d="M 397 -1278 
L 334 -750 
Q 519 -800 656 -800 
Q 844 -800 956 -737 
Q 1069 -675 1141 -563 
Q 1194 -478 1313 -144 
Q 1328 -97 1363 -6 
L 103 3319 
L 709 3319 
L 1400 1397 
Q 1534 1031 1641 628 
Q 1738 1016 1872 1384 
L 2581 3319 
L 3144 3319 
L 1881 -56 
Q 1678 -603 1566 -809 
Q 1416 -1088 1222 -1217 
Q 1028 -1347 759 -1347 
Q 597 -1347 397 -1278 
z
" transform="scale(0.015625)"/>
      <path id="ArialMT-74" d="M 1650 503 
L 1731 6 
Q 1494 -44 1306 -44 
Q 1000 -44 831 53 
Q 663 150 594 308 
Q 525 466 525 972 
L 525 2881 
L 113 2881 
L 113 3319 
L 525 3319 
L 525 4141 
L 1084 4478 
L 1084 3319 
L 1650 3319 
L 1650 2881 
L 1084 2881 
L 1084 941 
Q 1084 700 1114 631 
Q 1144 563 1211 522 
Q 1278 481 1403 481 
Q 1497 481 1650 503 
z
" transform="scale(0.015625)"/>
      <path id="ArialMT-44" d="M 494 0 
L 494 4581 
L 2072 4581 
Q 2606 4581 2888 4516 
Q 3281 4425 3559 4188 
Q 3922 3881 4101 3404 
Q 4281 2928 4281 2316 
Q 4281 1794 4159 1391 
Q 4038 988 3847 723 
Q 3656 459 3429 307 
Q 3203 156 2883 78 
Q 2563 0 2147 0 
L 494 0 
z
M 1100 541 
L 2078 541 
Q 2531 541 2789 625 
Q 3047 709 3200 863 
Q 3416 1078 3536 1442 
Q 3656 1806 3656 2325 
Q 3656 3044 3420 3430 
Q 3184 3816 2847 3947 
Q 2603 4041 2063 4041 
L 1100 4041 
L 1100 541 
z
" transform="scale(0.015625)"/>
      <path id="ArialMT-4e" d="M 488 0 
L 488 4581 
L 1109 4581 
L 3516 984 
L 3516 4581 
L 4097 4581 
L 4097 0 
L 3475 0 
L 1069 3600 
L 1069 0 
L 488 0 
z
" transform="scale(0.015625)"/>
      <path id="ArialMT-4d" d="M 475 0 
L 475 4581 
L 1388 4581 
L 2472 1338 
Q 2622 884 2691 659 
Q 2769 909 2934 1394 
L 4031 4581 
L 4847 4581 
L 4847 0 
L 4263 0 
L 4263 3834 
L 2931 0 
L 2384 0 
L 1059 3900 
L 1059 0 
L 475 0 
z
" transform="scale(0.015625)"/>
      <path id="ArialMT-6c" d="M 409 0 
L 409 4581 
L 972 4581 
L 972 0 
L 409 0 
z
" transform="scale(0.015625)"/>
      <path id="ArialMT-67" d="M 319 -275 
L 866 -356 
Q 900 -609 1056 -725 
Q 1266 -881 1628 -881 
Q 2019 -881 2231 -725 
Q 2444 -569 2519 -288 
Q 2563 -116 2559 434 
Q 2191 0 1641 0 
Q 956 0 581 494 
Q 206 988 206 1678 
Q 206 2153 378 2554 
Q 550 2956 876 3175 
Q 1203 3394 1644 3394 
Q 2231 3394 2613 2919 
L 2613 3319 
L 3131 3319 
L 3131 450 
Q 3131 -325 2973 -648 
Q 2816 -972 2473 -1159 
Q 2131 -1347 1631 -1347 
Q 1038 -1347 672 -1080 
Q 306 -813 319 -275 
z
M 784 1719 
Q 784 1066 1043 766 
Q 1303 466 1694 466 
Q 2081 466 2343 764 
Q 2606 1063 2606 1700 
Q 2606 2309 2336 2618 
Q 2066 2928 1684 2928 
Q 1309 2928 1046 2623 
Q 784 2319 784 1719 
z
" transform="scale(0.015625)"/>
      <path id="ArialMT-48" d="M 513 0 
L 513 4581 
L 1119 4581 
L 1119 2700 
L 3500 2700 
L 3500 4581 
L 4106 4581 
L 4106 0 
L 3500 0 
L 3500 2159 
L 1119 2159 
L 1119 0 
L 513 0 
z
" transform="scale(0.015625)"/>
      <path id="ArialMT-65" d="M 2694 1069 
L 3275 997 
Q 3138 488 2766 206 
Q 2394 -75 1816 -75 
Q 1088 -75 661 373 
Q 234 822 234 1631 
Q 234 2469 665 2931 
Q 1097 3394 1784 3394 
Q 2450 3394 2872 2941 
Q 3294 2488 3294 1666 
Q 3294 1616 3291 1516 
L 816 1516 
Q 847 969 1125 678 
Q 1403 388 1819 388 
Q 2128 388 2347 550 
Q 2566 713 2694 1069 
z
M 847 1978 
L 2700 1978 
Q 2663 2397 2488 2606 
Q 2219 2931 1791 2931 
Q 1403 2931 1139 2672 
Q 875 2413 847 1978 
z
" transform="scale(0.015625)"/>
      <path id="ArialMT-68" d="M 422 0 
L 422 4581 
L 984 4581 
L 984 2938 
Q 1378 3394 1978 3394 
Q 2347 3394 2619 3248 
Q 2891 3103 3008 2847 
Q 3125 2591 3125 2103 
L 3125 0 
L 2563 0 
L 2563 2103 
Q 2563 2525 2380 2717 
Q 2197 2909 1863 2909 
Q 1613 2909 1392 2779 
Q 1172 2650 1078 2428 
Q 984 2206 984 1816 
L 984 0 
L 422 0 
z
" transform="scale(0.015625)"/>
     </defs>
     <use xlink:href="#ArialMT-41"/>
     <use xlink:href="#ArialMT-49" transform="translate(66.699219 0)"/>
     <use xlink:href="#ArialMT-20" transform="translate(94.482422 0)"/>
     <use xlink:href="#ArialMT-20" transform="translate(122.265625 0)"/>
     <use xlink:href="#ArialMT-7c" transform="translate(150.048828 0)"/>
     <use xlink:href="#ArialMT-20" transform="translate(176.025391 0)"/>
     <use xlink:href="#ArialMT-20" transform="translate(203.808594 0)"/>
     <use xlink:href="#ArialMT-52" transform="translate(231.591797 0)"/>
     <use xlink:href="#ArialMT-61" transform="translate(303.808594 0)"/>
     <use xlink:href="#ArialMT-64" transform="translate(359.423828 0)"/>
     <use xlink:href="#ArialMT-69" transform="translate(415.039062 0)"/>
     <use xlink:href="#ArialMT-6f" transform="translate(437.255859 0)"/>
     <use xlink:href="#ArialMT-6d" transform="translate(492.871094 0)"/>
     <use xlink:href="#ArialMT-69" transform="translate(576.171875 0)"/>
     <use xlink:href="#ArialMT-63" transform="translate(598.388672 0)"/>
     <use xlink:href="#ArialMT-73" transform="translate(648.388672 0)"/>
     <use xlink:href="#ArialMT-20" transform="translate(698.388672 0)"/>
     <use xlink:href="#ArialMT-20" transform="translate(726.171875 0)"/>
     <use xlink:href="#ArialMT-7c" transform="translate(753.955078 0)"/>
     <use xlink:href="#ArialMT-20" transform="translate(779.931641 0)"/>
     <use xlink:href="#ArialMT-20" transform="translate(807.714844 0)"/>
     <use xlink:href="#ArialMT-4c" transform="translate(835.498047 0)"/>
     <use xlink:href="#ArialMT-69" transform="translate(891.113281 0)"/>
     <use xlink:href="#ArialMT-71" transform="translate(913.330078 0)"/>
     <use xlink:href="#ArialMT-75" transform="translate(968.945312 0)"/>
     <use xlink:href="#ArialMT-69" transform="translate(1024.560547 0)"/>
     <use xlink:href="#ArialMT-64" transform="translate(1046.777344 0)"/>
     <use xlink:href="#ArialMT-20" transform="translate(1102.392578 0)"/>
     <use xlink:href="#ArialMT-42" transform="translate(1130.175781 0)"/>
     <use xlink:href="#ArialMT-69" transform="translate(1196.875 0)"/>
     <use xlink:href="#ArialMT-6f" transform="translate(1219.091797 0)"/>
     <use xlink:href="#ArialMT-70" transform="translate(1274.707031 0)"/>
     <use xlink:href="#ArialMT-73" transform="translate(1330.322266 0)"/>
     <use xlink:href="#ArialMT-79" transform="translate(1380.322266 0)"/>
     <use xlink:href="#ArialMT-20" transform="translate(1430.322266 0)"/>
     <use xlink:href="#ArialMT-20" transform="translate(1458.105469 0)"/>
     <use xlink:href="#ArialMT-7c" transform="translate(1485.888672 0)"/>
     <use xlink:href="#ArialMT-20" transform="translate(1511.865234 0)"/>
     <use xlink:href="#ArialMT-20" transform="translate(1539.648438 0)"/>
     <use xlink:href="#ArialMT-63" transform="translate(1567.431641 0)"/>
     <use xlink:href="#ArialMT-74" transform="translate(1617.431641 0)"/>
     <use xlink:href="#ArialMT-44" transform="translate(1645.214844 0)"/>
     <use xlink:href="#ArialMT-4e" transform="translate(1717.431641 0)"/>
     <use xlink:href="#ArialMT-41" transform="translate(1789.648438 0)"/>
     <use xlink:href="#ArialMT-20" transform="translate(1850.847656 0)"/>
     <use xlink:href="#ArialMT-20" transform="translate(1878.630859 0)"/>
     <use xlink:href="#ArialMT-7c" transform="translate(1906.414062 0)"/>
     <use xlink:href="#ArialMT-20" transform="translate(1932.390625 0)"/>
     <use xlink:href="#ArialMT-20" transform="translate(1960.173828 0)"/>
     <use xlink:href="#ArialMT-4d" transform="translate(1987.957031 0)"/>
     <use xlink:href="#ArialMT-75" transform="translate(2071.257812 0)"/>
     <use xlink:href="#ArialMT-6c" transform="translate(2126.873047 0)"/>
     <use xlink:href="#ArialMT-74" transform="translate(2149.089844 0)"/>
     <use xlink:href="#ArialMT-69" transform="translate(2176.873047 0)"/>
     <use xlink:href="#ArialMT-6f" transform="translate(2199.089844 0)"/>
     <use xlink:href="#ArialMT-6d" transform="translate(2254.705078 0)"/>
     <use xlink:href="#ArialMT-69" transform="translate(2338.005859 0)"/>
     <use xlink:href="#ArialMT-63" transform="translate(2360.222656 0)"/>
     <use xlink:href="#ArialMT-73" transform="translate(2410.222656 0)"/>
     <use xlink:href="#ArialMT-20" transform="translate(2460.222656 0)"/>
     <use xlink:href="#ArialMT-20" transform="translate(2488.005859 0)"/>
     <use xlink:href="#ArialMT-7c" transform="translate(2515.789062 0)"/>
     <use xlink:href="#ArialMT-20" transform="translate(2541.765625 0)"/>
     <use xlink:href="#ArialMT-20" transform="translate(2569.548828 0)"/>
     <use xlink:href="#ArialMT-44" transform="translate(2597.332031 0)"/>
     <use xlink:href="#ArialMT-69" transform="translate(2669.548828 0)"/>
     <use xlink:href="#ArialMT-67" transform="translate(2691.765625 0)"/>
     <use xlink:href="#ArialMT-69" transform="translate(2747.380859 0)"/>
     <use xlink:href="#ArialMT-74" transform="translate(2769.597656 0)"/>
     <use xlink:href="#ArialMT-61" transform="translate(2797.380859 0)"/>
     <use xlink:href="#ArialMT-6c" transform="translate(2852.996094 0)"/>
     <use xlink:href="#ArialMT-20" transform="translate(2875.212891 0)"/>
     <use xlink:href="#ArialMT-48" transform="translate(2902.996094 0)"/>
     <use xlink:href="#ArialMT-65" transform="translate(2975.212891 0)"/>
     <use xlink:href="#ArialMT-61" transform="translate(3030.828125 0)"/>
     <use xlink:href="#ArialMT-6c" transform="translate(3086.443359 0)"/>
     <use xlink:href="#ArialMT-74" transform="translate(3108.660156 0)"/>
     <use xlink:href="#ArialMT-68" transform="translate(3136.443359 0)"/>
    </g>
   </g>
   <g id="text_3">
    <!-- CLINICAL INTELLIGENCE LAYER -->
    <g style="fill: #1f3a5f" transform="translate(191.187187 188.510625) scale(0.12 -0.12)">
     <defs>
      <path id="Arial-BoldMT-49" d="M 438 0 
L 438 4581 
L 1363 4581 
L 1363 0 
L 438 0 
z
" transform="scale(0.015625)"/>
     </defs>
     <use xlink:href="#Arial-BoldMT-43"/>
     <use xlink:href="#Arial-BoldMT-4c" transform="translate(72.216797 0)"/>
     <use xlink:href="#Arial-BoldMT-49" transform="translate(133.300781 0)"/>
     <use xlink:href="#Arial-BoldMT-4e" transform="translate(161.083984 0)"/>
     <use xlink:href="#Arial-BoldMT-49" transform="translate(233.300781 0)"/>
     <use xlink:href="#Arial-BoldMT-43" transform="translate(261.083984 0)"/>
     <use xlink:href="#Arial-BoldMT-41" transform="translate(333.300781 0)"/>
     <use xlink:href="#Arial-BoldMT-4c" transform="translate(405.517578 0)"/>
     <use xlink:href="#Arial-BoldMT-20" transform="translate(464.851562 0)"/>
     <use xlink:href="#Arial-BoldMT-49" transform="translate(492.634766 0)"/>
     <use xlink:href="#Arial-BoldMT-4e" transform="translate(520.417969 0)"/>
     <use xlink:href="#Arial-BoldMT-54" transform="translate(592.634766 0)"/>
     <use xlink:href="#Arial-BoldMT-45" transform="translate(653.71875 0)"/>
     <use xlink:href="#Arial-BoldMT-4c" transform="translate(720.417969 0)"/>
     <use xlink:href="#Arial-BoldMT-4c" transform="translate(781.501953 0)"/>
     <use xlink:href="#Arial-BoldMT-49" transform="translate(842.585938 0)"/>
     <use xlink:href="#Arial-BoldMT-47" transform="translate(870.369141 0)"/>
     <use xlink:href="#Arial-BoldMT-45" transform="translate(948.152344 0)"/>
     <use xlink:href="#Arial-BoldMT-4e" transform="translate(1014.851562 0)"/>
     <use xlink:href="#Arial-BoldMT-43" transform="translate(1087.068359 0)"/>
     <use xlink:href="#Arial-BoldMT-45" transform="translate(1159.285156 0)"/>
     <use xlink:href="#Arial-BoldMT-20" transform="translate(1225.984375 0)"/>
     <use xlink:href="#Arial-BoldMT-4c" transform="translate(1253.767578 0)"/>
     <use xlink:href="#Arial-BoldMT-41" transform="translate(1314.851562 0)"/>
     <use xlink:href="#Arial-BoldMT-59" transform="translate(1377.943359 0)"/>
     <use xlink:href="#Arial-BoldMT-45" transform="translate(1444.642578 0)"/>
     <use xlink:href="#Arial-BoldMT-52" transform="translate(1511.341797 0)"/>
    </g>
   </g>
   <g id="text_4">
    <!-- Early Detection  |  Risk Stratification  |  Tumor Characterization  |  Treatment Selection -->
    <g transform="translate(96.68125 215.7075) scale(0.1 -0.1)">
     <defs>
      <path id="ArialMT-45" d="M 506 0 
L 506 4581 
L 3819 4581 
L 3819 4041 
L 1113 4041 
L 1113 2638 
L 3647 2638 
L 3647 2100 
L 1113 2100 
L 1113 541 
L 3925 541 
L 3925 0 
L 506 0 
z
" transform="scale(0.015625)"/>
      <path id="ArialMT-72" d="M 416 0 
L 416 3319 
L 922 3319 
L 922 2816 
Q 1116 3169 1280 3281 
Q 1444 3394 1641 3394 
Q 1925 3394 2219 3213 
L 2025 2691 
Q 1819 2813 1613 2813 
Q 1428 2813 1281 2702 
Q 1134 2591 1072 2394 
Q 978 2094 978 1738 
L 978 0 
L 416 0 
z
" transform="scale(0.015625)"/>
      <path id="ArialMT-6e" d="M 422 0 
L 422 3319 
L 928 3319 
L 928 2847 
Q 1294 3394 1984 3394 
Q 2284 3394 2536 3286 
Q 2788 3178 2913 3003 
Q 3038 2828 3088 2588 
Q 3119 2431 3119 2041 
L 3119 0 
L 2556 0 
L 2556 2019 
Q 2556 2363 2490 2533 
Q 2425 2703 2258 2804 
Q 2091 2906 1866 2906 
Q 1506 2906 1245 2678 
Q 984 2450 984 1813 
L 984 0 
L 422 0 
z
" transform="scale(0.015625)"/>
      <path id="ArialMT-6b" d="M 425 0 
L 425 4581 
L 988 4581 
L 988 1969 
L 2319 3319 
L 3047 3319 
L 1778 2088 
L 3175 0 
L 2481 0 
L 1384 1697 
L 988 1316 
L 988 0 
L 425 0 
z
" transform="scale(0.015625)"/>
      <path id="ArialMT-53" d="M 288 1472 
L 859 1522 
Q 900 1178 1048 958 
Q 1197 738 1509 602 
Q 1822 466 2213 466 
Q 2559 466 2825 569 
Q 3091 672 3220 851 
Q 3350 1031 3350 1244 
Q 3350 1459 3225 1620 
Q 3100 1781 2813 1891 
Q 2628 1963 1997 2114 
Q 1366 2266 1113 2400 
Q 784 2572 623 2826 
Q 463 3081 463 3397 
Q 463 3744 659 4045 
Q 856 4347 1234 4503 
Q 1613 4659 2075 4659 
Q 2584 4659 2973 4495 
Q 3363 4331 3572 4012 
Q 3781 3694 3797 3291 
L 3216 3247 
Q 3169 3681 2898 3903 
Q 2628 4125 2100 4125 
Q 1550 4125 1298 3923 
Q 1047 3722 1047 3438 
Q 1047 3191 1225 3031 
Q 1400 2872 2139 2705 
Q 2878 2538 3153 2413 
Q 3553 2228 3743 1945 
Q 3934 1663 3934 1294 
Q 3934 928 3725 604 
Q 3516 281 3123 101 
Q 2731 -78 2241 -78 
Q 1619 -78 1198 103 
Q 778 284 539 648 
Q 300 1013 288 1472 
z
" transform="scale(0.015625)"/>
      <path id="ArialMT-66" d="M 556 0 
L 556 2881 
L 59 2881 
L 59 3319 
L 556 3319 
L 556 3672 
Q 556 4006 616 4169 
Q 697 4388 901 4523 
Q 1106 4659 1475 4659 
Q 1713 4659 2000 4603 
L 1916 4113 
Q 1741 4144 1584 4144 
Q 1328 4144 1222 4034 
Q 1116 3925 1116 3625 
L 1116 3319 
L 1763 3319 
L 1763 2881 
L 1116 2881 
L 1116 0 
L 556 0 
z
" transform="scale(0.015625)"/>
      <path id="ArialMT-54" d="M 1659 0 
L 1659 4041 
L 150 4041 
L 150 4581 
L 3781 4581 
L 3781 4041 
L 2266 4041 
L 2266 0 
L 1659 0 
z
" transform="scale(0.015625)"/>
      <path id="ArialMT-43" d="M 3763 1606 
L 4369 1453 
Q 4178 706 3683 314 
Q 3188 -78 2472 -78 
Q 1731 -78 1267 223 
Q 803 525 561 1097 
Q 319 1669 319 2325 
Q 319 3041 592 3573 
Q 866 4106 1370 4382 
Q 1875 4659 2481 4659 
Q 3169 4659 3637 4309 
Q 4106 3959 4291 3325 
L 3694 3184 
Q 3534 3684 3231 3912 
Q 2928 4141 2469 4141 
Q 1941 4141 1586 3887 
Q 1231 3634 1087 3207 
Q 944 2781 944 2328 
Q 944 1744 1114 1308 
Q 1284 872 1643 656 
Q 2003 441 2422 441 
Q 2931 441 3284 734 
Q 3638 1028 3763 1606 
z
" transform="scale(0.015625)"/>
      <path id="ArialMT-7a" d="M 125 0 
L 125 456 
L 2238 2881 
Q 1878 2863 1603 2863 
L 250 2863 
L 250 3319 
L 2963 3319 
L 2963 2947 
L 1166 841 
L 819 456 
Q 1197 484 1528 484 
L 3063 484 
L 3063 0 
L 125 0 
z
" transform="scale(0.015625)"/>
     </defs>
     <use xlink:href="#ArialMT-45"/>
     <use xlink:href="#ArialMT-61" transform="translate(66.699219 0)"/>
     <use xlink:href="#ArialMT-72" transform="translate(122.314453 0)"/>
     <use xlink:href="#ArialMT-6c" transform="translate(155.615234 0)"/>
     <use xlink:href="#ArialMT-79" transform="translate(177.832031 0)"/>
     <use xlink:href="#ArialMT-20" transform="translate(227.832031 0)"/>
     <use xlink:href="#ArialMT-44" transform="translate(255.615234 0)"/>
     <use xlink:href="#ArialMT-65" transform="translate(327.832031 0)"/>
     <use xlink:href="#ArialMT-74" transform="translate(383.447266 0)"/>
     <use xlink:href="#ArialMT-65" transform="translate(411.230469 0)"/>
     <use xlink:href="#ArialMT-63" transform="translate(466.845703 0)"/>
     <use xlink:href="#ArialMT-74" transform="translate(516.845703 0)"/>
     <use xlink:href="#ArialMT-69" transform="translate(544.628906 0)"/>
     <use xlink:href="#ArialMT-6f" transform="translate(566.845703 0)"/>
     <use xlink:href="#ArialMT-6e" transform="translate(622.460938 0)"/>
     <use xlink:href="#ArialMT-20" transform="translate(678.076172 0)"/>
     <use xlink:href="#ArialMT-20" transform="translate(705.859375 0)"/>
     <use xlink:href="#ArialMT-7c" transform="translate(733.642578 0)"/>
     <use xlink:href="#ArialMT-20" transform="translate(759.619141 0)"/>
     <use xlink:href="#ArialMT-20" transform="translate(787.402344 0)"/>
     <use xlink:href="#ArialMT-52" transform="translate(815.185547 0)"/>
     <use xlink:href="#ArialMT-69" transform="translate(887.402344 0)"/>
     <use xlink:href="#ArialMT-73" transform="translate(909.619141 0)"/>
     <use xlink:href="#ArialMT-6b" transform="translate(959.619141 0)"/>
     <use xlink:href="#ArialMT-20" transform="translate(1009.619141 0)"/>
     <use xlink:href="#ArialMT-53" transform="translate(1037.402344 0)"/>
     <use xlink:href="#ArialMT-74" transform="translate(1104.101562 0)"/>
     <use xlink:href="#ArialMT-72" transform="translate(1131.884766 0)"/>
     <use xlink:href="#ArialMT-61" transform="translate(1165.185547 0)"/>
     <use xlink:href="#ArialMT-74" transform="translate(1220.800781 0)"/>
     <use xlink:href="#ArialMT-69" transform="translate(1248.583984 0)"/>
     <use xlink:href="#ArialMT-66" transform="translate(1270.800781 0)"/>
     <use xlink:href="#ArialMT-69" transform="translate(1298.583984 0)"/>
     <use xlink:href="#ArialMT-63" transform="translate(1320.800781 0)"/>
     <use xlink:href="#ArialMT-61" transform="translate(1370.800781 0)"/>
     <use xlink:href="#ArialMT-74" transform="translate(1426.416016 0)"/>
     <use xlink:href="#ArialMT-69" transform="translate(1454.199219 0)"/>
     <use xlink:href="#ArialMT-6f" transform="translate(1476.416016 0)"/>
     <use xlink:href="#ArialMT-6e" transform="translate(1532.03125 0)"/>
     <use xlink:href="#ArialMT-20" transform="translate(1587.646484 0)"/>
     <use xlink:href="#ArialMT-20" transform="translate(1615.429688 0)"/>
     <use xlink:href="#ArialMT-7c" transform="translate(1643.212891 0)"/>
     <use xlink:href="#ArialMT-20" transform="translate(1669.189453 0)"/>
     <use xlink:href="#ArialMT-20" transform="translate(1696.972656 0)"/>
     <use xlink:href="#ArialMT-54" transform="translate(1723.005859 0)"/>
     <use xlink:href="#ArialMT-75" transform="translate(1780.339844 0)"/>
     <use xlink:href="#ArialMT-6d" transform="translate(1835.955078 0)"/>
     <use xlink:href="#ArialMT-6f" transform="translate(1919.255859 0)"/>
     <use xlink:href="#ArialMT-72" transform="translate(1974.871094 0)"/>
     <use xlink:href="#ArialMT-20" transform="translate(2008.171875 0)"/>
     <use xlink:href="#ArialMT-43" transform="translate(2035.955078 0)"/>
     <use xlink:href="#ArialMT-68" transform="translate(2108.171875 0)"/>
     <use xlink:href="#ArialMT-61" transform="translate(2163.787109 0)"/>
     <use xlink:href="#ArialMT-72" transform="translate(2219.402344 0)"/>
     <use xlink:href="#ArialMT-61" transform="translate(2252.703125 0)"/>
     <use xlink:href="#ArialMT-63" transform="translate(2308.318359 0)"/>
     <use xlink:href="#ArialMT-74" transform="translate(2358.318359 0)"/>
     <use xlink:href="#ArialMT-65" transform="translate(2386.101562 0)"/>
     <use xlink:href="#ArialMT-72" transform="translate(2441.716797 0)"/>
     <use xlink:href="#ArialMT-69" transform="translate(2475.017578 0)"/>
     <use xlink:href="#ArialMT-7a" transform="translate(2497.234375 0)"/>
     <use xlink:href="#ArialMT-61" transform="translate(2547.234375 0)"/>
     <use xlink:href="#ArialMT-74" transform="translate(2602.849609 0)"/>
     <use xlink:href="#ArialMT-69" transform="translate(2630.632812 0)"/>
     <use xlink:href="#ArialMT-6f" transform="translate(2652.849609 0)"/>
     <use xlink:href="#ArialMT-6e" transform="translate(2708.464844 0)"/>
     <use xlink:href="#ArialMT-20" transform="translate(2764.080078 0)"/>
     <use xlink:href="#ArialMT-20" transform="translate(2791.863281 0)"/>
     <use xlink:href="#ArialMT-7c" transform="translate(2819.646484 0)"/>
     <use xlink:href="#ArialMT-20" transform="translate(2845.623047 0)"/>
     <use xlink:href="#ArialMT-20" transform="translate(2873.40625 0)"/>
     <use xlink:href="#ArialMT-54" transform="translate(2899.439453 0)"/>
     <use xlink:href="#ArialMT-72" transform="translate(2956.773438 0)"/>
     <use xlink:href="#ArialMT-65" transform="translate(2990.074219 0)"/>
     <use xlink:href="#ArialMT-61" transform="translate(3045.689453 0)"/>
     <use xlink:href="#ArialMT-74" transform="translate(3101.304688 0)"/>
     <use xlink:href="#ArialMT-6d" transform="translate(3129.087891 0)"/>
     <use xlink:href="#ArialMT-65" transform="translate(3212.388672 0)"/>
     <use xlink:href="#ArialMT-6e" transform="translate(3268.003906 0)"/>
     <use xlink:href="#ArialMT-74" transform="translate(3323.619141 0)"/>
     <use xlink:href="#ArialMT-20" transform="translate(3351.402344 0)"/>
     <use xlink:href="#ArialMT-53" transform="translate(3379.185547 0)"/>
     <use xlink:href="#ArialMT-65" transform="translate(3445.884766 0)"/>
     <use xlink:href="#ArialMT-6c" transform="translate(3501.5 0)"/>
     <use xlink:href="#ArialMT-65" transform="translate(3523.716797 0)"/>
     <use xlink:href="#ArialMT-63" transform="translate(3579.332031 0)"/>
     <use xlink:href="#ArialMT-74" transform="translate(3629.332031 0)"/>
     <use xlink:href="#ArialMT-69" transform="translate(3657.115234 0)"/>
     <use xlink:href="#ArialMT-6f" transform="translate(3679.332031 0)"/>
     <use xlink:href="#ArialMT-6e" transform="translate(3734.947266 0)"/>
    </g>
   </g>
   <g id="text_5">
    <!-- PRECISION ONCOLOGY LAYER -->
    <g style="fill: #ffffff" transform="translate(195.17625 314.26875) scale(0.12 -0.12)">
     <defs>
      <path id="Arial-BoldMT-50" d="M 466 0 
L 466 4581 
L 1950 4581 
Q 2794 4581 3050 4513 
Q 3444 4409 3709 4064 
Q 3975 3719 3975 3172 
Q 3975 2750 3822 2462 
Q 3669 2175 3433 2011 
Q 3197 1847 2953 1794 
Q 2622 1728 1994 1728 
L 1391 1728 
L 1391 0 
L 466 0 
z
M 1391 3806 
L 1391 2506 
L 1897 2506 
Q 2444 2506 2628 2578 
Q 2813 2650 2917 2803 
Q 3022 2956 3022 3159 
Q 3022 3409 2875 3571 
Q 2728 3734 2503 3775 
Q 2338 3806 1838 3806 
L 1391 3806 
z
" transform="scale(0.015625)"/>
      <path id="Arial-BoldMT-53" d="M 231 1491 
L 1131 1578 
Q 1213 1125 1461 912 
Q 1709 700 2131 700 
Q 2578 700 2804 889 
Q 3031 1078 3031 1331 
Q 3031 1494 2936 1608 
Q 2841 1722 2603 1806 
Q 2441 1863 1863 2006 
Q 1119 2191 819 2459 
Q 397 2838 397 3381 
Q 397 3731 595 4036 
Q 794 4341 1167 4500 
Q 1541 4659 2069 4659 
Q 2931 4659 3367 4281 
Q 3803 3903 3825 3272 
L 2900 3231 
Q 2841 3584 2645 3739 
Q 2450 3894 2059 3894 
Q 1656 3894 1428 3728 
Q 1281 3622 1281 3444 
Q 1281 3281 1419 3166 
Q 1594 3019 2269 2859 
Q 2944 2700 3267 2529 
Q 3591 2359 3773 2064 
Q 3956 1769 3956 1334 
Q 3956 941 3737 597 
Q 3519 253 3119 86 
Q 2719 -81 2122 -81 
Q 1253 -81 787 320 
Q 322 722 231 1491 
z
" transform="scale(0.015625)"/>
     </defs>
     <use xlink:href="#Arial-BoldMT-50"/>
     <use xlink:href="#Arial-BoldMT-52" transform="translate(66.699219 0)"/>
     <use xlink:href="#Arial-BoldMT-45" transform="translate(138.916016 0)"/>
     <use xlink:href="#Arial-BoldMT-43" transform="translate(205.615234 0)"/>
     <use xlink:href="#Arial-BoldMT-49" transform="translate(277.832031 0)"/>
     <use xlink:href="#Arial-BoldMT-53" transform="translate(305.615234 0)"/>
     <use xlink:href="#Arial-BoldMT-49" transform="translate(372.314453 0)"/>
     <use xlink:href="#Arial-BoldMT-4f" transform="translate(400.097656 0)"/>
     <use xlink:href="#Arial-BoldMT-4e" transform="translate(477.880859 0)"/>
     <use xlink:href="#Arial-BoldMT-20" transform="translate(550.097656 0)"/>
     <use xlink:href="#Arial-BoldMT-4f" transform="translate(577.880859 0)"/>
     <use xlink:href="#Arial-BoldMT-4e" transform="translate(655.664062 0)"/>
     <use xlink:href="#Arial-BoldMT-43" transform="translate(727.880859 0)"/>
     <use xlink:href="#Arial-BoldMT-4f" transform="translate(800.097656 0)"/>
     <use xlink:href="#Arial-BoldMT-4c" transform="translate(877.880859 0)"/>
     <use xlink:href="#Arial-BoldMT-4f" transform="translate(938.964844 0)"/>
     <use xlink:href="#Arial-BoldMT-47" transform="translate(1016.748047 0)"/>
     <use xlink:href="#Arial-BoldMT-59" transform="translate(1094.53125 0)"/>
     <use xlink:href="#Arial-BoldMT-20" transform="translate(1159.480469 0)"/>
     <use xlink:href="#Arial-BoldMT-4c" transform="translate(1187.263672 0)"/>
     <use xlink:href="#Arial-BoldMT-41" transform="translate(1248.347656 0)"/>
     <use xlink:href="#Arial-BoldMT-59" transform="translate(1311.439453 0)"/>
     <use xlink:href="#Arial-BoldMT-45" transform="translate(1378.138672 0)"/>
     <use xlink:href="#Arial-BoldMT-52" transform="translate(1444.837891 0)"/>
    </g>
    <!--  -->
    <g style="fill: #ffffff" transform="translate(286.2 326.944125) scale(0.12 -0.12)"/>
    <!-- Personalized Breast Cancer Management -->
    <g style="fill: #ffffff" transform="translate(168.497813 339.795) scale(0.12 -0.12)">
     <defs>
      <path id="Arial-BoldMT-65" d="M 2381 1056 
L 3256 909 
Q 3088 428 2723 176 
Q 2359 -75 1813 -75 
Q 947 -75 531 491 
Q 203 944 203 1634 
Q 203 2459 634 2926 
Q 1066 3394 1725 3394 
Q 2466 3394 2894 2905 
Q 3322 2416 3303 1406 
L 1103 1406 
Q 1113 1016 1316 798 
Q 1519 581 1822 581 
Q 2028 581 2168 693 
Q 2309 806 2381 1056 
z
M 2431 1944 
Q 2422 2325 2234 2523 
Q 2047 2722 1778 2722 
Q 1491 2722 1303 2513 
Q 1116 2303 1119 1944 
L 2431 1944 
z
" transform="scale(0.015625)"/>
      <path id="Arial-BoldMT-72" d="M 1300 0 
L 422 0 
L 422 3319 
L 1238 3319 
L 1238 2847 
Q 1447 3181 1614 3287 
Q 1781 3394 1994 3394 
Q 2294 3394 2572 3228 
L 2300 2463 
Q 2078 2606 1888 2606 
Q 1703 2606 1575 2504 
Q 1447 2403 1373 2137 
Q 1300 1872 1300 1025 
L 1300 0 
z
" transform="scale(0.015625)"/>
      <path id="Arial-BoldMT-73" d="M 150 947 
L 1031 1081 
Q 1088 825 1259 692 
Q 1431 559 1741 559 
Q 2081 559 2253 684 
Q 2369 772 2369 919 
Q 2369 1019 2306 1084 
Q 2241 1147 2013 1200 
Q 950 1434 666 1628 
Q 272 1897 272 2375 
Q 272 2806 612 3100 
Q 953 3394 1669 3394 
Q 2350 3394 2681 3172 
Q 3013 2950 3138 2516 
L 2309 2363 
Q 2256 2556 2107 2659 
Q 1959 2763 1684 2763 
Q 1338 2763 1188 2666 
Q 1088 2597 1088 2488 
Q 1088 2394 1175 2328 
Q 1294 2241 1995 2081 
Q 2697 1922 2975 1691 
Q 3250 1456 3250 1038 
Q 3250 581 2869 253 
Q 2488 -75 1741 -75 
Q 1063 -75 667 200 
Q 272 475 150 947 
z
" transform="scale(0.015625)"/>
      <path id="Arial-BoldMT-6f" d="M 256 1706 
Q 256 2144 472 2553 
Q 688 2963 1083 3178 
Q 1478 3394 1966 3394 
Q 2719 3394 3200 2905 
Q 3681 2416 3681 1669 
Q 3681 916 3195 420 
Q 2709 -75 1972 -75 
Q 1516 -75 1102 131 
Q 688 338 472 736 
Q 256 1134 256 1706 
z
M 1156 1659 
Q 1156 1166 1390 903 
Q 1625 641 1969 641 
Q 2313 641 2545 903 
Q 2778 1166 2778 1666 
Q 2778 2153 2545 2415 
Q 2313 2678 1969 2678 
Q 1625 2678 1390 2415 
Q 1156 2153 1156 1659 
z
" transform="scale(0.015625)"/>
      <path id="Arial-BoldMT-6e" d="M 3478 0 
L 2600 0 
L 2600 1694 
Q 2600 2231 2544 2389 
Q 2488 2547 2361 2634 
Q 2234 2722 2056 2722 
Q 1828 2722 1647 2597 
Q 1466 2472 1398 2265 
Q 1331 2059 1331 1503 
L 1331 0 
L 453 0 
L 453 3319 
L 1269 3319 
L 1269 2831 
Q 1703 3394 2363 3394 
Q 2653 3394 2893 3289 
Q 3134 3184 3257 3021 
Q 3381 2859 3429 2653 
Q 3478 2447 3478 2063 
L 3478 0 
z
" transform="scale(0.015625)"/>
      <path id="Arial-BoldMT-61" d="M 1116 2306 
L 319 2450 
Q 453 2931 781 3162 
Q 1109 3394 1756 3394 
Q 2344 3394 2631 3255 
Q 2919 3116 3036 2902 
Q 3153 2688 3153 2116 
L 3144 1091 
Q 3144 653 3186 445 
Q 3228 238 3344 0 
L 2475 0 
Q 2441 88 2391 259 
Q 2369 338 2359 363 
Q 2134 144 1878 34 
Q 1622 -75 1331 -75 
Q 819 -75 523 203 
Q 228 481 228 906 
Q 228 1188 362 1408 
Q 497 1628 739 1745 
Q 981 1863 1438 1950 
Q 2053 2066 2291 2166 
L 2291 2253 
Q 2291 2506 2166 2614 
Q 2041 2722 1694 2722 
Q 1459 2722 1328 2630 
Q 1197 2538 1116 2306 
z
M 2291 1594 
Q 2122 1538 1756 1459 
Q 1391 1381 1278 1306 
Q 1106 1184 1106 997 
Q 1106 813 1243 678 
Q 1381 544 1594 544 
Q 1831 544 2047 700 
Q 2206 819 2256 991 
Q 2291 1103 2291 1419 
L 2291 1594 
z
" transform="scale(0.015625)"/>
      <path id="Arial-BoldMT-6c" d="M 459 0 
L 459 4581 
L 1338 4581 
L 1338 0 
L 459 0 
z
" transform="scale(0.015625)"/>
      <path id="Arial-BoldMT-69" d="M 459 3769 
L 459 4581 
L 1338 4581 
L 1338 3769 
L 459 3769 
z
M 459 0 
L 459 3319 
L 1338 3319 
L 1338 0 
L 459 0 
z
" transform="scale(0.015625)"/>
      <path id="Arial-BoldMT-7a" d="M 106 0 
L 106 684 
L 1350 2113 
Q 1656 2463 1803 2609 
Q 1650 2600 1400 2597 
L 228 2591 
L 228 3319 
L 2972 3319 
L 2972 2697 
L 1703 1234 
L 1256 750 
Q 1622 772 1709 772 
L 3069 772 
L 3069 0 
L 106 0 
z
" transform="scale(0.015625)"/>
      <path id="Arial-BoldMT-64" d="M 3503 0 
L 2688 0 
L 2688 488 
Q 2484 203 2207 64 
Q 1931 -75 1650 -75 
Q 1078 -75 670 386 
Q 263 847 263 1672 
Q 263 2516 659 2955 
Q 1056 3394 1663 3394 
Q 2219 3394 2625 2931 
L 2625 4581 
L 3503 4581 
L 3503 0 
z
M 1159 1731 
Q 1159 1200 1306 963 
Q 1519 619 1900 619 
Q 2203 619 2415 876 
Q 2628 1134 2628 1647 
Q 2628 2219 2422 2470 
Q 2216 2722 1894 2722 
Q 1581 2722 1370 2473 
Q 1159 2225 1159 1731 
z
" transform="scale(0.015625)"/>
      <path id="Arial-BoldMT-42" d="M 469 4581 
L 2300 4581 
Q 2844 4581 3111 4536 
Q 3378 4491 3589 4347 
Q 3800 4203 3940 3964 
Q 4081 3725 4081 3428 
Q 4081 3106 3907 2837 
Q 3734 2569 3438 2434 
Q 3856 2313 4081 2019 
Q 4306 1725 4306 1328 
Q 4306 1016 4161 720 
Q 4016 425 3764 248 
Q 3513 72 3144 31 
Q 2913 6 2028 0 
L 469 0 
L 469 4581 
z
M 1394 3819 
L 1394 2759 
L 2000 2759 
Q 2541 2759 2672 2775 
Q 2909 2803 3045 2939 
Q 3181 3075 3181 3297 
Q 3181 3509 3064 3642 
Q 2947 3775 2716 3803 
Q 2578 3819 1925 3819 
L 1394 3819 
z
M 1394 1997 
L 1394 772 
L 2250 772 
Q 2750 772 2884 800 
Q 3091 838 3220 983 
Q 3350 1128 3350 1372 
Q 3350 1578 3250 1722 
Q 3150 1866 2961 1931 
Q 2772 1997 2141 1997 
L 1394 1997 
z
" transform="scale(0.015625)"/>
      <path id="Arial-BoldMT-74" d="M 1981 3319 
L 1981 2619 
L 1381 2619 
L 1381 1281 
Q 1381 875 1398 808 
Q 1416 741 1477 697 
Q 1538 653 1625 653 
Q 1747 653 1978 738 
L 2053 56 
Q 1747 -75 1359 -75 
Q 1122 -75 931 4 
Q 741 84 652 211 
Q 563 338 528 553 
Q 500 706 500 1172 
L 500 2619 
L 97 2619 
L 97 3319 
L 500 3319 
L 500 3978 
L 1381 4491 
L 1381 3319 
L 1981 3319 
z
" transform="scale(0.015625)"/>
      <path id="Arial-BoldMT-63" d="M 3353 2338 
L 2488 2181 
Q 2444 2441 2289 2572 
Q 2134 2703 1888 2703 
Q 1559 2703 1364 2476 
Q 1169 2250 1169 1719 
Q 1169 1128 1367 884 
Q 1566 641 1900 641 
Q 2150 641 2309 783 
Q 2469 925 2534 1272 
L 3397 1125 
Q 3263 531 2881 228 
Q 2500 -75 1859 -75 
Q 1131 -75 698 384 
Q 266 844 266 1656 
Q 266 2478 700 2936 
Q 1134 3394 1875 3394 
Q 2481 3394 2839 3133 
Q 3197 2872 3353 2338 
z
" transform="scale(0.015625)"/>
      <path id="Arial-BoldMT-4d" d="M 453 0 
L 453 4581 
L 1838 4581 
L 2669 1456 
L 3491 4581 
L 4878 4581 
L 4878 0 
L 4019 0 
L 4019 3606 
L 3109 0 
L 2219 0 
L 1313 3606 
L 1313 0 
L 453 0 
z
" transform="scale(0.015625)"/>
      <path id="Arial-BoldMT-67" d="M 378 -219 
L 1381 -341 
Q 1406 -516 1497 -581 
Q 1622 -675 1891 -675 
Q 2234 -675 2406 -572 
Q 2522 -503 2581 -350 
Q 2622 -241 2622 53 
L 2622 538 
Q 2228 0 1628 0 
Q 959 0 569 566 
Q 263 1013 263 1678 
Q 263 2513 664 2953 
Q 1066 3394 1663 3394 
Q 2278 3394 2678 2853 
L 2678 3319 
L 3500 3319 
L 3500 341 
Q 3500 -247 3403 -537 
Q 3306 -828 3131 -993 
Q 2956 -1159 2664 -1253 
Q 2372 -1347 1925 -1347 
Q 1081 -1347 728 -1058 
Q 375 -769 375 -325 
Q 375 -281 378 -219 
z
M 1163 1728 
Q 1163 1200 1367 954 
Q 1572 709 1872 709 
Q 2194 709 2416 961 
Q 2638 1213 2638 1706 
Q 2638 2222 2425 2472 
Q 2213 2722 1888 2722 
Q 1572 2722 1367 2476 
Q 1163 2231 1163 1728 
z
" transform="scale(0.015625)"/>
      <path id="Arial-BoldMT-6d" d="M 394 3319 
L 1203 3319 
L 1203 2866 
Q 1638 3394 2238 3394 
Q 2556 3394 2790 3262 
Q 3025 3131 3175 2866 
Q 3394 3131 3647 3262 
Q 3900 3394 4188 3394 
Q 4553 3394 4806 3245 
Q 5059 3097 5184 2809 
Q 5275 2597 5275 2122 
L 5275 0 
L 4397 0 
L 4397 1897 
Q 4397 2391 4306 2534 
Q 4184 2722 3931 2722 
Q 3747 2722 3584 2609 
Q 3422 2497 3350 2280 
Q 3278 2063 3278 1594 
L 3278 0 
L 2400 0 
L 2400 1819 
Q 2400 2303 2353 2443 
Q 2306 2584 2207 2653 
Q 2109 2722 1941 2722 
Q 1738 2722 1575 2612 
Q 1413 2503 1342 2297 
Q 1272 2091 1272 1613 
L 1272 0 
L 394 0 
L 394 3319 
z
" transform="scale(0.015625)"/>
     </defs>
     <use xlink:href="#Arial-BoldMT-50"/>
     <use xlink:href="#Arial-BoldMT-65" transform="translate(66.699219 0)"/>
     <use xlink:href="#Arial-BoldMT-72" transform="translate(122.314453 0)"/>
     <use xlink:href="#Arial-BoldMT-73" transform="translate(161.230469 0)"/>
     <use xlink:href="#Arial-BoldMT-6f" transform="translate(216.845703 0)"/>
     <use xlink:href="#Arial-BoldMT-6e" transform="translate(277.929688 0)"/>
     <use xlink:href="#Arial-BoldMT-61" transform="translate(339.013672 0)"/>
     <use xlink:href="#Arial-BoldMT-6c" transform="translate(394.628906 0)"/>
     <use xlink:href="#Arial-BoldMT-69" transform="translate(422.412109 0)"/>
     <use xlink:href="#Arial-BoldMT-7a" transform="translate(450.195312 0)"/>
     <use xlink:href="#Arial-BoldMT-65" transform="translate(500.195312 0)"/>
     <use xlink:href="#Arial-BoldMT-64" transform="translate(555.810547 0)"/>
     <use xlink:href="#Arial-BoldMT-20" transform="translate(616.894531 0)"/>
     <use xlink:href="#Arial-BoldMT-42" transform="translate(644.677734 0)"/>
     <use xlink:href="#Arial-BoldMT-72" transform="translate(716.894531 0)"/>
     <use xlink:href="#Arial-BoldMT-65" transform="translate(755.810547 0)"/>
     <use xlink:href="#Arial-BoldMT-61" transform="translate(811.425781 0)"/>
     <use xlink:href="#Arial-BoldMT-73" transform="translate(867.041016 0)"/>
     <use xlink:href="#Arial-BoldMT-74" transform="translate(922.65625 0)"/>
     <use xlink:href="#Arial-BoldMT-20" transform="translate(955.957031 0)"/>
     <use xlink:href="#Arial-BoldMT-43" transform="translate(983.740234 0)"/>
     <use xlink:href="#Arial-BoldMT-61" transform="translate(1055.957031 0)"/>
     <use xlink:href="#Arial-BoldMT-6e" transform="translate(1111.572266 0)"/>
     <use xlink:href="#Arial-BoldMT-63" transform="translate(1172.65625 0)"/>
     <use xlink:href="#Arial-BoldMT-65" transform="translate(1228.271484 0)"/>
     <use xlink:href="#Arial-BoldMT-72" transform="translate(1283.886719 0)"/>
     <use xlink:href="#Arial-BoldMT-20" transform="translate(1322.802734 0)"/>
     <use xlink:href="#Arial-BoldMT-4d" transform="translate(1350.585938 0)"/>
     <use xlink:href="#Arial-BoldMT-61" transform="translate(1433.886719 0)"/>
     <use xlink:href="#Arial-BoldMT-6e" transform="translate(1489.501953 0)"/>
     <use xlink:href="#Arial-BoldMT-61" transform="translate(1550.585938 0)"/>
     <use xlink:href="#Arial-BoldMT-67" transform="translate(1606.201172 0)"/>
     <use xlink:href="#Arial-BoldMT-65" transform="translate(1667.285156 0)"/>
     <use xlink:href="#Arial-BoldMT-6d" transform="translate(1722.900391 0)"/>
     <use xlink:href="#Arial-BoldMT-65" transform="translate(1811.816406 0)"/>
     <use xlink:href="#Arial-BoldMT-6e" transform="translate(1867.431641 0)"/>
     <use xlink:href="#Arial-BoldMT-74" transform="translate(1928.515625 0)"/>
    </g>
   </g>
   <g id="text_6">
    <!-- CLINICAL OUTCOMES LAYER -->
    <g style="fill: #1f3a5f" transform="translate(200.520938 426.110625) scale(0.12 -0.12)">
     <defs>
      <path id="Arial-BoldMT-55" d="M 459 4581 
L 1384 4581 
L 1384 2100 
Q 1384 1509 1419 1334 
Q 1478 1053 1701 883 
Q 1925 713 2313 713 
Q 2706 713 2906 873 
Q 3106 1034 3147 1268 
Q 3188 1503 3188 2047 
L 3188 4581 
L 4113 4581 
L 4113 2175 
Q 4113 1350 4038 1009 
Q 3963 669 3761 434 
Q 3559 200 3221 61 
Q 2884 -78 2341 -78 
Q 1684 -78 1345 73 
Q 1006 225 809 467 
Q 613 709 550 975 
Q 459 1369 459 2138 
L 459 4581 
z
" transform="scale(0.015625)"/>
     </defs>
     <use xlink:href="#Arial-BoldMT-43"/>
     <use xlink:href="#Arial-BoldMT-4c" transform="translate(72.216797 0)"/>
     <use xlink:href="#Arial-BoldMT-49" transform="translate(133.300781 0)"/>
     <use xlink:href="#Arial-BoldMT-4e" transform="translate(161.083984 0)"/>
     <use xlink:href="#Arial-BoldMT-49" transform="translate(233.300781 0)"/>
     <use xlink:href="#Arial-BoldMT-43" transform="translate(261.083984 0)"/>
     <use xlink:href="#Arial-BoldMT-41" transform="translate(333.300781 0)"/>
     <use xlink:href="#Arial-BoldMT-4c" transform="translate(405.517578 0)"/>
     <use xlink:href="#Arial-BoldMT-20" transform="translate(464.851562 0)"/>
     <use xlink:href="#Arial-BoldMT-4f" transform="translate(492.634766 0)"/>
     <use xlink:href="#Arial-BoldMT-55" transform="translate(570.417969 0)"/>
     <use xlink:href="#Arial-BoldMT-54" transform="translate(642.634766 0)"/>
     <use xlink:href="#Arial-BoldMT-43" transform="translate(703.71875 0)"/>
     <use xlink:href="#Arial-BoldMT-4f" transform="translate(775.935547 0)"/>
     <use xlink:href="#Arial-BoldMT-4d" transform="translate(853.71875 0)"/>
     <use xlink:href="#Arial-BoldMT-45" transform="translate(937.019531 0)"/>
     <use xlink:href="#Arial-BoldMT-53" transform="translate(1003.71875 0)"/>
     <use xlink:href="#Arial-BoldMT-20" transform="translate(1070.417969 0)"/>
     <use xlink:href="#Arial-BoldMT-4c" transform="translate(1098.201172 0)"/>
     <use xlink:href="#Arial-BoldMT-41" transform="translate(1159.285156 0)"/>
     <use xlink:href="#Arial-BoldMT-59" transform="translate(1222.376953 0)"/>
     <use xlink:href="#Arial-BoldMT-45" transform="translate(1289.076172 0)"/>
     <use xlink:href="#Arial-BoldMT-52" transform="translate(1355.775391 0)"/>
    </g>
   </g>
   <g id="text_7">
    <!-- Improved Survival  |  Reduced Toxicity  |  Better Quality of Life -->
    <g transform="translate(149.475 453.310625) scale(0.1 -0.1)">
     <defs>
      <path id="ArialMT-76" d="M 1344 0 
L 81 3319 
L 675 3319 
L 1388 1331 
Q 1503 1009 1600 663 
Q 1675 925 1809 1294 
L 2547 3319 
L 3125 3319 
L 1869 0 
L 1344 0 
z
" transform="scale(0.015625)"/>
      <path id="ArialMT-78" d="M 47 0 
L 1259 1725 
L 138 3319 
L 841 3319 
L 1350 2541 
Q 1494 2319 1581 2169 
Q 1719 2375 1834 2534 
L 2394 3319 
L 3066 3319 
L 1919 1756 
L 3153 0 
L 2463 0 
L 1781 1031 
L 1600 1309 
L 728 0 
L 47 0 
z
" transform="scale(0.015625)"/>
      <path id="ArialMT-51" d="M 3966 491 
Q 4388 200 4744 66 
L 4566 -356 
Q 4072 -178 3581 206 
Q 3072 -78 2456 -78 
Q 1834 -78 1328 222 
Q 822 522 548 1065 
Q 275 1609 275 2291 
Q 275 2969 550 3525 
Q 825 4081 1333 4372 
Q 1841 4663 2469 4663 
Q 3103 4663 3612 4361 
Q 4122 4059 4389 3517 
Q 4656 2975 4656 2294 
Q 4656 1728 4484 1276 
Q 4313 825 3966 491 
z
M 2631 1266 
Q 3156 1119 3497 828 
Q 4031 1316 4031 2294 
Q 4031 2850 3842 3265 
Q 3653 3681 3289 3911 
Q 2925 4141 2472 4141 
Q 1794 4141 1347 3677 
Q 900 3213 900 2291 
Q 900 1397 1342 919 
Q 1784 441 2472 441 
Q 2797 441 3084 563 
Q 2800 747 2484 825 
L 2631 1266 
z
" transform="scale(0.015625)"/>
     </defs>
     <use xlink:href="#ArialMT-49"/>
     <use xlink:href="#ArialMT-6d" transform="translate(27.783203 0)"/>
     <use xlink:href="#ArialMT-70" transform="translate(111.083984 0)"/>
     <use xlink:href="#ArialMT-72" transform="translate(166.699219 0)"/>
     <use xlink:href="#ArialMT-6f" transform="translate(200 0)"/>
     <use xlink:href="#ArialMT-76" transform="translate(255.615234 0)"/>
     <use xlink:href="#ArialMT-65" transform="translate(305.615234 0)"/>
     <use xlink:href="#ArialMT-64" transform="translate(361.230469 0)"/>
     <use xlink:href="#ArialMT-20" transform="translate(416.845703 0)"/>
     <use xlink:href="#ArialMT-53" transform="translate(444.628906 0)"/>
     <use xlink:href="#ArialMT-75" transform="translate(511.328125 0)"/>
     <use xlink:href="#ArialMT-72" transform="translate(566.943359 0)"/>
     <use xlink:href="#ArialMT-76" transform="translate(600.244141 0)"/>
     <use xlink:href="#ArialMT-69" transform="translate(650.244141 0)"/>
     <use xlink:href="#ArialMT-76" transform="translate(672.460938 0)"/>
     <use xlink:href="#ArialMT-61" transform="translate(722.460938 0)"/>
     <use xlink:href="#ArialMT-6c" transform="translate(778.076172 0)"/>
     <use xlink:href="#ArialMT-20" transform="translate(800.292969 0)"/>
     <use xlink:href="#ArialMT-20" transform="translate(828.076172 0)"/>
     <use xlink:href="#ArialMT-7c" transform="translate(855.859375 0)"/>
     <use xlink:href="#ArialMT-20" transform="translate(881.835938 0)"/>
     <use xlink:href="#ArialMT-20" transform="translate(909.619141 0)"/>
     <use xlink:href="#ArialMT-52" transform="translate(937.402344 0)"/>
     <use xlink:href="#ArialMT-65" transform="translate(1009.619141 0)"/>
     <use xlink:href="#ArialMT-64" transform="translate(1065.234375 0)"/>
     <use xlink:href="#ArialMT-75" transform="translate(1120.849609 0)"/>
     <use xlink:href="#ArialMT-63" transform="translate(1176.464844 0)"/>
     <use xlink:href="#ArialMT-65" transform="translate(1226.464844 0)"/>
     <use xlink:href="#ArialMT-64" transform="translate(1282.080078 0)"/>
     <use xlink:href="#ArialMT-20" transform="translate(1337.695312 0)"/>
     <use xlink:href="#ArialMT-54" transform="translate(1363.728516 0)"/>
     <use xlink:href="#ArialMT-6f" transform="translate(1413.6875 0)"/>
     <use xlink:href="#ArialMT-78" transform="translate(1469.302734 0)"/>
     <use xlink:href="#ArialMT-69" transform="translate(1519.302734 0)"/>
     <use xlink:href="#ArialMT-63" transform="translate(1541.519531 0)"/>
     <use xlink:href="#ArialMT-69" transform="translate(1591.519531 0)"/>
     <use xlink:href="#ArialMT-74" transform="translate(1613.736328 0)"/>
     <use xlink:href="#ArialMT-79" transform="translate(1641.519531 0)"/>
     <use xlink:href="#ArialMT-20" transform="translate(1691.519531 0)"/>
     <use xlink:href="#ArialMT-20" transform="translate(1719.302734 0)"/>
     <use xlink:href="#ArialMT-7c" transform="translate(1747.085938 0)"/>
     <use xlink:href="#ArialMT-20" transform="translate(1773.0625 0)"/>
     <use xlink:href="#ArialMT-20" transform="translate(1800.845703 0)"/>
     <use xlink:href="#ArialMT-42" transform="translate(1828.628906 0)"/>
     <use xlink:href="#ArialMT-65" transform="translate(1895.328125 0)"/>
     <use xlink:href="#ArialMT-74" transform="translate(1950.943359 0)"/>
     <use xlink:href="#ArialMT-74" transform="translate(1978.726562 0)"/>
     <use xlink:href="#ArialMT-65" transform="translate(2006.509766 0)"/>
     <use xlink:href="#ArialMT-72" transform="translate(2062.125 0)"/>
     <use xlink:href="#ArialMT-20" transform="translate(2095.425781 0)"/>
     <use xlink:href="#ArialMT-51" transform="translate(2123.208984 0)"/>
     <use xlink:href="#ArialMT-75" transform="translate(2200.992188 0)"/>
     <use xlink:href="#ArialMT-61" transform="translate(2256.607422 0)"/>
     <use xlink:href="#ArialMT-6c" transform="translate(2312.222656 0)"/>
     <use xlink:href="#ArialMT-69" transform="translate(2334.439453 0)"/>
     <use xlink:href="#ArialMT-74" transform="translate(2356.65625 0)"/>
     <use xlink:href="#ArialMT-79" transform="translate(2384.439453 0)"/>
     <use xlink:href="#ArialMT-20" transform="translate(2434.439453 0)"/>
     <use xlink:href="#ArialMT-6f" transform="translate(2462.222656 0)"/>
     <use xlink:href="#ArialMT-66" transform="translate(2517.837891 0)"/>
     <use xlink:href="#ArialMT-20" transform="translate(2545.621094 0)"/>
     <use xlink:href="#ArialMT-4c" transform="translate(2573.404297 0)"/>
     <use xlink:href="#ArialMT-69" transform="translate(2629.019531 0)"/>
     <use xlink:href="#ArialMT-66" transform="translate(2651.236328 0)"/>
     <use xlink:href="#ArialMT-65" transform="translate(2679.019531 0)"/>
    </g>
   </g>
   <g id="text_8">
    <!-- Integrated Precision Oncology Ecosystem -->
    <g style="fill: #1f3a5f" transform="translate(125.71875 28.92) scale(0.16 -0.16)">
     <defs>
      <path id="Arial-BoldMT-79" d="M 44 3319 
L 978 3319 
L 1772 963 
L 2547 3319 
L 3456 3319 
L 2284 125 
L 2075 -453 
Q 1959 -744 1854 -897 
Q 1750 -1050 1614 -1145 
Q 1478 -1241 1279 -1294 
Q 1081 -1347 831 -1347 
Q 578 -1347 334 -1294 
L 256 -606 
Q 463 -647 628 -647 
Q 934 -647 1081 -467 
Q 1228 -288 1306 -9 
L 44 3319 
z
" transform="scale(0.015625)"/>
     </defs>
     <use xlink:href="#Arial-BoldMT-49"/>
     <use xlink:href="#Arial-BoldMT-6e" transform="translate(27.783203 0)"/>
     <use xlink:href="#Arial-BoldMT-74" transform="translate(88.867188 0)"/>
     <use xlink:href="#Arial-BoldMT-65" transform="translate(122.167969 0)"/>
     <use xlink:href="#Arial-BoldMT-67" transform="translate(177.783203 0)"/>
     <use xlink:href="#Arial-BoldMT-72" transform="translate(238.867188 0)"/>
     <use xlink:href="#Arial-BoldMT-61" transform="translate(277.783203 0)"/>
     <use xlink:href="#Arial-BoldMT-74" transform="translate(333.398438 0)"/>
     <use xlink:href="#Arial-BoldMT-65" transform="translate(366.699219 0)"/>
     <use xlink:href="#Arial-BoldMT-64" transform="translate(422.314453 0)"/>
     <use xlink:href="#Arial-BoldMT-20" transform="translate(483.398438 0)"/>
     <use xlink:href="#Arial-BoldMT-50" transform="translate(511.181641 0)"/>
     <use xlink:href="#Arial-BoldMT-72" transform="translate(577.880859 0)"/>
     <use xlink:href="#Arial-BoldMT-65" transform="translate(616.796875 0)"/>
     <use xlink:href="#Arial-BoldMT-63" transform="translate(672.412109 0)"/>
     <use xlink:href="#Arial-BoldMT-69" transform="translate(728.027344 0)"/>
     <use xlink:href="#Arial-BoldMT-73" transform="translate(755.810547 0)"/>
     <use xlink:href="#Arial-BoldMT-69" transform="translate(811.425781 0)"/>
     <use xlink:href="#Arial-BoldMT-6f" transform="translate(839.208984 0)"/>
     <use xlink:href="#Arial-BoldMT-6e" transform="translate(900.292969 0)"/>
     <use xlink:href="#Arial-BoldMT-20" transform="translate(961.376953 0)"/>
     <use xlink:href="#Arial-BoldMT-4f" transform="translate(989.160156 0)"/>
     <use xlink:href="#Arial-BoldMT-6e" transform="translate(1066.943359 0)"/>
     <use xlink:href="#Arial-BoldMT-63" transform="translate(1128.027344 0)"/>
     <use xlink:href="#Arial-BoldMT-6f" transform="translate(1183.642578 0)"/>
     <use xlink:href="#Arial-BoldMT-6c" transform="translate(1244.726562 0)"/>
     <use xlink:href="#Arial-BoldMT-6f" transform="translate(1272.509766 0)"/>
     <use xlink:href="#Arial-BoldMT-67" transform="translate(1333.59375 0)"/>
     <use xlink:href="#Arial-BoldMT-79" transform="translate(1394.677734 0)"/>
     <use xlink:href="#Arial-BoldMT-20" transform="translate(1450.292969 0)"/>
     <use xlink:href="#Arial-BoldMT-45" transform="translate(1478.076172 0)"/>
     <use xlink:href="#Arial-BoldMT-63" transform="translate(1544.775391 0)"/>
     <use xlink:href="#Arial-BoldMT-6f" transform="translate(1600.390625 0)"/>
     <use xlink:href="#Arial-BoldMT-73" transform="translate(1661.474609 0)"/>
     <use xlink:href="#Arial-BoldMT-79" transform="translate(1717.089844 0)"/>
     <use xlink:href="#Arial-BoldMT-73" transform="translate(1772.705078 0)"/>
     <use xlink:href="#Arial-BoldMT-74" transform="translate(1828.320312 0)"/>
     <use xlink:href="#Arial-BoldMT-65" transform="translate(1861.621094 0)"/>
     <use xlink:href="#Arial-BoldMT-6d" transform="translate(1917.236328 0)"/>
    </g>
   </g>
  </g>
 </g>
 <defs>
  <clipPath id="p5699c7f0c9">
   <rect x="7.2" y="7.2" width="558" height="554.4"/>
  </clipPath>
 </defs>
</svg>
