<?xml version="1.0" encoding="utf-8" standalone="no"?>
<!DOCTYPE svg PUBLIC "-//W3C//DTD SVG 1.1//EN"
  "http://www.w3.org/Graphics/SVG/1.1/DTD/svg11.dtd">
<svg xmlns:xlink="http://www.w3.org/1999/xlink" width="684pt" height="348.0555pt" viewBox="0 0 684 348.0555" xmlns="http://www.w3.org/2000/svg" version="1.1">
 <metadata>
  <rdf:RDF xmlns:dc="http://purl.org/dc/elements/1.1/" xmlns:cc="http://creativecommons.org/ns#" xmlns:rdf="http://www.w3.org/1999/02/22-rdf-syntax-ns#">
   <cc:Work>
    <dc:type rdf:resource="http://purl.org/dc/dcmitype/StillImage"/>
    <dc:date>2026-06-15T19:33:08.605570</dc:date>
    <dc:format>image/svg+xml</dc:format>
    <dc:creator>
     <cc:Agent>
      <dc:title>Matplotlib v3.10.3, https://matplotlib.org/</dc:title>
     </cc:Agent>
    </dc:creator>
   </cc:Work>
  </rdf:RDF>
 </metadata>
 <defs>
  <style type="text/css">*{stroke-linejoin: round; stroke-linecap: butt}</style>
 </defs>
 <g id="figure_1">
  <g id="patch_1">
   <path d="M 0 348.0555 
L 684 348.0555 
L 684 0 
L 0 0 
z
" style="fill: #ffffff"/>
  </g>
  <g id="axes_1">
   <g id="patch_2">
    <path d="M 45.830769 297.1965 
L 226.107692 297.1965 
Q 236.409231 297.1965 236.409231 288.8805 
L 236.409231 60.1905 
Q 236.409231 51.8745 226.107692 51.8745 
L 45.830769 51.8745 
Q 35.529231 51.8745 35.529231 60.1905 
L 35.529231 288.8805 
Q 35.529231 297.1965 45.830769 297.1965 
z
" clip-path="url(#pd9155c34ce)" style="fill: #7db7d5"/>
   </g>
   <g id="patch_3">
    <path d="M 264.738462 297.1965 
L 445.015385 297.1965 
Q 455.316923 297.1965 455.316923 288.8805 
L 455.316923 60.1905 
Q 455.316923 51.8745 445.015385 51.8745 
L 264.738462 51.8745 
Q 254.436923 51.8745 254.436923 60.1905 
L 254.436923 288.8805 
Q 254.436923 297.1965 264.738462 297.1965 
z
" clip-path="url(#pd9155c34ce)" style="fill: #2a9d8f"/>
   </g>
   <g id="patch_4">
    <path d="M 483.646154 297.1965 
L 663.923077 297.1965 
Q 674.224615 297.1965 674.224615 288.8805 
L 674.224615 60.1905 
Q 674.224615 51.8745 663.923077 51.8745 
L 483.646154 51.8745 
Q 473.344615 51.8745 473.344615 60.1905 
L 473.344615 288.8805 
Q 473.344615 297.1965 483.646154 297.1965 
z
" clip-path="url(#pd9155c34ce)" style="fill: #1f3a5f"/>
   </g>
   <g id="text_1">
    <!-- CURRENT STATE -->
    <g style="fill: #ffffff" transform="translate(86.187981 81.744937) scale(0.12 -0.12)">
     <defs>
      <path id="Arial-BoldMT-43" d="M 3397 1684 
L 4294 1400 
Q 4088 650 3608 286 
Q 3128 -78 2391 -78 
Q 1478 -78 890 545 
Q 303 1169 303 2250 
Q 303 3394 893 4026 
Q 1484 4659 2447 4659 
Q 3288 4659 3813 4163 
Q 4125 3869 4281 3319 
L 3366 3100 
Q 3284 3456 3026 3662 
Q 2769 3869 2400 3869 
Q 1891 3869 1573 3503 
Q 1256 3138 1256 2319 
Q 1256 1450 1568 1081 
Q 1881 713 2381 713 
Q 2750 713 3015 947 
Q 3281 1181 3397 1684 
z
" transform="scale(0.015625)"/>
      <path id="Arial-BoldMT-55" d="M 459 4581 
L 1384 4581 
L 1384 2100 
Q 1384 1509 1419 1334 
Q 1478 1053 1701 883 
Q 1925 713 2313 713 
Q 2706 713 2906 873 
Q 3106 1034 3147 1268 
Q 3188 1503 3188 2047 
L 3188 4581 
L 4113 4581 
L 4113 2175 
Q 4113 1350 4038 1009 
Q 3963 669 3761 434 
Q 3559 200 3221 61 
Q 2884 -78 2341 -78 
Q 1684 -78 1345 73 
Q 1006 225 809 467 
Q 613 709 550 975 
Q 459 1369 459 2138 
L 459 4581 
z
" transform="scale(0.015625)"/>
      <path id="Arial-BoldMT-52" d="M 469 0 
L 469 4581 
L 2416 4581 
Q 3150 4581 3483 4457 
Q 3816 4334 4016 4018 
Q 4216 3703 4216 3297 
Q 4216 2781 3912 2445 
Q 3609 2109 3006 2022 
Q 3306 1847 3501 1637 
Q 3697 1428 4028 894 
L 4588 0 
L 3481 0 
L 2813 997 
Q 2456 1531 2325 1670 
Q 2194 1809 2047 1861 
Q 1900 1913 1581 1913 
L 1394 1913 
L 1394 0 
L 469 0 
z
M 1394 2644 
L 2078 2644 
Q 2744 2644 2909 2700 
Q 3075 2756 3169 2893 
Q 3263 3031 3263 3238 
Q 3263 3469 3139 3611 
Q 3016 3753 2791 3791 
Q 2678 3806 2116 3806 
L 1394 3806 
L 1394 2644 
z
" transform="scale(0.015625)"/>
      <path id="Arial-BoldMT-45" d="M 466 0 
L 466 4581 
L 3863 4581 
L 3863 3806 
L 1391 3806 
L 1391 2791 
L 3691 2791 
L 3691 2019 
L 1391 2019 
L 1391 772 
L 3950 772 
L 3950 0 
L 466 0 
z
" transform="scale(0.015625)"/>
      <path id="Arial-BoldMT-4e" d="M 475 0 
L 475 4581 
L 1375 4581 
L 3250 1522 
L 3250 4581 
L 4109 4581 
L 4109 0 
L 3181 0 
L 1334 2988 
L 1334 0 
L 475 0 
z
" transform="scale(0.015625)"/>
      <path id="Arial-BoldMT-54" d="M 1497 0 
L 1497 3806 
L 138 3806 
L 138 4581 
L 3778 4581 
L 3778 3806 
L 2422 3806 
L 2422 0 
L 1497 0 
z
" transform="scale(0.015625)"/>
      <path id="Arial-BoldMT-20" transform="scale(0.015625)"/>
      <path id="Arial-BoldMT-53" d="M 231 1491 
L 1131 1578 
Q 1213 1125 1461 912 
Q 1709 700 2131 700 
Q 2578 700 2804 889 
Q 3031 1078 3031 1331 
Q 3031 1494 2936 1608 
Q 2841 1722 2603 1806 
Q 2441 1863 1863 2006 
Q 1119 2191 819 2459 
Q 397 2838 397 3381 
Q 397 3731 595 4036 
Q 794 4341 1167 4500 
Q 1541 4659 2069 4659 
Q 2931 4659 3367 4281 
Q 3803 3903 3825 3272 
L 2900 3231 
Q 2841 3584 2645 3739 
Q 2450 3894 2059 3894 
Q 1656 3894 1428 3728 
Q 1281 3622 1281 3444 
Q 1281 3281 1419 3166 
Q 1594 3019 2269 2859 
Q 2944 2700 3267 2529 
Q 3591 2359 3773 2064 
Q 3956 1769 3956 1334 
Q 3956 941 3737 597 
Q 3519 253 3119 86 
Q 2719 -81 2122 -81 
Q 1253 -81 787 320 
Q 322 722 231 1491 
z
" transform="scale(0.015625)"/>
      <path id="Arial-BoldMT-41" d="M 4597 0 
L 3591 0 
L 3191 1041 
L 1359 1041 
L 981 0 
L 0 0 
L 1784 4581 
L 2763 4581 
L 4597 0 
z
M 2894 1813 
L 2263 3513 
L 1644 1813 
L 2894 1813 
z
" transform="scale(0.015625)"/>
     </defs>
     <use xlink:href="#Arial-BoldMT-43"/>
     <use xlink:href="#Arial-BoldMT-55" transform="translate(72.216797 0)"/>
     <use xlink:href="#Arial-BoldMT-52" transform="translate(144.433594 0)"/>
     <use xlink:href="#Arial-BoldMT-52" transform="translate(216.650391 0)"/>
     <use xlink:href="#Arial-BoldMT-45" transform="translate(288.867188 0)"/>
     <use xlink:href="#Arial-BoldMT-4e" transform="translate(355.566406 0)"/>
     <use xlink:href="#Arial-BoldMT-54" transform="translate(427.783203 0)"/>
     <use xlink:href="#Arial-BoldMT-20" transform="translate(488.867188 0)"/>
     <use xlink:href="#Arial-BoldMT-53" transform="translate(516.650391 0)"/>
     <use xlink:href="#Arial-BoldMT-54" transform="translate(583.349609 0)"/>
     <use xlink:href="#Arial-BoldMT-41" transform="translate(637.058594 0)"/>
     <use xlink:href="#Arial-BoldMT-54" transform="translate(701.900391 0)"/>
     <use xlink:href="#Arial-BoldMT-45" transform="translate(762.984375 0)"/>
    </g>
    <!-- (2026) -->
    <g style="fill: #ffffff" transform="translate(118.627356 94.595812) scale(0.12 -0.12)">
     <defs>
      <path id="Arial-BoldMT-28" d="M 1916 -1347 
L 1313 -1347 
Q 834 -625 584 153 
Q 334 931 334 1659 
Q 334 2563 644 3369 
Q 913 4069 1325 4659 
L 1925 4659 
Q 1497 3713 1336 3048 
Q 1175 2384 1175 1641 
Q 1175 1128 1270 590 
Q 1366 53 1531 -431 
Q 1641 -750 1916 -1347 
z
" transform="scale(0.015625)"/>
      <path id="Arial-BoldMT-32" d="M 3238 816 
L 3238 0 
L 159 0 
Q 209 463 459 877 
Q 709 1291 1447 1975 
Q 2041 2528 2175 2725 
Q 2356 2997 2356 3263 
Q 2356 3556 2198 3714 
Q 2041 3872 1763 3872 
Q 1488 3872 1325 3706 
Q 1163 3541 1138 3156 
L 263 3244 
Q 341 3969 753 4284 
Q 1166 4600 1784 4600 
Q 2463 4600 2850 4234 
Q 3238 3869 3238 3325 
Q 3238 3016 3127 2736 
Q 3016 2456 2775 2150 
Q 2616 1947 2200 1565 
Q 1784 1184 1673 1059 
Q 1563 934 1494 816 
L 3238 816 
z
" transform="scale(0.015625)"/>
      <path id="Arial-BoldMT-30" d="M 1756 4600 
Q 2422 4600 2797 4125 
Q 3244 3563 3244 2259 
Q 3244 959 2794 391 
Q 2422 -78 1756 -78 
Q 1088 -78 678 436 
Q 269 950 269 2269 
Q 269 3563 719 4131 
Q 1091 4600 1756 4600 
z
M 1756 3872 
Q 1597 3872 1472 3770 
Q 1347 3669 1278 3406 
Q 1188 3066 1188 2259 
Q 1188 1453 1269 1151 
Q 1350 850 1473 750 
Q 1597 650 1756 650 
Q 1916 650 2041 751 
Q 2166 853 2234 1116 
Q 2325 1453 2325 2259 
Q 2325 3066 2244 3367 
Q 2163 3669 2039 3770 
Q 1916 3872 1756 3872 
z
" transform="scale(0.015625)"/>
      <path id="Arial-BoldMT-36" d="M 3247 3459 
L 2397 3366 
Q 2366 3628 2234 3753 
Q 2103 3878 1894 3878 
Q 1616 3878 1423 3628 
Q 1231 3378 1181 2588 
Q 1509 2975 1997 2975 
Q 2547 2975 2939 2556 
Q 3331 2138 3331 1475 
Q 3331 772 2918 347 
Q 2506 -78 1859 -78 
Q 1166 -78 719 461 
Q 272 1000 272 2228 
Q 272 3488 737 4044 
Q 1203 4600 1947 4600 
Q 2469 4600 2811 4308 
Q 3153 4016 3247 3459 
z
M 1256 1544 
Q 1256 1116 1453 883 
Q 1650 650 1903 650 
Q 2147 650 2309 840 
Q 2472 1031 2472 1466 
Q 2472 1913 2297 2120 
Q 2122 2328 1859 2328 
Q 1606 2328 1431 2129 
Q 1256 1931 1256 1544 
z
" transform="scale(0.015625)"/>
      <path id="Arial-BoldMT-29" d="M 216 -1347 
Q 475 -791 581 -494 
Q 688 -197 778 190 
Q 869 578 912 926 
Q 956 1275 956 1641 
Q 956 2384 797 3048 
Q 638 3713 209 4659 
L 806 4659 
Q 1278 3988 1539 3234 
Q 1800 2481 1800 1706 
Q 1800 1053 1594 306 
Q 1359 -531 822 -1347 
L 216 -1347 
z
" transform="scale(0.015625)"/>
     </defs>
     <use xlink:href="#Arial-BoldMT-28"/>
     <use xlink:href="#Arial-BoldMT-32" transform="translate(33.300781 0)"/>
     <use xlink:href="#Arial-BoldMT-30" transform="translate(88.916016 0)"/>
     <use xlink:href="#Arial-BoldMT-32" transform="translate(144.53125 0)"/>
     <use xlink:href="#Arial-BoldMT-36" transform="translate(200.146484 0)"/>
     <use xlink:href="#Arial-BoldMT-29" transform="translate(255.761719 0)"/>
    </g>
   </g>
   <g id="text_2">
    <!-- • AI-Assisted Diagnosis -->
    <g transform="translate(66.433846 125.339719) scale(0.11 -0.11)">
     <defs>
      <path id="ArialMT-2022" d="M 341 2244 
Q 341 2572 573 2803 
Q 806 3034 1131 3034 
Q 1459 3034 1692 2803 
Q 1925 2572 1925 2244 
Q 1925 1916 1692 1683 
Q 1459 1450 1131 1450 
Q 806 1450 573 1683 
Q 341 1916 341 2244 
z
" transform="scale(0.015625)"/>
      <path id="ArialMT-20" transform="scale(0.015625)"/>
      <path id="ArialMT-41" d="M -9 0 
L 1750 4581 
L 2403 4581 
L 4278 0 
L 3588 0 
L 3053 1388 
L 1138 1388 
L 634 0 
L -9 0 
z
M 1313 1881 
L 2866 1881 
L 2388 3150 
Q 2169 3728 2063 4100 
Q 1975 3659 1816 3225 
L 1313 1881 
z
" transform="scale(0.015625)"/>
      <path id="ArialMT-49" d="M 597 0 
L 597 4581 
L 1203 4581 
L 1203 0 
L 597 0 
z
" transform="scale(0.015625)"/>
      <path id="ArialMT-2d" d="M 203 1375 
L 203 1941 
L 1931 1941 
L 1931 1375 
L 203 1375 
z
" transform="scale(0.015625)"/>
      <path id="ArialMT-73" d="M 197 991 
L 753 1078 
Q 800 744 1014 566 
Q 1228 388 1613 388 
Q 2000 388 2187 545 
Q 2375 703 2375 916 
Q 2375 1106 2209 1216 
Q 2094 1291 1634 1406 
Q 1016 1563 777 1677 
Q 538 1791 414 1992 
Q 291 2194 291 2438 
Q 291 2659 392 2848 
Q 494 3038 669 3163 
Q 800 3259 1026 3326 
Q 1253 3394 1513 3394 
Q 1903 3394 2198 3281 
Q 2494 3169 2634 2976 
Q 2775 2784 2828 2463 
L 2278 2388 
Q 2241 2644 2061 2787 
Q 1881 2931 1553 2931 
Q 1166 2931 1000 2803 
Q 834 2675 834 2503 
Q 834 2394 903 2306 
Q 972 2216 1119 2156 
Q 1203 2125 1616 2013 
Q 2213 1853 2448 1751 
Q 2684 1650 2818 1456 
Q 2953 1263 2953 975 
Q 2953 694 2789 445 
Q 2625 197 2315 61 
Q 2006 -75 1616 -75 
Q 969 -75 630 194 
Q 291 463 197 991 
z
" transform="scale(0.015625)"/>
      <path id="ArialMT-69" d="M 425 3934 
L 425 4581 
L 988 4581 
L 988 3934 
L 425 3934 
z
M 425 0 
L 425 3319 
L 988 3319 
L 988 0 
L 425 0 
z
" transform="scale(0.015625)"/>
      <path id="ArialMT-74" d="M 1650 503 
L 1731 6 
Q 1494 -44 1306 -44 
Q 1000 -44 831 53 
Q 663 150 594 308 
Q 525 466 525 972 
L 525 2881 
L 113 2881 
L 113 3319 
L 525 3319 
L 525 4141 
L 1084 4478 
L 1084 3319 
L 1650 3319 
L 1650 2881 
L 1084 2881 
L 1084 941 
Q 1084 700 1114 631 
Q 1144 563 1211 522 
Q 1278 481 1403 481 
Q 1497 481 1650 503 
z
" transform="scale(0.015625)"/>
      <path id="ArialMT-65" d="M 2694 1069 
L 3275 997 
Q 3138 488 2766 206 
Q 2394 -75 1816 -75 
Q 1088 -75 661 373 
Q 234 822 234 1631 
Q 234 2469 665 2931 
Q 1097 3394 1784 3394 
Q 2450 3394 2872 2941 
Q 3294 2488 3294 1666 
Q 3294 1616 3291 1516 
L 816 1516 
Q 847 969 1125 678 
Q 1403 388 1819 388 
Q 2128 388 2347 550 
Q 2566 713 2694 1069 
z
M 847 1978 
L 2700 1978 
Q 2663 2397 2488 2606 
Q 2219 2931 1791 2931 
Q 1403 2931 1139 2672 
Q 875 2413 847 1978 
z
" transform="scale(0.015625)"/>
      <path id="ArialMT-64" d="M 2575 0 
L 2575 419 
Q 2259 -75 1647 -75 
Q 1250 -75 917 144 
Q 584 363 401 755 
Q 219 1147 219 1656 
Q 219 2153 384 2558 
Q 550 2963 881 3178 
Q 1213 3394 1622 3394 
Q 1922 3394 2156 3267 
Q 2391 3141 2538 2938 
L 2538 4581 
L 3097 4581 
L 3097 0 
L 2575 0 
z
M 797 1656 
Q 797 1019 1065 703 
Q 1334 388 1700 388 
Q 2069 388 2326 689 
Q 2584 991 2584 1609 
Q 2584 2291 2321 2609 
Q 2059 2928 1675 2928 
Q 1300 2928 1048 2622 
Q 797 2316 797 1656 
z
" transform="scale(0.015625)"/>
      <path id="ArialMT-44" d="M 494 0 
L 494 4581 
L 2072 4581 
Q 2606 4581 2888 4516 
Q 3281 4425 3559 4188 
Q 3922 3881 4101 3404 
Q 4281 2928 4281 2316 
Q 4281 1794 4159 1391 
Q 4038 988 3847 723 
Q 3656 459 3429 307 
Q 3203 156 2883 78 
Q 2563 0 2147 0 
L 494 0 
z
M 1100 541 
L 2078 541 
Q 2531 541 2789 625 
Q 3047 709 3200 863 
Q 3416 1078 3536 1442 
Q 3656 1806 3656 2325 
Q 3656 3044 3420 3430 
Q 3184 3816 2847 3947 
Q 2603 4041 2063 4041 
L 1100 4041 
L 1100 541 
z
" transform="scale(0.015625)"/>
      <path id="ArialMT-61" d="M 2588 409 
Q 2275 144 1986 34 
Q 1697 -75 1366 -75 
Q 819 -75 525 192 
Q 231 459 231 875 
Q 231 1119 342 1320 
Q 453 1522 633 1644 
Q 813 1766 1038 1828 
Q 1203 1872 1538 1913 
Q 2219 1994 2541 2106 
Q 2544 2222 2544 2253 
Q 2544 2597 2384 2738 
Q 2169 2928 1744 2928 
Q 1347 2928 1158 2789 
Q 969 2650 878 2297 
L 328 2372 
Q 403 2725 575 2942 
Q 747 3159 1072 3276 
Q 1397 3394 1825 3394 
Q 2250 3394 2515 3294 
Q 2781 3194 2906 3042 
Q 3031 2891 3081 2659 
Q 3109 2516 3109 2141 
L 3109 1391 
Q 3109 606 3145 398 
Q 3181 191 3288 0 
L 2700 0 
Q 2613 175 2588 409 
z
M 2541 1666 
Q 2234 1541 1622 1453 
Q 1275 1403 1131 1340 
Q 988 1278 909 1158 
Q 831 1038 831 891 
Q 831 666 1001 516 
Q 1172 366 1500 366 
Q 1825 366 2078 508 
Q 2331 650 2450 897 
Q 2541 1088 2541 1459 
L 2541 1666 
z
" transform="scale(0.015625)"/>
      <path id="ArialMT-67" d="M 319 -275 
L 866 -356 
Q 900 -609 1056 -725 
Q 1266 -881 1628 -881 
Q 2019 -881 2231 -725 
Q 2444 -569 2519 -288 
Q 2563 -116 2559 434 
Q 2191 0 1641 0 
Q 956 0 581 494 
Q 206 988 206 1678 
Q 206 2153 378 2554 
Q 550 2956 876 3175 
Q 1203 3394 1644 3394 
Q 2231 3394 2613 2919 
L 2613 3319 
L 3131 3319 
L 3131 450 
Q 3131 -325 2973 -648 
Q 2816 -972 2473 -1159 
Q 2131 -1347 1631 -1347 
Q 1038 -1347 672 -1080 
Q 306 -813 319 -275 
z
M 784 1719 
Q 784 1066 1043 766 
Q 1303 466 1694 466 
Q 2081 466 2343 764 
Q 2606 1063 2606 1700 
Q 2606 2309 2336 2618 
Q 2066 2928 1684 2928 
Q 1309 2928 1046 2623 
Q 784 2319 784 1719 
z
" transform="scale(0.015625)"/>
      <path id="ArialMT-6e" d="M 422 0 
L 422 3319 
L 928 3319 
L 928 2847 
Q 1294 3394 1984 3394 
Q 2284 3394 2536 3286 
Q 2788 3178 2913 3003 
Q 3038 2828 3088 2588 
Q 3119 2431 3119 2041 
L 3119 0 
L 2556 0 
L 2556 2019 
Q 2556 2363 2490 2533 
Q 2425 2703 2258 2804 
Q 2091 2906 1866 2906 
Q 1506 2906 1245 2678 
Q 984 2450 984 1813 
L 984 0 
L 422 0 
z
" transform="scale(0.015625)"/>
      <path id="ArialMT-6f" d="M 213 1659 
Q 213 2581 725 3025 
Q 1153 3394 1769 3394 
Q 2453 3394 2887 2945 
Q 3322 2497 3322 1706 
Q 3322 1066 3130 698 
Q 2938 331 2570 128 
Q 2203 -75 1769 -75 
Q 1072 -75 642 372 
Q 213 819 213 1659 
z
M 791 1659 
Q 791 1022 1069 705 
Q 1347 388 1769 388 
Q 2188 388 2466 706 
Q 2744 1025 2744 1678 
Q 2744 2294 2464 2611 
Q 2184 2928 1769 2928 
Q 1347 2928 1069 2612 
Q 791 2297 791 1659 
z
" transform="scale(0.015625)"/>
     </defs>
     <use xlink:href="#ArialMT-2022"/>
     <use xlink:href="#ArialMT-20" transform="translate(35.009766 0)"/>
     <use xlink:href="#ArialMT-41" transform="translate(57.292969 0)"/>
     <use xlink:href="#ArialMT-49" transform="translate(123.992188 0)"/>
     <use xlink:href="#ArialMT-2d" transform="translate(151.775391 0)"/>
     <use xlink:href="#ArialMT-41" transform="translate(185.076172 0)"/>
     <use xlink:href="#ArialMT-73" transform="translate(251.775391 0)"/>
     <use xlink:href="#ArialMT-73" transform="translate(301.775391 0)"/>
     <use xlink:href="#ArialMT-69" transform="translate(351.775391 0)"/>
     <use xlink:href="#ArialMT-73" transform="translate(373.992188 0)"/>
     <use xlink:href="#ArialMT-74" transform="translate(423.992188 0)"/>
     <use xlink:href="#ArialMT-65" transform="translate(451.775391 0)"/>
     <use xlink:href="#ArialMT-64" transform="translate(507.390625 0)"/>
     <use xlink:href="#ArialMT-20" transform="translate(563.005859 0)"/>
     <use xlink:href="#ArialMT-44" transform="translate(590.789062 0)"/>
     <use xlink:href="#ArialMT-69" transform="translate(663.005859 0)"/>
     <use xlink:href="#ArialMT-61" transform="translate(685.222656 0)"/>
     <use xlink:href="#ArialMT-67" transform="translate(740.837891 0)"/>
     <use xlink:href="#ArialMT-6e" transform="translate(796.453125 0)"/>
     <use xlink:href="#ArialMT-6f" transform="translate(852.068359 0)"/>
     <use xlink:href="#ArialMT-73" transform="translate(907.683594 0)"/>
     <use xlink:href="#ArialMT-69" transform="translate(957.683594 0)"/>
     <use xlink:href="#ArialMT-73" transform="translate(979.900391 0)"/>
    </g>
   </g>
   <g id="text_3">
    <!-- • Static Liquid Biopsy -->
    <g transform="translate(66.433846 158.67075) scale(0.11 -0.11)">
     <defs>
      <path id="ArialMT-53" d="M 288 1472 
L 859 1522 
Q 900 1178 1048 958 
Q 1197 738 1509 602 
Q 1822 466 2213 466 
Q 2559 466 2825 569 
Q 3091 672 3220 851 
Q 3350 1031 3350 1244 
Q 3350 1459 3225 1620 
Q 3100 1781 2813 1891 
Q 2628 1963 1997 2114 
Q 1366 2266 1113 2400 
Q 784 2572 623 2826 
Q 463 3081 463 3397 
Q 463 3744 659 4045 
Q 856 4347 1234 4503 
Q 1613 4659 2075 4659 
Q 2584 4659 2973 4495 
Q 3363 4331 3572 4012 
Q 3781 3694 3797 3291 
L 3216 3247 
Q 3169 3681 2898 3903 
Q 2628 4125 2100 4125 
Q 1550 4125 1298 3923 
Q 1047 3722 1047 3438 
Q 1047 3191 1225 3031 
Q 1400 2872 2139 2705 
Q 2878 2538 3153 2413 
Q 3553 2228 3743 1945 
Q 3934 1663 3934 1294 
Q 3934 928 3725 604 
Q 3516 281 3123 101 
Q 2731 -78 2241 -78 
Q 1619 -78 1198 103 
Q 778 284 539 648 
Q 300 1013 288 1472 
z
" transform="scale(0.015625)"/>
      <path id="ArialMT-63" d="M 2588 1216 
L 3141 1144 
Q 3050 572 2676 248 
Q 2303 -75 1759 -75 
Q 1078 -75 664 370 
Q 250 816 250 1647 
Q 250 2184 428 2587 
Q 606 2991 970 3192 
Q 1334 3394 1763 3394 
Q 2303 3394 2647 3120 
Q 2991 2847 3088 2344 
L 2541 2259 
Q 2463 2594 2264 2762 
Q 2066 2931 1784 2931 
Q 1359 2931 1093 2626 
Q 828 2322 828 1663 
Q 828 994 1084 691 
Q 1341 388 1753 388 
Q 2084 388 2306 591 
Q 2528 794 2588 1216 
z
" transform="scale(0.015625)"/>
      <path id="ArialMT-4c" d="M 469 0 
L 469 4581 
L 1075 4581 
L 1075 541 
L 3331 541 
L 3331 0 
L 469 0 
z
" transform="scale(0.015625)"/>
      <path id="ArialMT-71" d="M 2538 -1272 
L 2538 353 
Q 2406 169 2170 47 
Q 1934 -75 1669 -75 
Q 1078 -75 651 397 
Q 225 869 225 1691 
Q 225 2191 398 2587 
Q 572 2984 901 3189 
Q 1231 3394 1625 3394 
Q 2241 3394 2594 2875 
L 2594 3319 
L 3100 3319 
L 3100 -1272 
L 2538 -1272 
z
M 803 1669 
Q 803 1028 1072 708 
Q 1341 388 1716 388 
Q 2075 388 2334 692 
Q 2594 997 2594 1619 
Q 2594 2281 2320 2615 
Q 2047 2950 1678 2950 
Q 1313 2950 1058 2639 
Q 803 2328 803 1669 
z
" transform="scale(0.015625)"/>
      <path id="ArialMT-75" d="M 2597 0 
L 2597 488 
Q 2209 -75 1544 -75 
Q 1250 -75 995 37 
Q 741 150 617 320 
Q 494 491 444 738 
Q 409 903 409 1263 
L 409 3319 
L 972 3319 
L 972 1478 
Q 972 1038 1006 884 
Q 1059 663 1231 536 
Q 1403 409 1656 409 
Q 1909 409 2131 539 
Q 2353 669 2445 892 
Q 2538 1116 2538 1541 
L 2538 3319 
L 3100 3319 
L 3100 0 
L 2597 0 
z
" transform="scale(0.015625)"/>
      <path id="ArialMT-42" d="M 469 0 
L 469 4581 
L 2188 4581 
Q 2713 4581 3030 4442 
Q 3347 4303 3526 4014 
Q 3706 3725 3706 3409 
Q 3706 3116 3547 2856 
Q 3388 2597 3066 2438 
Q 3481 2316 3704 2022 
Q 3928 1728 3928 1328 
Q 3928 1006 3792 729 
Q 3656 453 3456 303 
Q 3256 153 2954 76 
Q 2653 0 2216 0 
L 469 0 
z
M 1075 2656 
L 2066 2656 
Q 2469 2656 2644 2709 
Q 2875 2778 2992 2937 
Q 3109 3097 3109 3338 
Q 3109 3566 3000 3739 
Q 2891 3913 2687 3977 
Q 2484 4041 1991 4041 
L 1075 4041 
L 1075 2656 
z
M 1075 541 
L 2216 541 
Q 2509 541 2628 563 
Q 2838 600 2978 687 
Q 3119 775 3209 942 
Q 3300 1109 3300 1328 
Q 3300 1584 3169 1773 
Q 3038 1963 2805 2039 
Q 2572 2116 2134 2116 
L 1075 2116 
L 1075 541 
z
" transform="scale(0.015625)"/>
      <path id="ArialMT-70" d="M 422 -1272 
L 422 3319 
L 934 3319 
L 934 2888 
Q 1116 3141 1344 3267 
Q 1572 3394 1897 3394 
Q 2322 3394 2647 3175 
Q 2972 2956 3137 2557 
Q 3303 2159 3303 1684 
Q 3303 1175 3120 767 
Q 2938 359 2589 142 
Q 2241 -75 1856 -75 
Q 1575 -75 1351 44 
Q 1128 163 984 344 
L 984 -1272 
L 422 -1272 
z
M 931 1641 
Q 931 1000 1190 694 
Q 1450 388 1819 388 
Q 2194 388 2461 705 
Q 2728 1022 2728 1688 
Q 2728 2322 2467 2637 
Q 2206 2953 1844 2953 
Q 1484 2953 1207 2617 
Q 931 2281 931 1641 
z
" transform="scale(0.015625)"/>
      <path id="ArialMT-79" d="M 397 -1278 
L 334 -750 
Q 519 -800 656 -800 
Q 844 -800 956 -737 
Q 1069 -675 1141 -563 
Q 1194 -478 1313 -144 
Q 1328 -97 1363 -6 
L 103 3319 
L 709 3319 
L 1400 1397 
Q 1534 1031 1641 628 
Q 1738 1016 1872 1384 
L 2581 3319 
L 3144 3319 
L 1881 -56 
Q 1678 -603 1566 -809 
Q 1416 -1088 1222 -1217 
Q 1028 -1347 759 -1347 
Q 597 -1347 397 -1278 
z
" transform="scale(0.015625)"/>
     </defs>
     <use xlink:href="#ArialMT-2022"/>
     <use xlink:href="#ArialMT-20" transform="translate(35.009766 0)"/>
     <use xlink:href="#ArialMT-53" transform="translate(62.792969 0)"/>
     <use xlink:href="#ArialMT-74" transform="translate(129.492188 0)"/>
     <use xlink:href="#ArialMT-61" transform="translate(157.275391 0)"/>
     <use xlink:href="#ArialMT-74" transform="translate(212.890625 0)"/>
     <use xlink:href="#ArialMT-69" transform="translate(240.673828 0)"/>
     <use xlink:href="#ArialMT-63" transform="translate(262.890625 0)"/>
     <use xlink:href="#ArialMT-20" transform="translate(312.890625 0)"/>
     <use xlink:href="#ArialMT-4c" transform="translate(340.673828 0)"/>
     <use xlink:href="#ArialMT-69" transform="translate(396.289062 0)"/>
     <use xlink:href="#ArialMT-71" transform="translate(418.505859 0)"/>
     <use xlink:href="#ArialMT-75" transform="translate(474.121094 0)"/>
     <use xlink:href="#ArialMT-69" transform="translate(529.736328 0)"/>
     <use xlink:href="#ArialMT-64" transform="translate(551.953125 0)"/>
     <use xlink:href="#ArialMT-20" transform="translate(607.568359 0)"/>
     <use xlink:href="#ArialMT-42" transform="translate(635.351562 0)"/>
     <use xlink:href="#ArialMT-69" transform="translate(702.050781 0)"/>
     <use xlink:href="#ArialMT-6f" transform="translate(724.267578 0)"/>
     <use xlink:href="#ArialMT-70" transform="translate(779.882812 0)"/>
     <use xlink:href="#ArialMT-73" transform="translate(835.498047 0)"/>
     <use xlink:href="#ArialMT-79" transform="translate(885.498047 0)"/>
    </g>
   </g>
   <g id="text_4">
    <!-- • ADCs -->
    <g transform="translate(66.433846 191.932172) scale(0.11 -0.11)">
     <defs>
      <path id="ArialMT-43" d="M 3763 1606 
L 4369 1453 
Q 4178 706 3683 314 
Q 3188 -78 2472 -78 
Q 1731 -78 1267 223 
Q 803 525 561 1097 
Q 319 1669 319 2325 
Q 319 3041 592 3573 
Q 866 4106 1370 4382 
Q 1875 4659 2481 4659 
Q 3169 4659 3637 4309 
Q 4106 3959 4291 3325 
L 3694 3184 
Q 3534 3684 3231 3912 
Q 2928 4141 2469 4141 
Q 1941 4141 1586 3887 
Q 1231 3634 1087 3207 
Q 944 2781 944 2328 
Q 944 1744 1114 1308 
Q 1284 872 1643 656 
Q 2003 441 2422 441 
Q 2931 441 3284 734 
Q 3638 1028 3763 1606 
z
" transform="scale(0.015625)"/>
     </defs>
     <use xlink:href="#ArialMT-2022"/>
     <use xlink:href="#ArialMT-20" transform="translate(35.009766 0)"/>
     <use xlink:href="#ArialMT-41" transform="translate(57.292969 0)"/>
     <use xlink:href="#ArialMT-44" transform="translate(123.992188 0)"/>
     <use xlink:href="#ArialMT-43" transform="translate(196.208984 0)"/>
     <use xlink:href="#ArialMT-73" transform="translate(268.425781 0)"/>
    </g>
   </g>
   <g id="text_5">
    <!-- • HER2-Low Targeting -->
    <g transform="translate(66.433846 225.148047) scale(0.11 -0.11)">
     <defs>
      <path id="ArialMT-48" d="M 513 0 
L 513 4581 
L 1119 4581 
L 1119 2700 
L 3500 2700 
L 3500 4581 
L 4106 4581 
L 4106 0 
L 3500 0 
L 3500 2159 
L 1119 2159 
L 1119 0 
L 513 0 
z
" transform="scale(0.015625)"/>
      <path id="ArialMT-45" d="M 506 0 
L 506 4581 
L 3819 4581 
L 3819 4041 
L 1113 4041 
L 1113 2638 
L 3647 2638 
L 3647 2100 
L 1113 2100 
L 1113 541 
L 3925 541 
L 3925 0 
L 506 0 
z
" transform="scale(0.015625)"/>
      <path id="ArialMT-52" d="M 503 0 
L 503 4581 
L 2534 4581 
Q 3147 4581 3465 4457 
Q 3784 4334 3975 4021 
Q 4166 3709 4166 3331 
Q 4166 2844 3850 2509 
Q 3534 2175 2875 2084 
Q 3116 1969 3241 1856 
Q 3506 1613 3744 1247 
L 4541 0 
L 3778 0 
L 3172 953 
Q 2906 1366 2734 1584 
Q 2563 1803 2427 1890 
Q 2291 1978 2150 2013 
Q 2047 2034 1813 2034 
L 1109 2034 
L 1109 0 
L 503 0 
z
M 1109 2559 
L 2413 2559 
Q 2828 2559 3062 2645 
Q 3297 2731 3419 2920 
Q 3541 3109 3541 3331 
Q 3541 3656 3305 3865 
Q 3069 4075 2559 4075 
L 1109 4075 
L 1109 2559 
z
" transform="scale(0.015625)"/>
      <path id="ArialMT-32" d="M 3222 541 
L 3222 0 
L 194 0 
Q 188 203 259 391 
Q 375 700 629 1000 
Q 884 1300 1366 1694 
Q 2113 2306 2375 2664 
Q 2638 3022 2638 3341 
Q 2638 3675 2398 3904 
Q 2159 4134 1775 4134 
Q 1369 4134 1125 3890 
Q 881 3647 878 3216 
L 300 3275 
Q 359 3922 746 4261 
Q 1134 4600 1788 4600 
Q 2447 4600 2831 4234 
Q 3216 3869 3216 3328 
Q 3216 3053 3103 2787 
Q 2991 2522 2730 2228 
Q 2469 1934 1863 1422 
Q 1356 997 1212 845 
Q 1069 694 975 541 
L 3222 541 
z
" transform="scale(0.015625)"/>
      <path id="ArialMT-77" d="M 1034 0 
L 19 3319 
L 600 3319 
L 1128 1403 
L 1325 691 
Q 1338 744 1497 1375 
L 2025 3319 
L 2603 3319 
L 3100 1394 
L 3266 759 
L 3456 1400 
L 4025 3319 
L 4572 3319 
L 3534 0 
L 2950 0 
L 2422 1988 
L 2294 2553 
L 1622 0 
L 1034 0 
z
" transform="scale(0.015625)"/>
      <path id="ArialMT-54" d="M 1659 0 
L 1659 4041 
L 150 4041 
L 150 4581 
L 3781 4581 
L 3781 4041 
L 2266 4041 
L 2266 0 
L 1659 0 
z
" transform="scale(0.015625)"/>
      <path id="ArialMT-72" d="M 416 0 
L 416 3319 
L 922 3319 
L 922 2816 
Q 1116 3169 1280 3281 
Q 1444 3394 1641 3394 
Q 1925 3394 2219 3213 
L 2025 2691 
Q 1819 2813 1613 2813 
Q 1428 2813 1281 2702 
Q 1134 2591 1072 2394 
Q 978 2094 978 1738 
L 978 0 
L 416 0 
z
" transform="scale(0.015625)"/>
     </defs>
     <use xlink:href="#ArialMT-2022"/>
     <use xlink:href="#ArialMT-20" transform="translate(35.009766 0)"/>
     <use xlink:href="#ArialMT-48" transform="translate(62.792969 0)"/>
     <use xlink:href="#ArialMT-45" transform="translate(135.009766 0)"/>
     <use xlink:href="#ArialMT-52" transform="translate(201.708984 0)"/>
     <use xlink:href="#ArialMT-32" transform="translate(273.925781 0)"/>
     <use xlink:href="#ArialMT-2d" transform="translate(329.541016 0)"/>
     <use xlink:href="#ArialMT-4c" transform="translate(362.841797 0)"/>
     <use xlink:href="#ArialMT-6f" transform="translate(418.457031 0)"/>
     <use xlink:href="#ArialMT-77" transform="translate(474.072266 0)"/>
     <use xlink:href="#ArialMT-20" transform="translate(546.289062 0)"/>
     <use xlink:href="#ArialMT-54" transform="translate(572.322266 0)"/>
     <use xlink:href="#ArialMT-61" transform="translate(622.28125 0)"/>
     <use xlink:href="#ArialMT-72" transform="translate(677.896484 0)"/>
     <use xlink:href="#ArialMT-67" transform="translate(711.197266 0)"/>
     <use xlink:href="#ArialMT-65" transform="translate(766.8125 0)"/>
     <use xlink:href="#ArialMT-74" transform="translate(822.427734 0)"/>
     <use xlink:href="#ArialMT-69" transform="translate(850.210938 0)"/>
     <use xlink:href="#ArialMT-6e" transform="translate(872.427734 0)"/>
     <use xlink:href="#ArialMT-67" transform="translate(928.042969 0)"/>
    </g>
   </g>
   <g id="patch_5">
    <path d="M 233.261049 174.5355 
Q 249.287729 174.5355 260.842272 174.5355 
" style="fill: none; stroke: #1f3a5f; stroke-width: 4; stroke-linecap: round"/>
    <path d="M 252.842272 170.5355 
L 260.842272 174.5355 
L 252.842272 178.5355 
z
" style="fill: #1f3a5f; stroke: #1f3a5f; stroke-width: 4; stroke-linecap: round"/>
   </g>
   <g id="text_6">
    <!-- EMERGING -->
    <g style="fill: #ffffff" transform="translate(322.207861 81.911437) scale(0.12 -0.12)">
     <defs>
      <path id="Arial-BoldMT-4d" d="M 453 0 
L 453 4581 
L 1838 4581 
L 2669 1456 
L 3491 4581 
L 4878 4581 
L 4878 0 
L 4019 0 
L 4019 3606 
L 3109 0 
L 2219 0 
L 1313 3606 
L 1313 0 
L 453 0 
z
" transform="scale(0.015625)"/>
      <path id="Arial-BoldMT-47" d="M 2597 1684 
L 2597 2456 
L 4591 2456 
L 4591 631 
Q 4300 350 3748 136 
Q 3197 -78 2631 -78 
Q 1913 -78 1378 223 
Q 844 525 575 1086 
Q 306 1647 306 2306 
Q 306 3022 606 3578 
Q 906 4134 1484 4431 
Q 1925 4659 2581 4659 
Q 3434 4659 3914 4301 
Q 4394 3944 4531 3313 
L 3613 3141 
Q 3516 3478 3248 3673 
Q 2981 3869 2581 3869 
Q 1975 3869 1617 3484 
Q 1259 3100 1259 2344 
Q 1259 1528 1621 1120 
Q 1984 713 2572 713 
Q 2863 713 3155 827 
Q 3447 941 3656 1103 
L 3656 1684 
L 2597 1684 
z
" transform="scale(0.015625)"/>
      <path id="Arial-BoldMT-49" d="M 438 0 
L 438 4581 
L 1363 4581 
L 1363 0 
L 438 0 
z
" transform="scale(0.015625)"/>
     </defs>
     <use xlink:href="#Arial-BoldMT-45"/>
     <use xlink:href="#Arial-BoldMT-4d" transform="translate(66.699219 0)"/>
     <use xlink:href="#Arial-BoldMT-45" transform="translate(150 0)"/>
     <use xlink:href="#Arial-BoldMT-52" transform="translate(216.699219 0)"/>
     <use xlink:href="#Arial-BoldMT-47" transform="translate(288.916016 0)"/>
     <use xlink:href="#Arial-BoldMT-49" transform="translate(366.699219 0)"/>
     <use xlink:href="#Arial-BoldMT-4e" transform="translate(394.482422 0)"/>
     <use xlink:href="#Arial-BoldMT-47" transform="translate(466.699219 0)"/>
    </g>
    <!-- INNOVATIONS -->
    <g style="fill: #ffffff" transform="translate(314.092861 94.586812) scale(0.12 -0.12)">
     <defs>
      <path id="Arial-BoldMT-4f" d="M 278 2263 
Q 278 2963 488 3438 
Q 644 3788 914 4066 
Q 1184 4344 1506 4478 
Q 1934 4659 2494 4659 
Q 3506 4659 4114 4031 
Q 4722 3403 4722 2284 
Q 4722 1175 4119 548 
Q 3516 -78 2506 -78 
Q 1484 -78 881 545 
Q 278 1169 278 2263 
z
M 1231 2294 
Q 1231 1516 1590 1114 
Q 1950 713 2503 713 
Q 3056 713 3411 1111 
Q 3766 1509 3766 2306 
Q 3766 3094 3420 3481 
Q 3075 3869 2503 3869 
Q 1931 3869 1581 3476 
Q 1231 3084 1231 2294 
z
" transform="scale(0.015625)"/>
      <path id="Arial-BoldMT-56" d="M 1634 0 
L -3 4581 
L 1000 4581 
L 2159 1191 
L 3281 4581 
L 4263 4581 
L 2622 0 
L 1634 0 
z
" transform="scale(0.015625)"/>
     </defs>
     <use xlink:href="#Arial-BoldMT-49"/>
     <use xlink:href="#Arial-BoldMT-4e" transform="translate(27.783203 0)"/>
     <use xlink:href="#Arial-BoldMT-4e" transform="translate(100 0)"/>
     <use xlink:href="#Arial-BoldMT-4f" transform="translate(172.216797 0)"/>
     <use xlink:href="#Arial-BoldMT-56" transform="translate(250 0)"/>
     <use xlink:href="#Arial-BoldMT-41" transform="translate(309.324219 0)"/>
     <use xlink:href="#Arial-BoldMT-54" transform="translate(374.166016 0)"/>
     <use xlink:href="#Arial-BoldMT-49" transform="translate(435.25 0)"/>
     <use xlink:href="#Arial-BoldMT-4f" transform="translate(463.033203 0)"/>
     <use xlink:href="#Arial-BoldMT-4e" transform="translate(540.816406 0)"/>
     <use xlink:href="#Arial-BoldMT-53" transform="translate(613.033203 0)"/>
    </g>
   </g>
   <g id="text_7">
    <!-- • Multiomics Integration -->
    <g transform="translate(285.341538 125.339719) scale(0.11 -0.11)">
     <defs>
      <path id="ArialMT-4d" d="M 475 0 
L 475 4581 
L 1388 4581 
L 2472 1338 
Q 2622 884 2691 659 
Q 2769 909 2934 1394 
L 4031 4581 
L 4847 4581 
L 4847 0 
L 4263 0 
L 4263 3834 
L 2931 0 
L 2384 0 
L 1059 3900 
L 1059 0 
L 475 0 
z
" transform="scale(0.015625)"/>
      <path id="ArialMT-6c" d="M 409 0 
L 409 4581 
L 972 4581 
L 972 0 
L 409 0 
z
" transform="scale(0.015625)"/>
      <path id="ArialMT-6d" d="M 422 0 
L 422 3319 
L 925 3319 
L 925 2853 
Q 1081 3097 1340 3245 
Q 1600 3394 1931 3394 
Q 2300 3394 2536 3241 
Q 2772 3088 2869 2813 
Q 3263 3394 3894 3394 
Q 4388 3394 4653 3120 
Q 4919 2847 4919 2278 
L 4919 0 
L 4359 0 
L 4359 2091 
Q 4359 2428 4304 2576 
Q 4250 2725 4106 2815 
Q 3963 2906 3769 2906 
Q 3419 2906 3187 2673 
Q 2956 2441 2956 1928 
L 2956 0 
L 2394 0 
L 2394 2156 
Q 2394 2531 2256 2718 
Q 2119 2906 1806 2906 
Q 1569 2906 1367 2781 
Q 1166 2656 1075 2415 
Q 984 2175 984 1722 
L 984 0 
L 422 0 
z
" transform="scale(0.015625)"/>
     </defs>
     <use xlink:href="#ArialMT-2022"/>
     <use xlink:href="#ArialMT-20" transform="translate(35.009766 0)"/>
     <use xlink:href="#ArialMT-4d" transform="translate(62.792969 0)"/>
     <use xlink:href="#ArialMT-75" transform="translate(146.09375 0)"/>
     <use xlink:href="#ArialMT-6c" transform="translate(201.708984 0)"/>
     <use xlink:href="#ArialMT-74" transform="translate(223.925781 0)"/>
     <use xlink:href="#ArialMT-69" transform="translate(251.708984 0)"/>
     <use xlink:href="#ArialMT-6f" transform="translate(273.925781 0)"/>
     <use xlink:href="#ArialMT-6d" transform="translate(329.541016 0)"/>
     <use xlink:href="#ArialMT-69" transform="translate(412.841797 0)"/>
     <use xlink:href="#ArialMT-63" transform="translate(435.058594 0)"/>
     <use xlink:href="#ArialMT-73" transform="translate(485.058594 0)"/>
     <use xlink:href="#ArialMT-20" transform="translate(535.058594 0)"/>
     <use xlink:href="#ArialMT-49" transform="translate(562.841797 0)"/>
     <use xlink:href="#ArialMT-6e" transform="translate(590.625 0)"/>
     <use xlink:href="#ArialMT-74" transform="translate(646.240234 0)"/>
     <use xlink:href="#ArialMT-65" transform="translate(674.023438 0)"/>
     <use xlink:href="#ArialMT-67" transform="translate(729.638672 0)"/>
     <use xlink:href="#ArialMT-72" transform="translate(785.253906 0)"/>
     <use xlink:href="#ArialMT-61" transform="translate(818.554688 0)"/>
     <use xlink:href="#ArialMT-74" transform="translate(874.169922 0)"/>
     <use xlink:href="#ArialMT-69" transform="translate(901.953125 0)"/>
     <use xlink:href="#ArialMT-6f" transform="translate(924.169922 0)"/>
     <use xlink:href="#ArialMT-6e" transform="translate(979.785156 0)"/>
    </g>
   </g>
   <g id="text_8">
    <!-- • Digital Twins -->
    <g transform="translate(285.341538 158.603719) scale(0.11 -0.11)">
     <use xlink:href="#ArialMT-2022"/>
     <use xlink:href="#ArialMT-20" transform="translate(35.009766 0)"/>
     <use xlink:href="#ArialMT-44" transform="translate(62.792969 0)"/>
     <use xlink:href="#ArialMT-69" transform="translate(135.009766 0)"/>
     <use xlink:href="#ArialMT-67" transform="translate(157.226562 0)"/>
     <use xlink:href="#ArialMT-69" transform="translate(212.841797 0)"/>
     <use xlink:href="#ArialMT-74" transform="translate(235.058594 0)"/>
     <use xlink:href="#ArialMT-61" transform="translate(262.841797 0)"/>
     <use xlink:href="#ArialMT-6c" transform="translate(318.457031 0)"/>
     <use xlink:href="#ArialMT-20" transform="translate(340.673828 0)"/>
     <use xlink:href="#ArialMT-54" transform="translate(366.707031 0)"/>
     <use xlink:href="#ArialMT-77" transform="translate(422.291016 0)"/>
     <use xlink:href="#ArialMT-69" transform="translate(494.507812 0)"/>
     <use xlink:href="#ArialMT-6e" transform="translate(516.724609 0)"/>
     <use xlink:href="#ArialMT-73" transform="translate(572.339844 0)"/>
    </g>
   </g>
   <g id="text_9">
    <!-- • Adaptive Clinical Trials -->
    <g transform="translate(285.341538 191.999203) scale(0.11 -0.11)">
     <defs>
      <path id="ArialMT-76" d="M 1344 0 
L 81 3319 
L 675 3319 
L 1388 1331 
Q 1503 1009 1600 663 
Q 1675 925 1809 1294 
L 2547 3319 
L 3125 3319 
L 1869 0 
L 1344 0 
z
" transform="scale(0.015625)"/>
     </defs>
     <use xlink:href="#ArialMT-2022"/>
     <use xlink:href="#ArialMT-20" transform="translate(35.009766 0)"/>
     <use xlink:href="#ArialMT-41" transform="translate(57.292969 0)"/>
     <use xlink:href="#ArialMT-64" transform="translate(123.992188 0)"/>
     <use xlink:href="#ArialMT-61" transform="translate(179.607422 0)"/>
     <use xlink:href="#ArialMT-70" transform="translate(235.222656 0)"/>
     <use xlink:href="#ArialMT-74" transform="translate(290.837891 0)"/>
     <use xlink:href="#ArialMT-69" transform="translate(318.621094 0)"/>
     <use xlink:href="#ArialMT-76" transform="translate(340.837891 0)"/>
     <use xlink:href="#ArialMT-65" transform="translate(390.837891 0)"/>
     <use xlink:href="#ArialMT-20" transform="translate(446.453125 0)"/>
     <use xlink:href="#ArialMT-43" transform="translate(474.236328 0)"/>
     <use xlink:href="#ArialMT-6c" transform="translate(546.453125 0)"/>
     <use xlink:href="#ArialMT-69" transform="translate(568.669922 0)"/>
     <use xlink:href="#ArialMT-6e" transform="translate(590.886719 0)"/>
     <use xlink:href="#ArialMT-69" transform="translate(646.501953 0)"/>
     <use xlink:href="#ArialMT-63" transform="translate(668.71875 0)"/>
     <use xlink:href="#ArialMT-61" transform="translate(718.71875 0)"/>
     <use xlink:href="#ArialMT-6c" transform="translate(774.333984 0)"/>
     <use xlink:href="#ArialMT-20" transform="translate(796.550781 0)"/>
     <use xlink:href="#ArialMT-54" transform="translate(822.583984 0)"/>
     <use xlink:href="#ArialMT-72" transform="translate(879.917969 0)"/>
     <use xlink:href="#ArialMT-69" transform="translate(913.21875 0)"/>
     <use xlink:href="#ArialMT-61" transform="translate(935.435547 0)"/>
     <use xlink:href="#ArialMT-6c" transform="translate(991.050781 0)"/>
     <use xlink:href="#ArialMT-73" transform="translate(1013.267578 0)"/>
    </g>
   </g>
   <g id="text_10">
    <!-- • Real-time ctDNA -->
    <g transform="translate(285.341538 225.196172) scale(0.11 -0.11)">
     <defs>
      <path id="ArialMT-4e" d="M 488 0 
L 488 4581 
L 1109 4581 
L 3516 984 
L 3516 4581 
L 4097 4581 
L 4097 0 
L 3475 0 
L 1069 3600 
L 1069 0 
L 488 0 
z
" transform="scale(0.015625)"/>
     </defs>
     <use xlink:href="#ArialMT-2022"/>
     <use xlink:href="#ArialMT-20" transform="translate(35.009766 0)"/>
     <use xlink:href="#ArialMT-52" transform="translate(62.792969 0)"/>
     <use xlink:href="#ArialMT-65" transform="translate(135.009766 0)"/>
     <use xlink:href="#ArialMT-61" transform="translate(190.625 0)"/>
     <use xlink:href="#ArialMT-6c" transform="translate(246.240234 0)"/>
     <use xlink:href="#ArialMT-2d" transform="translate(268.457031 0)"/>
     <use xlink:href="#ArialMT-74" transform="translate(301.757812 0)"/>
     <use xlink:href="#ArialMT-69" transform="translate(329.541016 0)"/>
     <use xlink:href="#ArialMT-6d" transform="translate(351.757812 0)"/>
     <use xlink:href="#ArialMT-65" transform="translate(435.058594 0)"/>
     <use xlink:href="#ArialMT-20" transform="translate(490.673828 0)"/>
     <use xlink:href="#ArialMT-63" transform="translate(518.457031 0)"/>
     <use xlink:href="#ArialMT-74" transform="translate(568.457031 0)"/>
     <use xlink:href="#ArialMT-44" transform="translate(596.240234 0)"/>
     <use xlink:href="#ArialMT-4e" transform="translate(668.457031 0)"/>
     <use xlink:href="#ArialMT-41" transform="translate(740.673828 0)"/>
    </g>
   </g>
   <g id="patch_6">
    <path d="M 452.168742 174.5355 
Q 468.195421 174.5355 479.749965 174.5355 
" style="fill: none; stroke: #1f3a5f; stroke-width: 4; stroke-linecap: round"/>
    <path d="M 471.749965 170.5355 
L 479.749965 174.5355 
L 471.749965 178.5355 
z
" style="fill: #1f3a5f; stroke: #1f3a5f; stroke-width: 4; stroke-linecap: round"/>
   </g>
   <g id="text_11">
    <!-- 2030 VISION -->
    <g style="fill: #ffffff" transform="translate(538.433365 81.744937) scale(0.12 -0.12)">
     <defs>
      <path id="Arial-BoldMT-33" d="M 241 1216 
L 1091 1319 
Q 1131 994 1309 822 
Q 1488 650 1741 650 
Q 2013 650 2198 856 
Q 2384 1063 2384 1413 
Q 2384 1744 2206 1937 
Q 2028 2131 1772 2131 
Q 1603 2131 1369 2066 
L 1466 2781 
Q 1822 2772 2009 2936 
Q 2197 3100 2197 3372 
Q 2197 3603 2059 3740 
Q 1922 3878 1694 3878 
Q 1469 3878 1309 3722 
Q 1150 3566 1116 3266 
L 306 3403 
Q 391 3819 561 4067 
Q 731 4316 1036 4458 
Q 1341 4600 1719 4600 
Q 2366 4600 2756 4188 
Q 3078 3850 3078 3425 
Q 3078 2822 2419 2463 
Q 2813 2378 3048 2084 
Q 3284 1791 3284 1375 
Q 3284 772 2843 347 
Q 2403 -78 1747 -78 
Q 1125 -78 715 280 
Q 306 638 241 1216 
z
" transform="scale(0.015625)"/>
     </defs>
     <use xlink:href="#Arial-BoldMT-32"/>
     <use xlink:href="#Arial-BoldMT-30" transform="translate(55.615234 0)"/>
     <use xlink:href="#Arial-BoldMT-33" transform="translate(111.230469 0)"/>
     <use xlink:href="#Arial-BoldMT-30" transform="translate(166.845703 0)"/>
     <use xlink:href="#Arial-BoldMT-20" transform="translate(222.460938 0)"/>
     <use xlink:href="#Arial-BoldMT-56" transform="translate(250.244141 0)"/>
     <use xlink:href="#Arial-BoldMT-49" transform="translate(316.943359 0)"/>
     <use xlink:href="#Arial-BoldMT-53" transform="translate(344.726562 0)"/>
     <use xlink:href="#Arial-BoldMT-49" transform="translate(411.425781 0)"/>
     <use xlink:href="#Arial-BoldMT-4f" transform="translate(439.208984 0)"/>
     <use xlink:href="#Arial-BoldMT-4e" transform="translate(516.992188 0)"/>
    </g>
    <!-- (FUTURE) -->
    <g style="fill: #ffffff" transform="translate(545.458053 94.595812) scale(0.12 -0.12)">
     <defs>
      <path id="Arial-BoldMT-46" d="M 472 0 
L 472 4581 
L 3613 4581 
L 3613 3806 
L 1397 3806 
L 1397 2722 
L 3309 2722 
L 3309 1947 
L 1397 1947 
L 1397 0 
L 472 0 
z
" transform="scale(0.015625)"/>
     </defs>
     <use xlink:href="#Arial-BoldMT-28"/>
     <use xlink:href="#Arial-BoldMT-46" transform="translate(33.300781 0)"/>
     <use xlink:href="#Arial-BoldMT-55" transform="translate(94.384766 0)"/>
     <use xlink:href="#Arial-BoldMT-54" transform="translate(166.601562 0)"/>
     <use xlink:href="#Arial-BoldMT-55" transform="translate(227.685547 0)"/>
     <use xlink:href="#Arial-BoldMT-52" transform="translate(299.902344 0)"/>
     <use xlink:href="#Arial-BoldMT-45" transform="translate(372.119141 0)"/>
     <use xlink:href="#Arial-BoldMT-29" transform="translate(438.818359 0)"/>
    </g>
   </g>
   <g id="text_12">
    <!-- • Fully Personalized Therapy -->
    <g style="fill: #ffffff" transform="translate(504.249231 125.339719) scale(0.11 -0.11)">
     <defs>
      <path id="ArialMT-46" d="M 525 0 
L 525 4581 
L 3616 4581 
L 3616 4041 
L 1131 4041 
L 1131 2622 
L 3281 2622 
L 3281 2081 
L 1131 2081 
L 1131 0 
L 525 0 
z
" transform="scale(0.015625)"/>
      <path id="ArialMT-50" d="M 494 0 
L 494 4581 
L 2222 4581 
Q 2678 4581 2919 4538 
Q 3256 4481 3484 4323 
Q 3713 4166 3852 3881 
Q 3991 3597 3991 3256 
Q 3991 2672 3619 2267 
Q 3247 1863 2275 1863 
L 1100 1863 
L 1100 0 
L 494 0 
z
M 1100 2403 
L 2284 2403 
Q 2872 2403 3119 2622 
Q 3366 2841 3366 3238 
Q 3366 3525 3220 3729 
Q 3075 3934 2838 4000 
Q 2684 4041 2272 4041 
L 1100 4041 
L 1100 2403 
z
" transform="scale(0.015625)"/>
      <path id="ArialMT-7a" d="M 125 0 
L 125 456 
L 2238 2881 
Q 1878 2863 1603 2863 
L 250 2863 
L 250 3319 
L 2963 3319 
L 2963 2947 
L 1166 841 
L 819 456 
Q 1197 484 1528 484 
L 3063 484 
L 3063 0 
L 125 0 
z
" transform="scale(0.015625)"/>
      <path id="ArialMT-68" d="M 422 0 
L 422 4581 
L 984 4581 
L 984 2938 
Q 1378 3394 1978 3394 
Q 2347 3394 2619 3248 
Q 2891 3103 3008 2847 
Q 3125 2591 3125 2103 
L 3125 0 
L 2563 0 
L 2563 2103 
Q 2563 2525 2380 2717 
Q 2197 2909 1863 2909 
Q 1613 2909 1392 2779 
Q 1172 2650 1078 2428 
Q 984 2206 984 1816 
L 984 0 
L 422 0 
z
" transform="scale(0.015625)"/>
     </defs>
     <use xlink:href="#ArialMT-2022"/>
     <use xlink:href="#ArialMT-20" transform="translate(35.009766 0)"/>
     <use xlink:href="#ArialMT-46" transform="translate(62.792969 0)"/>
     <use xlink:href="#ArialMT-75" transform="translate(123.876953 0)"/>
     <use xlink:href="#ArialMT-6c" transform="translate(179.492188 0)"/>
     <use xlink:href="#ArialMT-6c" transform="translate(201.708984 0)"/>
     <use xlink:href="#ArialMT-79" transform="translate(223.925781 0)"/>
     <use xlink:href="#ArialMT-20" transform="translate(273.925781 0)"/>
     <use xlink:href="#ArialMT-50" transform="translate(301.708984 0)"/>
     <use xlink:href="#ArialMT-65" transform="translate(368.408203 0)"/>
     <use xlink:href="#ArialMT-72" transform="translate(424.023438 0)"/>
     <use xlink:href="#ArialMT-73" transform="translate(457.324219 0)"/>
     <use xlink:href="#ArialMT-6f" transform="translate(507.324219 0)"/>
     <use xlink:href="#ArialMT-6e" transform="translate(562.939453 0)"/>
     <use xlink:href="#ArialMT-61" transform="translate(618.554688 0)"/>
     <use xlink:href="#ArialMT-6c" transform="translate(674.169922 0)"/>
     <use xlink:href="#ArialMT-69" transform="translate(696.386719 0)"/>
     <use xlink:href="#ArialMT-7a" transform="translate(718.603516 0)"/>
     <use xlink:href="#ArialMT-65" transform="translate(768.603516 0)"/>
     <use xlink:href="#ArialMT-64" transform="translate(824.21875 0)"/>
     <use xlink:href="#ArialMT-20" transform="translate(879.833984 0)"/>
     <use xlink:href="#ArialMT-54" transform="translate(905.867188 0)"/>
     <use xlink:href="#ArialMT-68" transform="translate(966.951172 0)"/>
     <use xlink:href="#ArialMT-65" transform="translate(1022.566406 0)"/>
     <use xlink:href="#ArialMT-72" transform="translate(1078.181641 0)"/>
     <use xlink:href="#ArialMT-61" transform="translate(1111.482422 0)"/>
     <use xlink:href="#ArialMT-70" transform="translate(1167.097656 0)"/>
     <use xlink:href="#ArialMT-79" transform="translate(1222.712891 0)"/>
    </g>
   </g>
   <g id="text_13">
    <!-- • Continuous Monitoring -->
    <g style="fill: #ffffff" transform="translate(504.249231 158.67075) scale(0.11 -0.11)">
     <use xlink:href="#ArialMT-2022"/>
     <use xlink:href="#ArialMT-20" transform="translate(35.009766 0)"/>
     <use xlink:href="#ArialMT-43" transform="translate(62.792969 0)"/>
     <use xlink:href="#ArialMT-6f" transform="translate(135.009766 0)"/>
     <use xlink:href="#ArialMT-6e" transform="translate(190.625 0)"/>
     <use xlink:href="#ArialMT-74" transform="translate(246.240234 0)"/>
     <use xlink:href="#ArialMT-69" transform="translate(274.023438 0)"/>
     <use xlink:href="#ArialMT-6e" transform="translate(296.240234 0)"/>
     <use xlink:href="#ArialMT-75" transform="translate(351.855469 0)"/>
     <use xlink:href="#ArialMT-6f" transform="translate(407.470703 0)"/>
     <use xlink:href="#ArialMT-75" transform="translate(463.085938 0)"/>
     <use xlink:href="#ArialMT-73" transform="translate(518.701172 0)"/>
     <use xlink:href="#ArialMT-20" transform="translate(568.701172 0)"/>
     <use xlink:href="#ArialMT-4d" transform="translate(596.484375 0)"/>
     <use xlink:href="#ArialMT-6f" transform="translate(679.785156 0)"/>
     <use xlink:href="#ArialMT-6e" transform="translate(735.400391 0)"/>
     <use xlink:href="#ArialMT-69" transform="translate(791.015625 0)"/>
     <use xlink:href="#ArialMT-74" transform="translate(813.232422 0)"/>
     <use xlink:href="#ArialMT-6f" transform="translate(841.015625 0)"/>
     <use xlink:href="#ArialMT-72" transform="translate(896.630859 0)"/>
     <use xlink:href="#ArialMT-69" transform="translate(929.931641 0)"/>
     <use xlink:href="#ArialMT-6e" transform="translate(952.148438 0)"/>
     <use xlink:href="#ArialMT-67" transform="translate(1007.763672 0)"/>
    </g>
   </g>
   <g id="text_14">
    <!-- • AI Decision Support -->
    <g style="fill: #ffffff" transform="translate(504.249231 191.999203) scale(0.11 -0.11)">
     <use xlink:href="#ArialMT-2022"/>
     <use xlink:href="#ArialMT-20" transform="translate(35.009766 0)"/>
     <use xlink:href="#ArialMT-41" transform="translate(57.292969 0)"/>
     <use xlink:href="#ArialMT-49" transform="translate(123.992188 0)"/>
     <use xlink:href="#ArialMT-20" transform="translate(151.775391 0)"/>
     <use xlink:href="#ArialMT-44" transform="translate(179.558594 0)"/>
     <use xlink:href="#ArialMT-65" transform="translate(251.775391 0)"/>
     <use xlink:href="#ArialMT-63" transform="translate(307.390625 0)"/>
     <use xlink:href="#ArialMT-69" transform="translate(357.390625 0)"/>
     <use xlink:href="#ArialMT-73" transform="translate(379.607422 0)"/>
     <use xlink:href="#ArialMT-69" transform="translate(429.607422 0)"/>
     <use xlink:href="#ArialMT-6f" transform="translate(451.824219 0)"/>
     <use xlink:href="#ArialMT-6e" transform="translate(507.439453 0)"/>
     <use xlink:href="#ArialMT-20" transform="translate(563.054688 0)"/>
     <use xlink:href="#ArialMT-53" transform="translate(590.837891 0)"/>
     <use xlink:href="#ArialMT-75" transform="translate(657.537109 0)"/>
     <use xlink:href="#ArialMT-70" transform="translate(713.152344 0)"/>
     <use xlink:href="#ArialMT-70" transform="translate(768.767578 0)"/>
     <use xlink:href="#ArialMT-6f" transform="translate(824.382812 0)"/>
     <use xlink:href="#ArialMT-72" transform="translate(879.998047 0)"/>
     <use xlink:href="#ArialMT-74" transform="translate(913.298828 0)"/>
    </g>
   </g>
   <g id="text_15">
    <!-- • Precision Survivorship -->
    <g style="fill: #ffffff" transform="translate(504.249231 225.263203) scale(0.11 -0.11)">
     <use xlink:href="#ArialMT-2022"/>
     <use xlink:href="#ArialMT-20" transform="translate(35.009766 0)"/>
     <use xlink:href="#ArialMT-50" transform="translate(62.792969 0)"/>
     <use xlink:href="#ArialMT-72" transform="translate(129.492188 0)"/>
     <use xlink:href="#ArialMT-65" transform="translate(162.792969 0)"/>
     <use xlink:href="#ArialMT-63" transform="translate(218.408203 0)"/>
     <use xlink:href="#ArialMT-69" transform="translate(268.408203 0)"/>
     <use xlink:href="#ArialMT-73" transform="translate(290.625 0)"/>
     <use xlink:href="#ArialMT-69" transform="translate(340.625 0)"/>
     <use xlink:href="#ArialMT-6f" transform="translate(362.841797 0)"/>
     <use xlink:href="#ArialMT-6e" transform="translate(418.457031 0)"/>
     <use xlink:href="#ArialMT-20" transform="translate(474.072266 0)"/>
     <use xlink:href="#ArialMT-53" transform="translate(501.855469 0)"/>
     <use xlink:href="#ArialMT-75" transform="translate(568.554688 0)"/>
     <use xlink:href="#ArialMT-72" transform="translate(624.169922 0)"/>
     <use xlink:href="#ArialMT-76" transform="translate(657.470703 0)"/>
     <use xlink:href="#ArialMT-69" transform="translate(707.470703 0)"/>
     <use xlink:href="#ArialMT-76" transform="translate(729.6875 0)"/>
     <use xlink:href="#ArialMT-6f" transform="translate(779.6875 0)"/>
     <use xlink:href="#ArialMT-72" transform="translate(835.302734 0)"/>
     <use xlink:href="#ArialMT-73" transform="translate(868.603516 0)"/>
     <use xlink:href="#ArialMT-68" transform="translate(918.603516 0)"/>
     <use xlink:href="#ArialMT-69" transform="translate(974.21875 0)"/>
     <use xlink:href="#ArialMT-70" transform="translate(996.435547 0)"/>
    </g>
   </g>
   <g id="text_16">
    <!-- The Future Roadmap of Precision Oncology to 2030 -->
    <g style="fill: #1f3a5f" transform="translate(145.0925 18.8475) scale(0.16 -0.16)">
     <defs>
      <path id="Arial-BoldMT-68" d="M 1334 4581 
L 1334 2897 
Q 1759 3394 2350 3394 
Q 2653 3394 2897 3281 
Q 3141 3169 3264 2994 
Q 3388 2819 3433 2606 
Q 3478 2394 3478 1947 
L 3478 0 
L 2600 0 
L 2600 1753 
Q 2600 2275 2550 2415 
Q 2500 2556 2373 2639 
Q 2247 2722 2056 2722 
Q 1838 2722 1666 2615 
Q 1494 2509 1414 2295 
Q 1334 2081 1334 1663 
L 1334 0 
L 456 0 
L 456 4581 
L 1334 4581 
z
" transform="scale(0.015625)"/>
      <path id="Arial-BoldMT-65" d="M 2381 1056 
L 3256 909 
Q 3088 428 2723 176 
Q 2359 -75 1813 -75 
Q 947 -75 531 491 
Q 203 944 203 1634 
Q 203 2459 634 2926 
Q 1066 3394 1725 3394 
Q 2466 3394 2894 2905 
Q 3322 2416 3303 1406 
L 1103 1406 
Q 1113 1016 1316 798 
Q 1519 581 1822 581 
Q 2028 581 2168 693 
Q 2309 806 2381 1056 
z
M 2431 1944 
Q 2422 2325 2234 2523 
Q 2047 2722 1778 2722 
Q 1491 2722 1303 2513 
Q 1116 2303 1119 1944 
L 2431 1944 
z
" transform="scale(0.015625)"/>
      <path id="Arial-BoldMT-75" d="M 2644 0 
L 2644 497 
Q 2463 231 2167 78 
Q 1872 -75 1544 -75 
Q 1209 -75 943 72 
Q 678 219 559 484 
Q 441 750 441 1219 
L 441 3319 
L 1319 3319 
L 1319 1794 
Q 1319 1094 1367 936 
Q 1416 778 1544 686 
Q 1672 594 1869 594 
Q 2094 594 2272 717 
Q 2450 841 2515 1023 
Q 2581 1206 2581 1919 
L 2581 3319 
L 3459 3319 
L 3459 0 
L 2644 0 
z
" transform="scale(0.015625)"/>
      <path id="Arial-BoldMT-74" d="M 1981 3319 
L 1981 2619 
L 1381 2619 
L 1381 1281 
Q 1381 875 1398 808 
Q 1416 741 1477 697 
Q 1538 653 1625 653 
Q 1747 653 1978 738 
L 2053 56 
Q 1747 -75 1359 -75 
Q 1122 -75 931 4 
Q 741 84 652 211 
Q 563 338 528 553 
Q 500 706 500 1172 
L 500 2619 
L 97 2619 
L 97 3319 
L 500 3319 
L 500 3978 
L 1381 4491 
L 1381 3319 
L 1981 3319 
z
" transform="scale(0.015625)"/>
      <path id="Arial-BoldMT-72" d="M 1300 0 
L 422 0 
L 422 3319 
L 1238 3319 
L 1238 2847 
Q 1447 3181 1614 3287 
Q 1781 3394 1994 3394 
Q 2294 3394 2572 3228 
L 2300 2463 
Q 2078 2606 1888 2606 
Q 1703 2606 1575 2504 
Q 1447 2403 1373 2137 
Q 1300 1872 1300 1025 
L 1300 0 
z
" transform="scale(0.015625)"/>
      <path id="Arial-BoldMT-6f" d="M 256 1706 
Q 256 2144 472 2553 
Q 688 2963 1083 3178 
Q 1478 3394 1966 3394 
Q 2719 3394 3200 2905 
Q 3681 2416 3681 1669 
Q 3681 916 3195 420 
Q 2709 -75 1972 -75 
Q 1516 -75 1102 131 
Q 688 338 472 736 
Q 256 1134 256 1706 
z
M 1156 1659 
Q 1156 1166 1390 903 
Q 1625 641 1969 641 
Q 2313 641 2545 903 
Q 2778 1166 2778 1666 
Q 2778 2153 2545 2415 
Q 2313 2678 1969 2678 
Q 1625 2678 1390 2415 
Q 1156 2153 1156 1659 
z
" transform="scale(0.015625)"/>
      <path id="Arial-BoldMT-61" d="M 1116 2306 
L 319 2450 
Q 453 2931 781 3162 
Q 1109 3394 1756 3394 
Q 2344 3394 2631 3255 
Q 2919 3116 3036 2902 
Q 3153 2688 3153 2116 
L 3144 1091 
Q 3144 653 3186 445 
Q 3228 238 3344 0 
L 2475 0 
Q 2441 88 2391 259 
Q 2369 338 2359 363 
Q 2134 144 1878 34 
Q 1622 -75 1331 -75 
Q 819 -75 523 203 
Q 228 481 228 906 
Q 228 1188 362 1408 
Q 497 1628 739 1745 
Q 981 1863 1438 1950 
Q 2053 2066 2291 2166 
L 2291 2253 
Q 2291 2506 2166 2614 
Q 2041 2722 1694 2722 
Q 1459 2722 1328 2630 
Q 1197 2538 1116 2306 
z
M 2291 1594 
Q 2122 1538 1756 1459 
Q 1391 1381 1278 1306 
Q 1106 1184 1106 997 
Q 1106 813 1243 678 
Q 1381 544 1594 544 
Q 1831 544 2047 700 
Q 2206 819 2256 991 
Q 2291 1103 2291 1419 
L 2291 1594 
z
" transform="scale(0.015625)"/>
      <path id="Arial-BoldMT-64" d="M 3503 0 
L 2688 0 
L 2688 488 
Q 2484 203 2207 64 
Q 1931 -75 1650 -75 
Q 1078 -75 670 386 
Q 263 847 263 1672 
Q 263 2516 659 2955 
Q 1056 3394 1663 3394 
Q 2219 3394 2625 2931 
L 2625 4581 
L 3503 4581 
L 3503 0 
z
M 1159 1731 
Q 1159 1200 1306 963 
Q 1519 619 1900 619 
Q 2203 619 2415 876 
Q 2628 1134 2628 1647 
Q 2628 2219 2422 2470 
Q 2216 2722 1894 2722 
Q 1581 2722 1370 2473 
Q 1159 2225 1159 1731 
z
" transform="scale(0.015625)"/>
      <path id="Arial-BoldMT-6d" d="M 394 3319 
L 1203 3319 
L 1203 2866 
Q 1638 3394 2238 3394 
Q 2556 3394 2790 3262 
Q 3025 3131 3175 2866 
Q 3394 3131 3647 3262 
Q 3900 3394 4188 3394 
Q 4553 3394 4806 3245 
Q 5059 3097 5184 2809 
Q 5275 2597 5275 2122 
L 5275 0 
L 4397 0 
L 4397 1897 
Q 4397 2391 4306 2534 
Q 4184 2722 3931 2722 
Q 3747 2722 3584 2609 
Q 3422 2497 3350 2280 
Q 3278 2063 3278 1594 
L 3278 0 
L 2400 0 
L 2400 1819 
Q 2400 2303 2353 2443 
Q 2306 2584 2207 2653 
Q 2109 2722 1941 2722 
Q 1738 2722 1575 2612 
Q 1413 2503 1342 2297 
Q 1272 2091 1272 1613 
L 1272 0 
L 394 0 
L 394 3319 
z
" transform="scale(0.015625)"/>
      <path id="Arial-BoldMT-70" d="M 434 3319 
L 1253 3319 
L 1253 2831 
Q 1413 3081 1684 3237 
Q 1956 3394 2288 3394 
Q 2866 3394 3269 2941 
Q 3672 2488 3672 1678 
Q 3672 847 3265 386 
Q 2859 -75 2281 -75 
Q 2006 -75 1782 34 
Q 1559 144 1313 409 
L 1313 -1263 
L 434 -1263 
L 434 3319 
z
M 1303 1716 
Q 1303 1156 1525 889 
Q 1747 622 2066 622 
Q 2372 622 2575 867 
Q 2778 1113 2778 1672 
Q 2778 2194 2568 2447 
Q 2359 2700 2050 2700 
Q 1728 2700 1515 2451 
Q 1303 2203 1303 1716 
z
" transform="scale(0.015625)"/>
      <path id="Arial-BoldMT-66" d="M 75 3319 
L 563 3319 
L 563 3569 
Q 563 3988 652 4194 
Q 741 4400 980 4529 
Q 1219 4659 1584 4659 
Q 1959 4659 2319 4547 
L 2200 3934 
Q 1991 3984 1797 3984 
Q 1606 3984 1523 3895 
Q 1441 3806 1441 3553 
L 1441 3319 
L 2097 3319 
L 2097 2628 
L 1441 2628 
L 1441 0 
L 563 0 
L 563 2628 
L 75 2628 
L 75 3319 
z
" transform="scale(0.015625)"/>
      <path id="Arial-BoldMT-50" d="M 466 0 
L 466 4581 
L 1950 4581 
Q 2794 4581 3050 4513 
Q 3444 4409 3709 4064 
Q 3975 3719 3975 3172 
Q 3975 2750 3822 2462 
Q 3669 2175 3433 2011 
Q 3197 1847 2953 1794 
Q 2622 1728 1994 1728 
L 1391 1728 
L 1391 0 
L 466 0 
z
M 1391 3806 
L 1391 2506 
L 1897 2506 
Q 2444 2506 2628 2578 
Q 2813 2650 2917 2803 
Q 3022 2956 3022 3159 
Q 3022 3409 2875 3571 
Q 2728 3734 2503 3775 
Q 2338 3806 1838 3806 
L 1391 3806 
z
" transform="scale(0.015625)"/>
      <path id="Arial-BoldMT-63" d="M 3353 2338 
L 2488 2181 
Q 2444 2441 2289 2572 
Q 2134 2703 1888 2703 
Q 1559 2703 1364 2476 
Q 1169 2250 1169 1719 
Q 1169 1128 1367 884 
Q 1566 641 1900 641 
Q 2150 641 2309 783 
Q 2469 925 2534 1272 
L 3397 1125 
Q 3263 531 2881 228 
Q 2500 -75 1859 -75 
Q 1131 -75 698 384 
Q 266 844 266 1656 
Q 266 2478 700 2936 
Q 1134 3394 1875 3394 
Q 2481 3394 2839 3133 
Q 3197 2872 3353 2338 
z
" transform="scale(0.015625)"/>
      <path id="Arial-BoldMT-69" d="M 459 3769 
L 459 4581 
L 1338 4581 
L 1338 3769 
L 459 3769 
z
M 459 0 
L 459 3319 
L 1338 3319 
L 1338 0 
L 459 0 
z
" transform="scale(0.015625)"/>
      <path id="Arial-BoldMT-73" d="M 150 947 
L 1031 1081 
Q 1088 825 1259 692 
Q 1431 559 1741 559 
Q 2081 559 2253 684 
Q 2369 772 2369 919 
Q 2369 1019 2306 1084 
Q 2241 1147 2013 1200 
Q 950 1434 666 1628 
Q 272 1897 272 2375 
Q 272 2806 612 3100 
Q 953 3394 1669 3394 
Q 2350 3394 2681 3172 
Q 3013 2950 3138 2516 
L 2309 2363 
Q 2256 2556 2107 2659 
Q 1959 2763 1684 2763 
Q 1338 2763 1188 2666 
Q 1088 2597 1088 2488 
Q 1088 2394 1175 2328 
Q 1294 2241 1995 2081 
Q 2697 1922 2975 1691 
Q 3250 1456 3250 1038 
Q 3250 581 2869 253 
Q 2488 -75 1741 -75 
Q 1063 -75 667 200 
Q 272 475 150 947 
z
" transform="scale(0.015625)"/>
      <path id="Arial-BoldMT-6e" d="M 3478 0 
L 2600 0 
L 2600 1694 
Q 2600 2231 2544 2389 
Q 2488 2547 2361 2634 
Q 2234 2722 2056 2722 
Q 1828 2722 1647 2597 
Q 1466 2472 1398 2265 
Q 1331 2059 1331 1503 
L 1331 0 
L 453 0 
L 453 3319 
L 1269 3319 
L 1269 2831 
Q 1703 3394 2363 3394 
Q 2653 3394 2893 3289 
Q 3134 3184 3257 3021 
Q 3381 2859 3429 2653 
Q 3478 2447 3478 2063 
L 3478 0 
z
" transform="scale(0.015625)"/>
      <path id="Arial-BoldMT-6c" d="M 459 0 
L 459 4581 
L 1338 4581 
L 1338 0 
L 459 0 
z
" transform="scale(0.015625)"/>
      <path id="Arial-BoldMT-67" d="M 378 -219 
L 1381 -341 
Q 1406 -516 1497 -581 
Q 1622 -675 1891 -675 
Q 2234 -675 2406 -572 
Q 2522 -503 2581 -350 
Q 2622 -241 2622 53 
L 2622 538 
Q 2228 0 1628 0 
Q 959 0 569 566 
Q 263 1013 263 1678 
Q 263 2513 664 2953 
Q 1066 3394 1663 3394 
Q 2278 3394 2678 2853 
L 2678 3319 
L 3500 3319 
L 3500 341 
Q 3500 -247 3403 -537 
Q 3306 -828 3131 -993 
Q 2956 -1159 2664 -1253 
Q 2372 -1347 1925 -1347 
Q 1081 -1347 728 -1058 
Q 375 -769 375 -325 
Q 375 -281 378 -219 
z
M 1163 1728 
Q 1163 1200 1367 954 
Q 1572 709 1872 709 
Q 2194 709 2416 961 
Q 2638 1213 2638 1706 
Q 2638 2222 2425 2472 
Q 2213 2722 1888 2722 
Q 1572 2722 1367 2476 
Q 1163 2231 1163 1728 
z
" transform="scale(0.015625)"/>
      <path id="Arial-BoldMT-79" d="M 44 3319 
L 978 3319 
L 1772 963 
L 2547 3319 
L 3456 3319 
L 2284 125 
L 2075 -453 
Q 1959 -744 1854 -897 
Q 1750 -1050 1614 -1145 
Q 1478 -1241 1279 -1294 
Q 1081 -1347 831 -1347 
Q 578 -1347 334 -1294 
L 256 -606 
Q 463 -647 628 -647 
Q 934 -647 1081 -467 
Q 1228 -288 1306 -9 
L 44 3319 
z
" transform="scale(0.015625)"/>
     </defs>
     <use xlink:href="#Arial-BoldMT-54"/>
     <use xlink:href="#Arial-BoldMT-68" transform="translate(61.083984 0)"/>
     <use xlink:href="#Arial-BoldMT-65" transform="translate(122.167969 0)"/>
     <use xlink:href="#Arial-BoldMT-20" transform="translate(177.783203 0)"/>
     <use xlink:href="#Arial-BoldMT-46" transform="translate(205.566406 0)"/>
     <use xlink:href="#Arial-BoldMT-75" transform="translate(266.650391 0)"/>
     <use xlink:href="#Arial-BoldMT-74" transform="translate(327.734375 0)"/>
     <use xlink:href="#Arial-BoldMT-75" transform="translate(361.035156 0)"/>
     <use xlink:href="#Arial-BoldMT-72" transform="translate(422.119141 0)"/>
     <use xlink:href="#Arial-BoldMT-65" transform="translate(461.035156 0)"/>
     <use xlink:href="#Arial-BoldMT-20" transform="translate(516.650391 0)"/>
     <use xlink:href="#Arial-BoldMT-52" transform="translate(544.433594 0)"/>
     <use xlink:href="#Arial-BoldMT-6f" transform="translate(616.650391 0)"/>
     <use xlink:href="#Arial-BoldMT-61" transform="translate(677.734375 0)"/>
     <use xlink:href="#Arial-BoldMT-64" transform="translate(733.349609 0)"/>
     <use xlink:href="#Arial-BoldMT-6d" transform="translate(794.433594 0)"/>
     <use xlink:href="#Arial-BoldMT-61" transform="translate(883.349609 0)"/>
     <use xlink:href="#Arial-BoldMT-70" transform="translate(938.964844 0)"/>
     <use xlink:href="#Arial-BoldMT-20" transform="translate(1000.048828 0)"/>
     <use xlink:href="#Arial-BoldMT-6f" transform="translate(1027.832031 0)"/>
     <use xlink:href="#Arial-BoldMT-66" transform="translate(1088.916016 0)"/>
     <use xlink:href="#Arial-BoldMT-20" transform="translate(1122.216797 0)"/>
     <use xlink:href="#Arial-BoldMT-50" transform="translate(1150 0)"/>
     <use xlink:href="#Arial-BoldMT-72" transform="translate(1216.699219 0)"/>
     <use xlink:href="#Arial-BoldMT-65" transform="translate(1255.615234 0)"/>
     <use xlink:href="#Arial-BoldMT-63" transform="translate(1311.230469 0)"/>
     <use xlink:href="#Arial-BoldMT-69" transform="translate(1366.845703 0)"/>
     <use xlink:href="#Arial-BoldMT-73" transform="translate(1394.628906 0)"/>
     <use xlink:href="#Arial-BoldMT-69" transform="translate(1450.244141 0)"/>
     <use xlink:href="#Arial-BoldMT-6f" transform="translate(1478.027344 0)"/>
     <use xlink:href="#Arial-BoldMT-6e" transform="translate(1539.111328 0)"/>
     <use xlink:href="#Arial-BoldMT-20" transform="translate(1600.195312 0)"/>
     <use xlink:href="#Arial-BoldMT-4f" transform="translate(1627.978516 0)"/>
     <use xlink:href="#Arial-BoldMT-6e" transform="translate(1705.761719 0)"/>
     <use xlink:href="#Arial-BoldMT-63" transform="translate(1766.845703 0)"/>
     <use xlink:href="#Arial-BoldMT-6f" transform="translate(1822.460938 0)"/>
     <use xlink:href="#Arial-BoldMT-6c" transform="translate(1883.544922 0)"/>
     <use xlink:href="#Arial-BoldMT-6f" transform="translate(1911.328125 0)"/>
     <use xlink:href="#Arial-BoldMT-67" transform="translate(1972.412109 0)"/>
     <use xlink:href="#Arial-BoldMT-79" transform="translate(2033.496094 0)"/>
     <use xlink:href="#Arial-BoldMT-20" transform="translate(2089.111328 0)"/>
     <use xlink:href="#Arial-BoldMT-74" transform="translate(2116.894531 0)"/>
     <use xlink:href="#Arial-BoldMT-6f" transform="translate(2150.195312 0)"/>
     <use xlink:href="#Arial-BoldMT-20" transform="translate(2211.279297 0)"/>
     <use xlink:href="#Arial-BoldMT-32" transform="translate(2239.0625 0)"/>
     <use xlink:href="#Arial-BoldMT-30" transform="translate(2294.677734 0)"/>
     <use xlink:href="#Arial-BoldMT-33" transform="translate(2350.292969 0)"/>
     <use xlink:href="#Arial-BoldMT-30" transform="translate(2405.908203 0)"/>
    </g>
   </g>
  </g>
 </g>
 <defs>
  <clipPath id="pd9155c34ce">
   <rect x="7.2" y="8.2155" width="669.6" height="332.64"/>
  </clipPath>
 </defs>
</svg>
