<?xml version="1.0" encoding="utf-8" standalone="no"?>
<!DOCTYPE svg PUBLIC "-//W3C//DTD SVG 1.1//EN"
  "http://www.w3.org/Graphics/SVG/1.1/DTD/svg11.dtd">
<svg xmlns:xlink="http://www.w3.org/1999/xlink" width="460.8pt" height="568.8pt" viewBox="0 0 460.8 568.8" xmlns="http://www.w3.org/2000/svg" version="1.1">
 <metadata>
  <rdf:RDF xmlns:dc="http://purl.org/dc/elements/1.1/" xmlns:cc="http://creativecommons.org/ns#" xmlns:rdf="http://www.w3.org/1999/02/22-rdf-syntax-ns#">
   <cc:Work>
    <dc:type rdf:resource="http://purl.org/dc/dcmitype/StillImage"/>
    <dc:date>2026-06-15T19:33:07.095724</dc:date>
    <dc:format>image/svg+xml</dc:format>
    <dc:creator>
     <cc:Agent>
      <dc:title>Matplotlib v3.10.3, https://matplotlib.org/</dc:title>
     </cc:Agent>
    </dc:creator>
   </cc:Work>
  </rdf:RDF>
 </metadata>
 <defs>
  <style type="text/css">*{stroke-linejoin: round; stroke-linecap: butt}</style>
 </defs>
 <g id="figure_1">
  <g id="patch_1">
   <path d="M 0 568.8 
L 460.8 568.8 
L 460.8 0 
L 0 0 
z
" style="fill: #ffffff"/>
  </g>
  <g id="axes_1">
   <g id="patch_2">
    <path d="M 230.4 378.79855 
Q 230.4 434.549972 230.4 481.357122 
" style="fill: none; stroke: #1f3a5f; stroke-width: 8; stroke-linecap: round"/>
    <path d="M 238.4 465.357122 
L 230.4 481.357122 
L 222.4 465.357122 
" style="fill: none; stroke: #1f3a5f; stroke-width: 8; stroke-linecap: round"/>
   </g>
   <g id="patch_3">
    <path d="M 141.12 111.15 
L 319.68 111.15 
L 364.32 180.45 
L 96.48 180.45 
z
" clip-path="url(#pf4a8eb9923)" style="fill: #f4a261; stroke: #ffffff; stroke-width: 2; stroke-linejoin: miter"/>
   </g>
   <g id="patch_4">
    <path d="M 96.48 203.55 
L 364.32 203.55 
L 408.96 272.85 
L 51.84 272.85 
z
" clip-path="url(#pf4a8eb9923)" style="fill: #e76f51; stroke: #ffffff; stroke-width: 2; stroke-linejoin: miter"/>
   </g>
   <g id="patch_5">
    <path d="M 51.84 295.95 
L 408.96 295.95 
L 453.6 365.25 
L 7.2 365.25 
z
" clip-path="url(#pf4a8eb9923)" style="fill: #8b0000; stroke: #ffffff; stroke-width: 2; stroke-linejoin: miter"/>
   </g>
   <g id="patch_6">
    <path d="M 96.48 547.74 
L 364.32 547.74 
Q 373.248 547.74 373.248 538.5 
L 373.248 469.2 
Q 373.248 459.96 364.32 459.96 
L 96.48 459.96 
Q 87.552 459.96 87.552 469.2 
L 87.552 538.5 
Q 87.552 547.74 96.48 547.74 
z
" clip-path="url(#pf4a8eb9923)" style="fill: #1f3a5f"/>
   </g>
   <g id="text_1">
    <!-- HEALTHCARE SYSTEM BARRIERS -->
    <g style="fill: #ffffff" transform="translate(138.520781 142.689234) scale(0.11 -0.11)">
     <defs>
      <path id="Arial-BoldMT-48" d="M 469 0 
L 469 4581 
L 1394 4581 
L 1394 2778 
L 3206 2778 
L 3206 4581 
L 4131 4581 
L 4131 0 
L 3206 0 
L 3206 2003 
L 1394 2003 
L 1394 0 
L 469 0 
z
" transform="scale(0.015625)"/>
      <path id="Arial-BoldMT-45" d="M 466 0 
L 466 4581 
L 3863 4581 
L 3863 3806 
L 1391 3806 
L 1391 2791 
L 3691 2791 
L 3691 2019 
L 1391 2019 
L 1391 772 
L 3950 772 
L 3950 0 
L 466 0 
z
" transform="scale(0.015625)"/>
      <path id="Arial-BoldMT-41" d="M 4597 0 
L 3591 0 
L 3191 1041 
L 1359 1041 
L 981 0 
L 0 0 
L 1784 4581 
L 2763 4581 
L 4597 0 
z
M 2894 1813 
L 2263 3513 
L 1644 1813 
L 2894 1813 
z
" transform="scale(0.015625)"/>
      <path id="Arial-BoldMT-4c" d="M 491 0 
L 491 4544 
L 1416 4544 
L 1416 772 
L 3716 772 
L 3716 0 
L 491 0 
z
" transform="scale(0.015625)"/>
      <path id="Arial-BoldMT-54" d="M 1497 0 
L 1497 3806 
L 138 3806 
L 138 4581 
L 3778 4581 
L 3778 3806 
L 2422 3806 
L 2422 0 
L 1497 0 
z
" transform="scale(0.015625)"/>
      <path id="Arial-BoldMT-43" d="M 3397 1684 
L 4294 1400 
Q 4088 650 3608 286 
Q 3128 -78 2391 -78 
Q 1478 -78 890 545 
Q 303 1169 303 2250 
Q 303 3394 893 4026 
Q 1484 4659 2447 4659 
Q 3288 4659 3813 4163 
Q 4125 3869 4281 3319 
L 3366 3100 
Q 3284 3456 3026 3662 
Q 2769 3869 2400 3869 
Q 1891 3869 1573 3503 
Q 1256 3138 1256 2319 
Q 1256 1450 1568 1081 
Q 1881 713 2381 713 
Q 2750 713 3015 947 
Q 3281 1181 3397 1684 
z
" transform="scale(0.015625)"/>
      <path id="Arial-BoldMT-52" d="M 469 0 
L 469 4581 
L 2416 4581 
Q 3150 4581 3483 4457 
Q 3816 4334 4016 4018 
Q 4216 3703 4216 3297 
Q 4216 2781 3912 2445 
Q 3609 2109 3006 2022 
Q 3306 1847 3501 1637 
Q 3697 1428 4028 894 
L 4588 0 
L 3481 0 
L 2813 997 
Q 2456 1531 2325 1670 
Q 2194 1809 2047 1861 
Q 1900 1913 1581 1913 
L 1394 1913 
L 1394 0 
L 469 0 
z
M 1394 2644 
L 2078 2644 
Q 2744 2644 2909 2700 
Q 3075 2756 3169 2893 
Q 3263 3031 3263 3238 
Q 3263 3469 3139 3611 
Q 3016 3753 2791 3791 
Q 2678 3806 2116 3806 
L 1394 3806 
L 1394 2644 
z
" transform="scale(0.015625)"/>
      <path id="Arial-BoldMT-20" transform="scale(0.015625)"/>
      <path id="Arial-BoldMT-53" d="M 231 1491 
L 1131 1578 
Q 1213 1125 1461 912 
Q 1709 700 2131 700 
Q 2578 700 2804 889 
Q 3031 1078 3031 1331 
Q 3031 1494 2936 1608 
Q 2841 1722 2603 1806 
Q 2441 1863 1863 2006 
Q 1119 2191 819 2459 
Q 397 2838 397 3381 
Q 397 3731 595 4036 
Q 794 4341 1167 4500 
Q 1541 4659 2069 4659 
Q 2931 4659 3367 4281 
Q 3803 3903 3825 3272 
L 2900 3231 
Q 2841 3584 2645 3739 
Q 2450 3894 2059 3894 
Q 1656 3894 1428 3728 
Q 1281 3622 1281 3444 
Q 1281 3281 1419 3166 
Q 1594 3019 2269 2859 
Q 2944 2700 3267 2529 
Q 3591 2359 3773 2064 
Q 3956 1769 3956 1334 
Q 3956 941 3737 597 
Q 3519 253 3119 86 
Q 2719 -81 2122 -81 
Q 1253 -81 787 320 
Q 322 722 231 1491 
z
" transform="scale(0.015625)"/>
      <path id="Arial-BoldMT-59" d="M 1669 0 
L 1669 1928 
L -9 4581 
L 1075 4581 
L 2153 2769 
L 3209 4581 
L 4275 4581 
L 2591 1922 
L 2591 0 
L 1669 0 
z
" transform="scale(0.015625)"/>
      <path id="Arial-BoldMT-4d" d="M 453 0 
L 453 4581 
L 1838 4581 
L 2669 1456 
L 3491 4581 
L 4878 4581 
L 4878 0 
L 4019 0 
L 4019 3606 
L 3109 0 
L 2219 0 
L 1313 3606 
L 1313 0 
L 453 0 
z
" transform="scale(0.015625)"/>
      <path id="Arial-BoldMT-42" d="M 469 4581 
L 2300 4581 
Q 2844 4581 3111 4536 
Q 3378 4491 3589 4347 
Q 3800 4203 3940 3964 
Q 4081 3725 4081 3428 
Q 4081 3106 3907 2837 
Q 3734 2569 3438 2434 
Q 3856 2313 4081 2019 
Q 4306 1725 4306 1328 
Q 4306 1016 4161 720 
Q 4016 425 3764 248 
Q 3513 72 3144 31 
Q 2913 6 2028 0 
L 469 0 
L 469 4581 
z
M 1394 3819 
L 1394 2759 
L 2000 2759 
Q 2541 2759 2672 2775 
Q 2909 2803 3045 2939 
Q 3181 3075 3181 3297 
Q 3181 3509 3064 3642 
Q 2947 3775 2716 3803 
Q 2578 3819 1925 3819 
L 1394 3819 
z
M 1394 1997 
L 1394 772 
L 2250 772 
Q 2750 772 2884 800 
Q 3091 838 3220 983 
Q 3350 1128 3350 1372 
Q 3350 1578 3250 1722 
Q 3150 1866 2961 1931 
Q 2772 1997 2141 1997 
L 1394 1997 
z
" transform="scale(0.015625)"/>
      <path id="Arial-BoldMT-49" d="M 438 0 
L 438 4581 
L 1363 4581 
L 1363 0 
L 438 0 
z
" transform="scale(0.015625)"/>
     </defs>
     <use xlink:href="#Arial-BoldMT-48"/>
     <use xlink:href="#Arial-BoldMT-45" transform="translate(72.216797 0)"/>
     <use xlink:href="#Arial-BoldMT-41" transform="translate(138.916016 0)"/>
     <use xlink:href="#Arial-BoldMT-4c" transform="translate(211.132812 0)"/>
     <use xlink:href="#Arial-BoldMT-54" transform="translate(264.841797 0)"/>
     <use xlink:href="#Arial-BoldMT-48" transform="translate(325.925781 0)"/>
     <use xlink:href="#Arial-BoldMT-43" transform="translate(398.142578 0)"/>
     <use xlink:href="#Arial-BoldMT-41" transform="translate(470.359375 0)"/>
     <use xlink:href="#Arial-BoldMT-52" transform="translate(542.576172 0)"/>
     <use xlink:href="#Arial-BoldMT-45" transform="translate(614.792969 0)"/>
     <use xlink:href="#Arial-BoldMT-20" transform="translate(681.492188 0)"/>
     <use xlink:href="#Arial-BoldMT-53" transform="translate(709.275391 0)"/>
     <use xlink:href="#Arial-BoldMT-59" transform="translate(775.974609 0)"/>
     <use xlink:href="#Arial-BoldMT-53" transform="translate(842.673828 0)"/>
     <use xlink:href="#Arial-BoldMT-54" transform="translate(909.373047 0)"/>
     <use xlink:href="#Arial-BoldMT-45" transform="translate(970.457031 0)"/>
     <use xlink:href="#Arial-BoldMT-4d" transform="translate(1037.15625 0)"/>
     <use xlink:href="#Arial-BoldMT-20" transform="translate(1120.457031 0)"/>
     <use xlink:href="#Arial-BoldMT-42" transform="translate(1148.240234 0)"/>
     <use xlink:href="#Arial-BoldMT-41" transform="translate(1220.457031 0)"/>
     <use xlink:href="#Arial-BoldMT-52" transform="translate(1292.673828 0)"/>
     <use xlink:href="#Arial-BoldMT-52" transform="translate(1364.890625 0)"/>
     <use xlink:href="#Arial-BoldMT-49" transform="translate(1437.107422 0)"/>
     <use xlink:href="#Arial-BoldMT-45" transform="translate(1464.890625 0)"/>
     <use xlink:href="#Arial-BoldMT-52" transform="translate(1531.589844 0)"/>
     <use xlink:href="#Arial-BoldMT-53" transform="translate(1603.806641 0)"/>
    </g>
    <!-- Lack of infrastructure, specialized workforce shortages -->
    <g style="fill: #ffffff" transform="translate(85.836797 154.469203) scale(0.11 -0.11)">
     <defs>
      <path id="Arial-BoldMT-61" d="M 1116 2306 
L 319 2450 
Q 453 2931 781 3162 
Q 1109 3394 1756 3394 
Q 2344 3394 2631 3255 
Q 2919 3116 3036 2902 
Q 3153 2688 3153 2116 
L 3144 1091 
Q 3144 653 3186 445 
Q 3228 238 3344 0 
L 2475 0 
Q 2441 88 2391 259 
Q 2369 338 2359 363 
Q 2134 144 1878 34 
Q 1622 -75 1331 -75 
Q 819 -75 523 203 
Q 228 481 228 906 
Q 228 1188 362 1408 
Q 497 1628 739 1745 
Q 981 1863 1438 1950 
Q 2053 2066 2291 2166 
L 2291 2253 
Q 2291 2506 2166 2614 
Q 2041 2722 1694 2722 
Q 1459 2722 1328 2630 
Q 1197 2538 1116 2306 
z
M 2291 1594 
Q 2122 1538 1756 1459 
Q 1391 1381 1278 1306 
Q 1106 1184 1106 997 
Q 1106 813 1243 678 
Q 1381 544 1594 544 
Q 1831 544 2047 700 
Q 2206 819 2256 991 
Q 2291 1103 2291 1419 
L 2291 1594 
z
" transform="scale(0.015625)"/>
      <path id="Arial-BoldMT-63" d="M 3353 2338 
L 2488 2181 
Q 2444 2441 2289 2572 
Q 2134 2703 1888 2703 
Q 1559 2703 1364 2476 
Q 1169 2250 1169 1719 
Q 1169 1128 1367 884 
Q 1566 641 1900 641 
Q 2150 641 2309 783 
Q 2469 925 2534 1272 
L 3397 1125 
Q 3263 531 2881 228 
Q 2500 -75 1859 -75 
Q 1131 -75 698 384 
Q 266 844 266 1656 
Q 266 2478 700 2936 
Q 1134 3394 1875 3394 
Q 2481 3394 2839 3133 
Q 3197 2872 3353 2338 
z
" transform="scale(0.015625)"/>
      <path id="Arial-BoldMT-6b" d="M 428 0 
L 428 4581 
L 1306 4581 
L 1306 2150 
L 2334 3319 
L 3416 3319 
L 2281 2106 
L 3497 0 
L 2550 0 
L 1716 1491 
L 1306 1063 
L 1306 0 
L 428 0 
z
" transform="scale(0.015625)"/>
      <path id="Arial-BoldMT-6f" d="M 256 1706 
Q 256 2144 472 2553 
Q 688 2963 1083 3178 
Q 1478 3394 1966 3394 
Q 2719 3394 3200 2905 
Q 3681 2416 3681 1669 
Q 3681 916 3195 420 
Q 2709 -75 1972 -75 
Q 1516 -75 1102 131 
Q 688 338 472 736 
Q 256 1134 256 1706 
z
M 1156 1659 
Q 1156 1166 1390 903 
Q 1625 641 1969 641 
Q 2313 641 2545 903 
Q 2778 1166 2778 1666 
Q 2778 2153 2545 2415 
Q 2313 2678 1969 2678 
Q 1625 2678 1390 2415 
Q 1156 2153 1156 1659 
z
" transform="scale(0.015625)"/>
      <path id="Arial-BoldMT-66" d="M 75 3319 
L 563 3319 
L 563 3569 
Q 563 3988 652 4194 
Q 741 4400 980 4529 
Q 1219 4659 1584 4659 
Q 1959 4659 2319 4547 
L 2200 3934 
Q 1991 3984 1797 3984 
Q 1606 3984 1523 3895 
Q 1441 3806 1441 3553 
L 1441 3319 
L 2097 3319 
L 2097 2628 
L 1441 2628 
L 1441 0 
L 563 0 
L 563 2628 
L 75 2628 
L 75 3319 
z
" transform="scale(0.015625)"/>
      <path id="Arial-BoldMT-69" d="M 459 3769 
L 459 4581 
L 1338 4581 
L 1338 3769 
L 459 3769 
z
M 459 0 
L 459 3319 
L 1338 3319 
L 1338 0 
L 459 0 
z
" transform="scale(0.015625)"/>
      <path id="Arial-BoldMT-6e" d="M 3478 0 
L 2600 0 
L 2600 1694 
Q 2600 2231 2544 2389 
Q 2488 2547 2361 2634 
Q 2234 2722 2056 2722 
Q 1828 2722 1647 2597 
Q 1466 2472 1398 2265 
Q 1331 2059 1331 1503 
L 1331 0 
L 453 0 
L 453 3319 
L 1269 3319 
L 1269 2831 
Q 1703 3394 2363 3394 
Q 2653 3394 2893 3289 
Q 3134 3184 3257 3021 
Q 3381 2859 3429 2653 
Q 3478 2447 3478 2063 
L 3478 0 
z
" transform="scale(0.015625)"/>
      <path id="Arial-BoldMT-72" d="M 1300 0 
L 422 0 
L 422 3319 
L 1238 3319 
L 1238 2847 
Q 1447 3181 1614 3287 
Q 1781 3394 1994 3394 
Q 2294 3394 2572 3228 
L 2300 2463 
Q 2078 2606 1888 2606 
Q 1703 2606 1575 2504 
Q 1447 2403 1373 2137 
Q 1300 1872 1300 1025 
L 1300 0 
z
" transform="scale(0.015625)"/>
      <path id="Arial-BoldMT-73" d="M 150 947 
L 1031 1081 
Q 1088 825 1259 692 
Q 1431 559 1741 559 
Q 2081 559 2253 684 
Q 2369 772 2369 919 
Q 2369 1019 2306 1084 
Q 2241 1147 2013 1200 
Q 950 1434 666 1628 
Q 272 1897 272 2375 
Q 272 2806 612 3100 
Q 953 3394 1669 3394 
Q 2350 3394 2681 3172 
Q 3013 2950 3138 2516 
L 2309 2363 
Q 2256 2556 2107 2659 
Q 1959 2763 1684 2763 
Q 1338 2763 1188 2666 
Q 1088 2597 1088 2488 
Q 1088 2394 1175 2328 
Q 1294 2241 1995 2081 
Q 2697 1922 2975 1691 
Q 3250 1456 3250 1038 
Q 3250 581 2869 253 
Q 2488 -75 1741 -75 
Q 1063 -75 667 200 
Q 272 475 150 947 
z
" transform="scale(0.015625)"/>
      <path id="Arial-BoldMT-74" d="M 1981 3319 
L 1981 2619 
L 1381 2619 
L 1381 1281 
Q 1381 875 1398 808 
Q 1416 741 1477 697 
Q 1538 653 1625 653 
Q 1747 653 1978 738 
L 2053 56 
Q 1747 -75 1359 -75 
Q 1122 -75 931 4 
Q 741 84 652 211 
Q 563 338 528 553 
Q 500 706 500 1172 
L 500 2619 
L 97 2619 
L 97 3319 
L 500 3319 
L 500 3978 
L 1381 4491 
L 1381 3319 
L 1981 3319 
z
" transform="scale(0.015625)"/>
      <path id="Arial-BoldMT-75" d="M 2644 0 
L 2644 497 
Q 2463 231 2167 78 
Q 1872 -75 1544 -75 
Q 1209 -75 943 72 
Q 678 219 559 484 
Q 441 750 441 1219 
L 441 3319 
L 1319 3319 
L 1319 1794 
Q 1319 1094 1367 936 
Q 1416 778 1544 686 
Q 1672 594 1869 594 
Q 2094 594 2272 717 
Q 2450 841 2515 1023 
Q 2581 1206 2581 1919 
L 2581 3319 
L 3459 3319 
L 3459 0 
L 2644 0 
z
" transform="scale(0.015625)"/>
      <path id="Arial-BoldMT-65" d="M 2381 1056 
L 3256 909 
Q 3088 428 2723 176 
Q 2359 -75 1813 -75 
Q 947 -75 531 491 
Q 203 944 203 1634 
Q 203 2459 634 2926 
Q 1066 3394 1725 3394 
Q 2466 3394 2894 2905 
Q 3322 2416 3303 1406 
L 1103 1406 
Q 1113 1016 1316 798 
Q 1519 581 1822 581 
Q 2028 581 2168 693 
Q 2309 806 2381 1056 
z
M 2431 1944 
Q 2422 2325 2234 2523 
Q 2047 2722 1778 2722 
Q 1491 2722 1303 2513 
Q 1116 2303 1119 1944 
L 2431 1944 
z
" transform="scale(0.015625)"/>
      <path id="Arial-BoldMT-2c" d="M 438 878 
L 1316 878 
L 1316 250 
Q 1316 -131 1250 -351 
Q 1184 -572 1001 -747 
Q 819 -922 538 -1022 
L 366 -659 
Q 631 -572 743 -419 
Q 856 -266 863 0 
L 438 0 
L 438 878 
z
" transform="scale(0.015625)"/>
      <path id="Arial-BoldMT-70" d="M 434 3319 
L 1253 3319 
L 1253 2831 
Q 1413 3081 1684 3237 
Q 1956 3394 2288 3394 
Q 2866 3394 3269 2941 
Q 3672 2488 3672 1678 
Q 3672 847 3265 386 
Q 2859 -75 2281 -75 
Q 2006 -75 1782 34 
Q 1559 144 1313 409 
L 1313 -1263 
L 434 -1263 
L 434 3319 
z
M 1303 1716 
Q 1303 1156 1525 889 
Q 1747 622 2066 622 
Q 2372 622 2575 867 
Q 2778 1113 2778 1672 
Q 2778 2194 2568 2447 
Q 2359 2700 2050 2700 
Q 1728 2700 1515 2451 
Q 1303 2203 1303 1716 
z
" transform="scale(0.015625)"/>
      <path id="Arial-BoldMT-6c" d="M 459 0 
L 459 4581 
L 1338 4581 
L 1338 0 
L 459 0 
z
" transform="scale(0.015625)"/>
      <path id="Arial-BoldMT-7a" d="M 106 0 
L 106 684 
L 1350 2113 
Q 1656 2463 1803 2609 
Q 1650 2600 1400 2597 
L 228 2591 
L 228 3319 
L 2972 3319 
L 2972 2697 
L 1703 1234 
L 1256 750 
Q 1622 772 1709 772 
L 3069 772 
L 3069 0 
L 106 0 
z
" transform="scale(0.015625)"/>
      <path id="Arial-BoldMT-64" d="M 3503 0 
L 2688 0 
L 2688 488 
Q 2484 203 2207 64 
Q 1931 -75 1650 -75 
Q 1078 -75 670 386 
Q 263 847 263 1672 
Q 263 2516 659 2955 
Q 1056 3394 1663 3394 
Q 2219 3394 2625 2931 
L 2625 4581 
L 3503 4581 
L 3503 0 
z
M 1159 1731 
Q 1159 1200 1306 963 
Q 1519 619 1900 619 
Q 2203 619 2415 876 
Q 2628 1134 2628 1647 
Q 2628 2219 2422 2470 
Q 2216 2722 1894 2722 
Q 1581 2722 1370 2473 
Q 1159 2225 1159 1731 
z
" transform="scale(0.015625)"/>
      <path id="Arial-BoldMT-77" d="M 1078 0 
L 28 3319 
L 881 3319 
L 1503 1144 
L 2075 3319 
L 2922 3319 
L 3475 1144 
L 4109 3319 
L 4975 3319 
L 3909 0 
L 3066 0 
L 2494 2134 
L 1931 0 
L 1078 0 
z
" transform="scale(0.015625)"/>
      <path id="Arial-BoldMT-68" d="M 1334 4581 
L 1334 2897 
Q 1759 3394 2350 3394 
Q 2653 3394 2897 3281 
Q 3141 3169 3264 2994 
Q 3388 2819 3433 2606 
Q 3478 2394 3478 1947 
L 3478 0 
L 2600 0 
L 2600 1753 
Q 2600 2275 2550 2415 
Q 2500 2556 2373 2639 
Q 2247 2722 2056 2722 
Q 1838 2722 1666 2615 
Q 1494 2509 1414 2295 
Q 1334 2081 1334 1663 
L 1334 0 
L 456 0 
L 456 4581 
L 1334 4581 
z
" transform="scale(0.015625)"/>
      <path id="Arial-BoldMT-67" d="M 378 -219 
L 1381 -341 
Q 1406 -516 1497 -581 
Q 1622 -675 1891 -675 
Q 2234 -675 2406 -572 
Q 2522 -503 2581 -350 
Q 2622 -241 2622 53 
L 2622 538 
Q 2228 0 1628 0 
Q 959 0 569 566 
Q 263 1013 263 1678 
Q 263 2513 664 2953 
Q 1066 3394 1663 3394 
Q 2278 3394 2678 2853 
L 2678 3319 
L 3500 3319 
L 3500 341 
Q 3500 -247 3403 -537 
Q 3306 -828 3131 -993 
Q 2956 -1159 2664 -1253 
Q 2372 -1347 1925 -1347 
Q 1081 -1347 728 -1058 
Q 375 -769 375 -325 
Q 375 -281 378 -219 
z
M 1163 1728 
Q 1163 1200 1367 954 
Q 1572 709 1872 709 
Q 2194 709 2416 961 
Q 2638 1213 2638 1706 
Q 2638 2222 2425 2472 
Q 2213 2722 1888 2722 
Q 1572 2722 1367 2476 
Q 1163 2231 1163 1728 
z
" transform="scale(0.015625)"/>
     </defs>
     <use xlink:href="#Arial-BoldMT-4c"/>
     <use xlink:href="#Arial-BoldMT-61" transform="translate(61.083984 0)"/>
     <use xlink:href="#Arial-BoldMT-63" transform="translate(116.699219 0)"/>
     <use xlink:href="#Arial-BoldMT-6b" transform="translate(172.314453 0)"/>
     <use xlink:href="#Arial-BoldMT-20" transform="translate(227.929688 0)"/>
     <use xlink:href="#Arial-BoldMT-6f" transform="translate(255.712891 0)"/>
     <use xlink:href="#Arial-BoldMT-66" transform="translate(316.796875 0)"/>
     <use xlink:href="#Arial-BoldMT-20" transform="translate(350.097656 0)"/>
     <use xlink:href="#Arial-BoldMT-69" transform="translate(377.880859 0)"/>
     <use xlink:href="#Arial-BoldMT-6e" transform="translate(405.664062 0)"/>
     <use xlink:href="#Arial-BoldMT-66" transform="translate(466.748047 0)"/>
     <use xlink:href="#Arial-BoldMT-72" transform="translate(500.048828 0)"/>
     <use xlink:href="#Arial-BoldMT-61" transform="translate(538.964844 0)"/>
     <use xlink:href="#Arial-BoldMT-73" transform="translate(594.580078 0)"/>
     <use xlink:href="#Arial-BoldMT-74" transform="translate(650.195312 0)"/>
     <use xlink:href="#Arial-BoldMT-72" transform="translate(683.496094 0)"/>
     <use xlink:href="#Arial-BoldMT-75" transform="translate(722.412109 0)"/>
     <use xlink:href="#Arial-BoldMT-63" transform="translate(783.496094 0)"/>
     <use xlink:href="#Arial-BoldMT-74" transform="translate(839.111328 0)"/>
     <use xlink:href="#Arial-BoldMT-75" transform="translate(872.412109 0)"/>
     <use xlink:href="#Arial-BoldMT-72" transform="translate(933.496094 0)"/>
     <use xlink:href="#Arial-BoldMT-65" transform="translate(972.412109 0)"/>
     <use xlink:href="#Arial-BoldMT-2c" transform="translate(1028.027344 0)"/>
     <use xlink:href="#Arial-BoldMT-20" transform="translate(1055.810547 0)"/>
     <use xlink:href="#Arial-BoldMT-73" transform="translate(1083.59375 0)"/>
     <use xlink:href="#Arial-BoldMT-70" transform="translate(1139.208984 0)"/>
     <use xlink:href="#Arial-BoldMT-65" transform="translate(1200.292969 0)"/>
     <use xlink:href="#Arial-BoldMT-63" transform="translate(1255.908203 0)"/>
     <use xlink:href="#Arial-BoldMT-69" transform="translate(1311.523438 0)"/>
     <use xlink:href="#Arial-BoldMT-61" transform="translate(1339.306641 0)"/>
     <use xlink:href="#Arial-BoldMT-6c" transform="translate(1394.921875 0)"/>
     <use xlink:href="#Arial-BoldMT-69" transform="translate(1422.705078 0)"/>
     <use xlink:href="#Arial-BoldMT-7a" transform="translate(1450.488281 0)"/>
     <use xlink:href="#Arial-BoldMT-65" transform="translate(1500.488281 0)"/>
     <use xlink:href="#Arial-BoldMT-64" transform="translate(1556.103516 0)"/>
     <use xlink:href="#Arial-BoldMT-20" transform="translate(1617.1875 0)"/>
     <use xlink:href="#Arial-BoldMT-77" transform="translate(1644.970703 0)"/>
     <use xlink:href="#Arial-BoldMT-6f" transform="translate(1722.753906 0)"/>
     <use xlink:href="#Arial-BoldMT-72" transform="translate(1783.837891 0)"/>
     <use xlink:href="#Arial-BoldMT-6b" transform="translate(1822.753906 0)"/>
     <use xlink:href="#Arial-BoldMT-66" transform="translate(1878.369141 0)"/>
     <use xlink:href="#Arial-BoldMT-6f" transform="translate(1911.669922 0)"/>
     <use xlink:href="#Arial-BoldMT-72" transform="translate(1972.753906 0)"/>
     <use xlink:href="#Arial-BoldMT-63" transform="translate(2011.669922 0)"/>
     <use xlink:href="#Arial-BoldMT-65" transform="translate(2067.285156 0)"/>
     <use xlink:href="#Arial-BoldMT-20" transform="translate(2122.900391 0)"/>
     <use xlink:href="#Arial-BoldMT-73" transform="translate(2150.683594 0)"/>
     <use xlink:href="#Arial-BoldMT-68" transform="translate(2206.298828 0)"/>
     <use xlink:href="#Arial-BoldMT-6f" transform="translate(2267.382812 0)"/>
     <use xlink:href="#Arial-BoldMT-72" transform="translate(2328.466797 0)"/>
     <use xlink:href="#Arial-BoldMT-74" transform="translate(2367.382812 0)"/>
     <use xlink:href="#Arial-BoldMT-61" transform="translate(2400.683594 0)"/>
     <use xlink:href="#Arial-BoldMT-67" transform="translate(2456.298828 0)"/>
     <use xlink:href="#Arial-BoldMT-65" transform="translate(2517.382812 0)"/>
     <use xlink:href="#Arial-BoldMT-73" transform="translate(2572.998047 0)"/>
    </g>
   </g>
   <g id="text_2">
    <!-- SOCIOECONOMIC BARRIERS -->
    <g style="fill: #ffffff" transform="translate(152.171953 235.089234) scale(0.11 -0.11)">
     <defs>
      <path id="Arial-BoldMT-4f" d="M 278 2263 
Q 278 2963 488 3438 
Q 644 3788 914 4066 
Q 1184 4344 1506 4478 
Q 1934 4659 2494 4659 
Q 3506 4659 4114 4031 
Q 4722 3403 4722 2284 
Q 4722 1175 4119 548 
Q 3516 -78 2506 -78 
Q 1484 -78 881 545 
Q 278 1169 278 2263 
z
M 1231 2294 
Q 1231 1516 1590 1114 
Q 1950 713 2503 713 
Q 3056 713 3411 1111 
Q 3766 1509 3766 2306 
Q 3766 3094 3420 3481 
Q 3075 3869 2503 3869 
Q 1931 3869 1581 3476 
Q 1231 3084 1231 2294 
z
" transform="scale(0.015625)"/>
      <path id="Arial-BoldMT-4e" d="M 475 0 
L 475 4581 
L 1375 4581 
L 3250 1522 
L 3250 4581 
L 4109 4581 
L 4109 0 
L 3181 0 
L 1334 2988 
L 1334 0 
L 475 0 
z
" transform="scale(0.015625)"/>
     </defs>
     <use xlink:href="#Arial-BoldMT-53"/>
     <use xlink:href="#Arial-BoldMT-4f" transform="translate(66.699219 0)"/>
     <use xlink:href="#Arial-BoldMT-43" transform="translate(144.482422 0)"/>
     <use xlink:href="#Arial-BoldMT-49" transform="translate(216.699219 0)"/>
     <use xlink:href="#Arial-BoldMT-4f" transform="translate(244.482422 0)"/>
     <use xlink:href="#Arial-BoldMT-45" transform="translate(322.265625 0)"/>
     <use xlink:href="#Arial-BoldMT-43" transform="translate(388.964844 0)"/>
     <use xlink:href="#Arial-BoldMT-4f" transform="translate(461.181641 0)"/>
     <use xlink:href="#Arial-BoldMT-4e" transform="translate(538.964844 0)"/>
     <use xlink:href="#Arial-BoldMT-4f" transform="translate(611.181641 0)"/>
     <use xlink:href="#Arial-BoldMT-4d" transform="translate(688.964844 0)"/>
     <use xlink:href="#Arial-BoldMT-49" transform="translate(772.265625 0)"/>
     <use xlink:href="#Arial-BoldMT-43" transform="translate(800.048828 0)"/>
     <use xlink:href="#Arial-BoldMT-20" transform="translate(872.265625 0)"/>
     <use xlink:href="#Arial-BoldMT-42" transform="translate(900.048828 0)"/>
     <use xlink:href="#Arial-BoldMT-41" transform="translate(972.265625 0)"/>
     <use xlink:href="#Arial-BoldMT-52" transform="translate(1044.482422 0)"/>
     <use xlink:href="#Arial-BoldMT-52" transform="translate(1116.699219 0)"/>
     <use xlink:href="#Arial-BoldMT-49" transform="translate(1188.916016 0)"/>
     <use xlink:href="#Arial-BoldMT-45" transform="translate(1216.699219 0)"/>
     <use xlink:href="#Arial-BoldMT-52" transform="translate(1283.398438 0)"/>
     <use xlink:href="#Arial-BoldMT-53" transform="translate(1355.615234 0)"/>
    </g>
    <!-- Financial toxicity, lack of insurance coverage -->
    <g style="fill: #ffffff" transform="translate(112.520391 246.869203) scale(0.11 -0.11)">
     <defs>
      <path id="Arial-BoldMT-46" d="M 472 0 
L 472 4581 
L 3613 4581 
L 3613 3806 
L 1397 3806 
L 1397 2722 
L 3309 2722 
L 3309 1947 
L 1397 1947 
L 1397 0 
L 472 0 
z
" transform="scale(0.015625)"/>
      <path id="Arial-BoldMT-78" d="M 38 0 
L 1234 1709 
L 88 3319 
L 1159 3319 
L 1747 2406 
L 2366 3319 
L 3397 3319 
L 2272 1747 
L 3500 0 
L 2422 0 
L 1747 1028 
L 1066 0 
L 38 0 
z
" transform="scale(0.015625)"/>
      <path id="Arial-BoldMT-79" d="M 44 3319 
L 978 3319 
L 1772 963 
L 2547 3319 
L 3456 3319 
L 2284 125 
L 2075 -453 
Q 1959 -744 1854 -897 
Q 1750 -1050 1614 -1145 
Q 1478 -1241 1279 -1294 
Q 1081 -1347 831 -1347 
Q 578 -1347 334 -1294 
L 256 -606 
Q 463 -647 628 -647 
Q 934 -647 1081 -467 
Q 1228 -288 1306 -9 
L 44 3319 
z
" transform="scale(0.015625)"/>
      <path id="Arial-BoldMT-76" d="M 1372 0 
L 34 3319 
L 956 3319 
L 1581 1625 
L 1763 1059 
Q 1834 1275 1853 1344 
Q 1897 1484 1947 1625 
L 2578 3319 
L 3481 3319 
L 2163 0 
L 1372 0 
z
" transform="scale(0.015625)"/>
     </defs>
     <use xlink:href="#Arial-BoldMT-46"/>
     <use xlink:href="#Arial-BoldMT-69" transform="translate(61.083984 0)"/>
     <use xlink:href="#Arial-BoldMT-6e" transform="translate(88.867188 0)"/>
     <use xlink:href="#Arial-BoldMT-61" transform="translate(149.951172 0)"/>
     <use xlink:href="#Arial-BoldMT-6e" transform="translate(205.566406 0)"/>
     <use xlink:href="#Arial-BoldMT-63" transform="translate(266.650391 0)"/>
     <use xlink:href="#Arial-BoldMT-69" transform="translate(322.265625 0)"/>
     <use xlink:href="#Arial-BoldMT-61" transform="translate(350.048828 0)"/>
     <use xlink:href="#Arial-BoldMT-6c" transform="translate(405.664062 0)"/>
     <use xlink:href="#Arial-BoldMT-20" transform="translate(433.447266 0)"/>
     <use xlink:href="#Arial-BoldMT-74" transform="translate(461.230469 0)"/>
     <use xlink:href="#Arial-BoldMT-6f" transform="translate(494.53125 0)"/>
     <use xlink:href="#Arial-BoldMT-78" transform="translate(555.615234 0)"/>
     <use xlink:href="#Arial-BoldMT-69" transform="translate(611.230469 0)"/>
     <use xlink:href="#Arial-BoldMT-63" transform="translate(639.013672 0)"/>
     <use xlink:href="#Arial-BoldMT-69" transform="translate(694.628906 0)"/>
     <use xlink:href="#Arial-BoldMT-74" transform="translate(722.412109 0)"/>
     <use xlink:href="#Arial-BoldMT-79" transform="translate(755.712891 0)"/>
     <use xlink:href="#Arial-BoldMT-2c" transform="translate(803.953125 0)"/>
     <use xlink:href="#Arial-BoldMT-20" transform="translate(831.736328 0)"/>
     <use xlink:href="#Arial-BoldMT-6c" transform="translate(859.519531 0)"/>
     <use xlink:href="#Arial-BoldMT-61" transform="translate(887.302734 0)"/>
     <use xlink:href="#Arial-BoldMT-63" transform="translate(942.917969 0)"/>
     <use xlink:href="#Arial-BoldMT-6b" transform="translate(998.533203 0)"/>
     <use xlink:href="#Arial-BoldMT-20" transform="translate(1054.148438 0)"/>
     <use xlink:href="#Arial-BoldMT-6f" transform="translate(1081.931641 0)"/>
     <use xlink:href="#Arial-BoldMT-66" transform="translate(1143.015625 0)"/>
     <use xlink:href="#Arial-BoldMT-20" transform="translate(1176.316406 0)"/>
     <use xlink:href="#Arial-BoldMT-69" transform="translate(1204.099609 0)"/>
     <use xlink:href="#Arial-BoldMT-6e" transform="translate(1231.882812 0)"/>
     <use xlink:href="#Arial-BoldMT-73" transform="translate(1292.966797 0)"/>
     <use xlink:href="#Arial-BoldMT-75" transform="translate(1348.582031 0)"/>
     <use xlink:href="#Arial-BoldMT-72" transform="translate(1409.666016 0)"/>
     <use xlink:href="#Arial-BoldMT-61" transform="translate(1448.582031 0)"/>
     <use xlink:href="#Arial-BoldMT-6e" transform="translate(1504.197266 0)"/>
     <use xlink:href="#Arial-BoldMT-63" transform="translate(1565.28125 0)"/>
     <use xlink:href="#Arial-BoldMT-65" transform="translate(1620.896484 0)"/>
     <use xlink:href="#Arial-BoldMT-20" transform="translate(1676.511719 0)"/>
     <use xlink:href="#Arial-BoldMT-63" transform="translate(1704.294922 0)"/>
     <use xlink:href="#Arial-BoldMT-6f" transform="translate(1759.910156 0)"/>
     <use xlink:href="#Arial-BoldMT-76" transform="translate(1820.994141 0)"/>
     <use xlink:href="#Arial-BoldMT-65" transform="translate(1876.609375 0)"/>
     <use xlink:href="#Arial-BoldMT-72" transform="translate(1932.224609 0)"/>
     <use xlink:href="#Arial-BoldMT-61" transform="translate(1971.140625 0)"/>
     <use xlink:href="#Arial-BoldMT-67" transform="translate(2026.755859 0)"/>
     <use xlink:href="#Arial-BoldMT-65" transform="translate(2087.839844 0)"/>
    </g>
   </g>
   <g id="text_3">
    <!-- PATIENT-LEVEL BARRIERS -->
    <g style="fill: #ffffff" transform="translate(158.272656 327.569672) scale(0.11 -0.11)">
     <defs>
      <path id="Arial-BoldMT-50" d="M 466 0 
L 466 4581 
L 1950 4581 
Q 2794 4581 3050 4513 
Q 3444 4409 3709 4064 
Q 3975 3719 3975 3172 
Q 3975 2750 3822 2462 
Q 3669 2175 3433 2011 
Q 3197 1847 2953 1794 
Q 2622 1728 1994 1728 
L 1391 1728 
L 1391 0 
L 466 0 
z
M 1391 3806 
L 1391 2506 
L 1897 2506 
Q 2444 2506 2628 2578 
Q 2813 2650 2917 2803 
Q 3022 2956 3022 3159 
Q 3022 3409 2875 3571 
Q 2728 3734 2503 3775 
Q 2338 3806 1838 3806 
L 1391 3806 
z
" transform="scale(0.015625)"/>
      <path id="Arial-BoldMT-2d" d="M 359 1222 
L 359 2100 
L 2084 2100 
L 2084 1222 
L 359 1222 
z
" transform="scale(0.015625)"/>
      <path id="Arial-BoldMT-56" d="M 1634 0 
L -3 4581 
L 1000 4581 
L 2159 1191 
L 3281 4581 
L 4263 4581 
L 2622 0 
L 1634 0 
z
" transform="scale(0.015625)"/>
     </defs>
     <use xlink:href="#Arial-BoldMT-50"/>
     <use xlink:href="#Arial-BoldMT-41" transform="translate(59.324219 0)"/>
     <use xlink:href="#Arial-BoldMT-54" transform="translate(124.166016 0)"/>
     <use xlink:href="#Arial-BoldMT-49" transform="translate(185.25 0)"/>
     <use xlink:href="#Arial-BoldMT-45" transform="translate(213.033203 0)"/>
     <use xlink:href="#Arial-BoldMT-4e" transform="translate(279.732422 0)"/>
     <use xlink:href="#Arial-BoldMT-54" transform="translate(351.949219 0)"/>
     <use xlink:href="#Arial-BoldMT-2d" transform="translate(407.533203 0)"/>
     <use xlink:href="#Arial-BoldMT-4c" transform="translate(440.833984 0)"/>
     <use xlink:href="#Arial-BoldMT-45" transform="translate(501.917969 0)"/>
     <use xlink:href="#Arial-BoldMT-56" transform="translate(568.617188 0)"/>
     <use xlink:href="#Arial-BoldMT-45" transform="translate(635.316406 0)"/>
     <use xlink:href="#Arial-BoldMT-4c" transform="translate(702.015625 0)"/>
     <use xlink:href="#Arial-BoldMT-20" transform="translate(761.349609 0)"/>
     <use xlink:href="#Arial-BoldMT-42" transform="translate(789.132812 0)"/>
     <use xlink:href="#Arial-BoldMT-41" transform="translate(861.349609 0)"/>
     <use xlink:href="#Arial-BoldMT-52" transform="translate(933.566406 0)"/>
     <use xlink:href="#Arial-BoldMT-52" transform="translate(1005.783203 0)"/>
     <use xlink:href="#Arial-BoldMT-49" transform="translate(1078 0)"/>
     <use xlink:href="#Arial-BoldMT-45" transform="translate(1105.783203 0)"/>
     <use xlink:href="#Arial-BoldMT-52" transform="translate(1172.482422 0)"/>
     <use xlink:href="#Arial-BoldMT-53" transform="translate(1244.699219 0)"/>
    </g>
    <!-- Health literacy, stigma, logistical challenges -->
    <g style="fill: #ffffff" transform="translate(115.578047 339.188766) scale(0.11 -0.11)">
     <defs>
      <path id="Arial-BoldMT-6d" d="M 394 3319 
L 1203 3319 
L 1203 2866 
Q 1638 3394 2238 3394 
Q 2556 3394 2790 3262 
Q 3025 3131 3175 2866 
Q 3394 3131 3647 3262 
Q 3900 3394 4188 3394 
Q 4553 3394 4806 3245 
Q 5059 3097 5184 2809 
Q 5275 2597 5275 2122 
L 5275 0 
L 4397 0 
L 4397 1897 
Q 4397 2391 4306 2534 
Q 4184 2722 3931 2722 
Q 3747 2722 3584 2609 
Q 3422 2497 3350 2280 
Q 3278 2063 3278 1594 
L 3278 0 
L 2400 0 
L 2400 1819 
Q 2400 2303 2353 2443 
Q 2306 2584 2207 2653 
Q 2109 2722 1941 2722 
Q 1738 2722 1575 2612 
Q 1413 2503 1342 2297 
Q 1272 2091 1272 1613 
L 1272 0 
L 394 0 
L 394 3319 
z
" transform="scale(0.015625)"/>
     </defs>
     <use xlink:href="#Arial-BoldMT-48"/>
     <use xlink:href="#Arial-BoldMT-65" transform="translate(72.216797 0)"/>
     <use xlink:href="#Arial-BoldMT-61" transform="translate(127.832031 0)"/>
     <use xlink:href="#Arial-BoldMT-6c" transform="translate(183.447266 0)"/>
     <use xlink:href="#Arial-BoldMT-74" transform="translate(211.230469 0)"/>
     <use xlink:href="#Arial-BoldMT-68" transform="translate(244.53125 0)"/>
     <use xlink:href="#Arial-BoldMT-20" transform="translate(305.615234 0)"/>
     <use xlink:href="#Arial-BoldMT-6c" transform="translate(333.398438 0)"/>
     <use xlink:href="#Arial-BoldMT-69" transform="translate(361.181641 0)"/>
     <use xlink:href="#Arial-BoldMT-74" transform="translate(388.964844 0)"/>
     <use xlink:href="#Arial-BoldMT-65" transform="translate(422.265625 0)"/>
     <use xlink:href="#Arial-BoldMT-72" transform="translate(477.880859 0)"/>
     <use xlink:href="#Arial-BoldMT-61" transform="translate(516.796875 0)"/>
     <use xlink:href="#Arial-BoldMT-63" transform="translate(572.412109 0)"/>
     <use xlink:href="#Arial-BoldMT-79" transform="translate(628.027344 0)"/>
     <use xlink:href="#Arial-BoldMT-2c" transform="translate(676.267578 0)"/>
     <use xlink:href="#Arial-BoldMT-20" transform="translate(704.050781 0)"/>
     <use xlink:href="#Arial-BoldMT-73" transform="translate(731.833984 0)"/>
     <use xlink:href="#Arial-BoldMT-74" transform="translate(787.449219 0)"/>
     <use xlink:href="#Arial-BoldMT-69" transform="translate(820.75 0)"/>
     <use xlink:href="#Arial-BoldMT-67" transform="translate(848.533203 0)"/>
     <use xlink:href="#Arial-BoldMT-6d" transform="translate(909.617188 0)"/>
     <use xlink:href="#Arial-BoldMT-61" transform="translate(998.533203 0)"/>
     <use xlink:href="#Arial-BoldMT-2c" transform="translate(1054.148438 0)"/>
     <use xlink:href="#Arial-BoldMT-20" transform="translate(1081.931641 0)"/>
     <use xlink:href="#Arial-BoldMT-6c" transform="translate(1109.714844 0)"/>
     <use xlink:href="#Arial-BoldMT-6f" transform="translate(1137.498047 0)"/>
     <use xlink:href="#Arial-BoldMT-67" transform="translate(1198.582031 0)"/>
     <use xlink:href="#Arial-BoldMT-69" transform="translate(1259.666016 0)"/>
     <use xlink:href="#Arial-BoldMT-73" transform="translate(1287.449219 0)"/>
     <use xlink:href="#Arial-BoldMT-74" transform="translate(1343.064453 0)"/>
     <use xlink:href="#Arial-BoldMT-69" transform="translate(1376.365234 0)"/>
     <use xlink:href="#Arial-BoldMT-63" transform="translate(1404.148438 0)"/>
     <use xlink:href="#Arial-BoldMT-61" transform="translate(1459.763672 0)"/>
     <use xlink:href="#Arial-BoldMT-6c" transform="translate(1515.378906 0)"/>
     <use xlink:href="#Arial-BoldMT-20" transform="translate(1543.162109 0)"/>
     <use xlink:href="#Arial-BoldMT-63" transform="translate(1570.945312 0)"/>
     <use xlink:href="#Arial-BoldMT-68" transform="translate(1626.560547 0)"/>
     <use xlink:href="#Arial-BoldMT-61" transform="translate(1687.644531 0)"/>
     <use xlink:href="#Arial-BoldMT-6c" transform="translate(1743.259766 0)"/>
     <use xlink:href="#Arial-BoldMT-6c" transform="translate(1771.042969 0)"/>
     <use xlink:href="#Arial-BoldMT-65" transform="translate(1798.826172 0)"/>
     <use xlink:href="#Arial-BoldMT-6e" transform="translate(1854.441406 0)"/>
     <use xlink:href="#Arial-BoldMT-67" transform="translate(1915.525391 0)"/>
     <use xlink:href="#Arial-BoldMT-65" transform="translate(1976.609375 0)"/>
     <use xlink:href="#Arial-BoldMT-73" transform="translate(2032.224609 0)"/>
    </g>
   </g>
   <g id="text_4">
    <!-- NEGATIVE OUTCOMES -->
    <g style="fill: #ffffff" transform="translate(163.8375 506.960625) scale(0.12 -0.12)">
     <defs>
      <path id="Arial-BoldMT-47" d="M 2597 1684 
L 2597 2456 
L 4591 2456 
L 4591 631 
Q 4300 350 3748 136 
Q 3197 -78 2631 -78 
Q 1913 -78 1378 223 
Q 844 525 575 1086 
Q 306 1647 306 2306 
Q 306 3022 606 3578 
Q 906 4134 1484 4431 
Q 1925 4659 2581 4659 
Q 3434 4659 3914 4301 
Q 4394 3944 4531 3313 
L 3613 3141 
Q 3516 3478 3248 3673 
Q 2981 3869 2581 3869 
Q 1975 3869 1617 3484 
Q 1259 3100 1259 2344 
Q 1259 1528 1621 1120 
Q 1984 713 2572 713 
Q 2863 713 3155 827 
Q 3447 941 3656 1103 
L 3656 1684 
L 2597 1684 
z
" transform="scale(0.015625)"/>
      <path id="Arial-BoldMT-55" d="M 459 4581 
L 1384 4581 
L 1384 2100 
Q 1384 1509 1419 1334 
Q 1478 1053 1701 883 
Q 1925 713 2313 713 
Q 2706 713 2906 873 
Q 3106 1034 3147 1268 
Q 3188 1503 3188 2047 
L 3188 4581 
L 4113 4581 
L 4113 2175 
Q 4113 1350 4038 1009 
Q 3963 669 3761 434 
Q 3559 200 3221 61 
Q 2884 -78 2341 -78 
Q 1684 -78 1345 73 
Q 1006 225 809 467 
Q 613 709 550 975 
Q 459 1369 459 2138 
L 459 4581 
z
" transform="scale(0.015625)"/>
     </defs>
     <use xlink:href="#Arial-BoldMT-4e"/>
     <use xlink:href="#Arial-BoldMT-45" transform="translate(72.216797 0)"/>
     <use xlink:href="#Arial-BoldMT-47" transform="translate(138.916016 0)"/>
     <use xlink:href="#Arial-BoldMT-41" transform="translate(216.699219 0)"/>
     <use xlink:href="#Arial-BoldMT-54" transform="translate(281.541016 0)"/>
     <use xlink:href="#Arial-BoldMT-49" transform="translate(342.625 0)"/>
     <use xlink:href="#Arial-BoldMT-56" transform="translate(370.408203 0)"/>
     <use xlink:href="#Arial-BoldMT-45" transform="translate(437.107422 0)"/>
     <use xlink:href="#Arial-BoldMT-20" transform="translate(503.806641 0)"/>
     <use xlink:href="#Arial-BoldMT-4f" transform="translate(531.589844 0)"/>
     <use xlink:href="#Arial-BoldMT-55" transform="translate(609.373047 0)"/>
     <use xlink:href="#Arial-BoldMT-54" transform="translate(681.589844 0)"/>
     <use xlink:href="#Arial-BoldMT-43" transform="translate(742.673828 0)"/>
     <use xlink:href="#Arial-BoldMT-4f" transform="translate(814.890625 0)"/>
     <use xlink:href="#Arial-BoldMT-4d" transform="translate(892.673828 0)"/>
     <use xlink:href="#Arial-BoldMT-45" transform="translate(975.974609 0)"/>
     <use xlink:href="#Arial-BoldMT-53" transform="translate(1042.673828 0)"/>
    </g>
   </g>
   <g id="text_5">
    <!-- Delayed Diagnosis • Poorer Adherence • Reduced Survival -->
    <g style="fill: #ffffff" transform="translate(100.166406 529.5375) scale(0.1 -0.1)">
     <defs>
      <path id="ArialMT-44" d="M 494 0 
L 494 4581 
L 2072 4581 
Q 2606 4581 2888 4516 
Q 3281 4425 3559 4188 
Q 3922 3881 4101 3404 
Q 4281 2928 4281 2316 
Q 4281 1794 4159 1391 
Q 4038 988 3847 723 
Q 3656 459 3429 307 
Q 3203 156 2883 78 
Q 2563 0 2147 0 
L 494 0 
z
M 1100 541 
L 2078 541 
Q 2531 541 2789 625 
Q 3047 709 3200 863 
Q 3416 1078 3536 1442 
Q 3656 1806 3656 2325 
Q 3656 3044 3420 3430 
Q 3184 3816 2847 3947 
Q 2603 4041 2063 4041 
L 1100 4041 
L 1100 541 
z
" transform="scale(0.015625)"/>
      <path id="ArialMT-65" d="M 2694 1069 
L 3275 997 
Q 3138 488 2766 206 
Q 2394 -75 1816 -75 
Q 1088 -75 661 373 
Q 234 822 234 1631 
Q 234 2469 665 2931 
Q 1097 3394 1784 3394 
Q 2450 3394 2872 2941 
Q 3294 2488 3294 1666 
Q 3294 1616 3291 1516 
L 816 1516 
Q 847 969 1125 678 
Q 1403 388 1819 388 
Q 2128 388 2347 550 
Q 2566 713 2694 1069 
z
M 847 1978 
L 2700 1978 
Q 2663 2397 2488 2606 
Q 2219 2931 1791 2931 
Q 1403 2931 1139 2672 
Q 875 2413 847 1978 
z
" transform="scale(0.015625)"/>
      <path id="ArialMT-6c" d="M 409 0 
L 409 4581 
L 972 4581 
L 972 0 
L 409 0 
z
" transform="scale(0.015625)"/>
      <path id="ArialMT-61" d="M 2588 409 
Q 2275 144 1986 34 
Q 1697 -75 1366 -75 
Q 819 -75 525 192 
Q 231 459 231 875 
Q 231 1119 342 1320 
Q 453 1522 633 1644 
Q 813 1766 1038 1828 
Q 1203 1872 1538 1913 
Q 2219 1994 2541 2106 
Q 2544 2222 2544 2253 
Q 2544 2597 2384 2738 
Q 2169 2928 1744 2928 
Q 1347 2928 1158 2789 
Q 969 2650 878 2297 
L 328 2372 
Q 403 2725 575 2942 
Q 747 3159 1072 3276 
Q 1397 3394 1825 3394 
Q 2250 3394 2515 3294 
Q 2781 3194 2906 3042 
Q 3031 2891 3081 2659 
Q 3109 2516 3109 2141 
L 3109 1391 
Q 3109 606 3145 398 
Q 3181 191 3288 0 
L 2700 0 
Q 2613 175 2588 409 
z
M 2541 1666 
Q 2234 1541 1622 1453 
Q 1275 1403 1131 1340 
Q 988 1278 909 1158 
Q 831 1038 831 891 
Q 831 666 1001 516 
Q 1172 366 1500 366 
Q 1825 366 2078 508 
Q 2331 650 2450 897 
Q 2541 1088 2541 1459 
L 2541 1666 
z
" transform="scale(0.015625)"/>
      <path id="ArialMT-79" d="M 397 -1278 
L 334 -750 
Q 519 -800 656 -800 
Q 844 -800 956 -737 
Q 1069 -675 1141 -563 
Q 1194 -478 1313 -144 
Q 1328 -97 1363 -6 
L 103 3319 
L 709 3319 
L 1400 1397 
Q 1534 1031 1641 628 
Q 1738 1016 1872 1384 
L 2581 3319 
L 3144 3319 
L 1881 -56 
Q 1678 -603 1566 -809 
Q 1416 -1088 1222 -1217 
Q 1028 -1347 759 -1347 
Q 597 -1347 397 -1278 
z
" transform="scale(0.015625)"/>
      <path id="ArialMT-64" d="M 2575 0 
L 2575 419 
Q 2259 -75 1647 -75 
Q 1250 -75 917 144 
Q 584 363 401 755 
Q 219 1147 219 1656 
Q 219 2153 384 2558 
Q 550 2963 881 3178 
Q 1213 3394 1622 3394 
Q 1922 3394 2156 3267 
Q 2391 3141 2538 2938 
L 2538 4581 
L 3097 4581 
L 3097 0 
L 2575 0 
z
M 797 1656 
Q 797 1019 1065 703 
Q 1334 388 1700 388 
Q 2069 388 2326 689 
Q 2584 991 2584 1609 
Q 2584 2291 2321 2609 
Q 2059 2928 1675 2928 
Q 1300 2928 1048 2622 
Q 797 2316 797 1656 
z
" transform="scale(0.015625)"/>
      <path id="ArialMT-20" transform="scale(0.015625)"/>
      <path id="ArialMT-69" d="M 425 3934 
L 425 4581 
L 988 4581 
L 988 3934 
L 425 3934 
z
M 425 0 
L 425 3319 
L 988 3319 
L 988 0 
L 425 0 
z
" transform="scale(0.015625)"/>
      <path id="ArialMT-67" d="M 319 -275 
L 866 -356 
Q 900 -609 1056 -725 
Q 1266 -881 1628 -881 
Q 2019 -881 2231 -725 
Q 2444 -569 2519 -288 
Q 2563 -116 2559 434 
Q 2191 0 1641 0 
Q 956 0 581 494 
Q 206 988 206 1678 
Q 206 2153 378 2554 
Q 550 2956 876 3175 
Q 1203 3394 1644 3394 
Q 2231 3394 2613 2919 
L 2613 3319 
L 3131 3319 
L 3131 450 
Q 3131 -325 2973 -648 
Q 2816 -972 2473 -1159 
Q 2131 -1347 1631 -1347 
Q 1038 -1347 672 -1080 
Q 306 -813 319 -275 
z
M 784 1719 
Q 784 1066 1043 766 
Q 1303 466 1694 466 
Q 2081 466 2343 764 
Q 2606 1063 2606 1700 
Q 2606 2309 2336 2618 
Q 2066 2928 1684 2928 
Q 1309 2928 1046 2623 
Q 784 2319 784 1719 
z
" transform="scale(0.015625)"/>
      <path id="ArialMT-6e" d="M 422 0 
L 422 3319 
L 928 3319 
L 928 2847 
Q 1294 3394 1984 3394 
Q 2284 3394 2536 3286 
Q 2788 3178 2913 3003 
Q 3038 2828 3088 2588 
Q 3119 2431 3119 2041 
L 3119 0 
L 2556 0 
L 2556 2019 
Q 2556 2363 2490 2533 
Q 2425 2703 2258 2804 
Q 2091 2906 1866 2906 
Q 1506 2906 1245 2678 
Q 984 2450 984 1813 
L 984 0 
L 422 0 
z
" transform="scale(0.015625)"/>
      <path id="ArialMT-6f" d="M 213 1659 
Q 213 2581 725 3025 
Q 1153 3394 1769 3394 
Q 2453 3394 2887 2945 
Q 3322 2497 3322 1706 
Q 3322 1066 3130 698 
Q 2938 331 2570 128 
Q 2203 -75 1769 -75 
Q 1072 -75 642 372 
Q 213 819 213 1659 
z
M 791 1659 
Q 791 1022 1069 705 
Q 1347 388 1769 388 
Q 2188 388 2466 706 
Q 2744 1025 2744 1678 
Q 2744 2294 2464 2611 
Q 2184 2928 1769 2928 
Q 1347 2928 1069 2612 
Q 791 2297 791 1659 
z
" transform="scale(0.015625)"/>
      <path id="ArialMT-73" d="M 197 991 
L 753 1078 
Q 800 744 1014 566 
Q 1228 388 1613 388 
Q 2000 388 2187 545 
Q 2375 703 2375 916 
Q 2375 1106 2209 1216 
Q 2094 1291 1634 1406 
Q 1016 1563 777 1677 
Q 538 1791 414 1992 
Q 291 2194 291 2438 
Q 291 2659 392 2848 
Q 494 3038 669 3163 
Q 800 3259 1026 3326 
Q 1253 3394 1513 3394 
Q 1903 3394 2198 3281 
Q 2494 3169 2634 2976 
Q 2775 2784 2828 2463 
L 2278 2388 
Q 2241 2644 2061 2787 
Q 1881 2931 1553 2931 
Q 1166 2931 1000 2803 
Q 834 2675 834 2503 
Q 834 2394 903 2306 
Q 972 2216 1119 2156 
Q 1203 2125 1616 2013 
Q 2213 1853 2448 1751 
Q 2684 1650 2818 1456 
Q 2953 1263 2953 975 
Q 2953 694 2789 445 
Q 2625 197 2315 61 
Q 2006 -75 1616 -75 
Q 969 -75 630 194 
Q 291 463 197 991 
z
" transform="scale(0.015625)"/>
      <path id="ArialMT-2022" d="M 341 2244 
Q 341 2572 573 2803 
Q 806 3034 1131 3034 
Q 1459 3034 1692 2803 
Q 1925 2572 1925 2244 
Q 1925 1916 1692 1683 
Q 1459 1450 1131 1450 
Q 806 1450 573 1683 
Q 341 1916 341 2244 
z
" transform="scale(0.015625)"/>
      <path id="ArialMT-50" d="M 494 0 
L 494 4581 
L 2222 4581 
Q 2678 4581 2919 4538 
Q 3256 4481 3484 4323 
Q 3713 4166 3852 3881 
Q 3991 3597 3991 3256 
Q 3991 2672 3619 2267 
Q 3247 1863 2275 1863 
L 1100 1863 
L 1100 0 
L 494 0 
z
M 1100 2403 
L 2284 2403 
Q 2872 2403 3119 2622 
Q 3366 2841 3366 3238 
Q 3366 3525 3220 3729 
Q 3075 3934 2838 4000 
Q 2684 4041 2272 4041 
L 1100 4041 
L 1100 2403 
z
" transform="scale(0.015625)"/>
      <path id="ArialMT-72" d="M 416 0 
L 416 3319 
L 922 3319 
L 922 2816 
Q 1116 3169 1280 3281 
Q 1444 3394 1641 3394 
Q 1925 3394 2219 3213 
L 2025 2691 
Q 1819 2813 1613 2813 
Q 1428 2813 1281 2702 
Q 1134 2591 1072 2394 
Q 978 2094 978 1738 
L 978 0 
L 416 0 
z
" transform="scale(0.015625)"/>
      <path id="ArialMT-41" d="M -9 0 
L 1750 4581 
L 2403 4581 
L 4278 0 
L 3588 0 
L 3053 1388 
L 1138 1388 
L 634 0 
L -9 0 
z
M 1313 1881 
L 2866 1881 
L 2388 3150 
Q 2169 3728 2063 4100 
Q 1975 3659 1816 3225 
L 1313 1881 
z
" transform="scale(0.015625)"/>
      <path id="ArialMT-68" d="M 422 0 
L 422 4581 
L 984 4581 
L 984 2938 
Q 1378 3394 1978 3394 
Q 2347 3394 2619 3248 
Q 2891 3103 3008 2847 
Q 3125 2591 3125 2103 
L 3125 0 
L 2563 0 
L 2563 2103 
Q 2563 2525 2380 2717 
Q 2197 2909 1863 2909 
Q 1613 2909 1392 2779 
Q 1172 2650 1078 2428 
Q 984 2206 984 1816 
L 984 0 
L 422 0 
z
" transform="scale(0.015625)"/>
      <path id="ArialMT-63" d="M 2588 1216 
L 3141 1144 
Q 3050 572 2676 248 
Q 2303 -75 1759 -75 
Q 1078 -75 664 370 
Q 250 816 250 1647 
Q 250 2184 428 2587 
Q 606 2991 970 3192 
Q 1334 3394 1763 3394 
Q 2303 3394 2647 3120 
Q 2991 2847 3088 2344 
L 2541 2259 
Q 2463 2594 2264 2762 
Q 2066 2931 1784 2931 
Q 1359 2931 1093 2626 
Q 828 2322 828 1663 
Q 828 994 1084 691 
Q 1341 388 1753 388 
Q 2084 388 2306 591 
Q 2528 794 2588 1216 
z
" transform="scale(0.015625)"/>
      <path id="ArialMT-52" d="M 503 0 
L 503 4581 
L 2534 4581 
Q 3147 4581 3465 4457 
Q 3784 4334 3975 4021 
Q 4166 3709 4166 3331 
Q 4166 2844 3850 2509 
Q 3534 2175 2875 2084 
Q 3116 1969 3241 1856 
Q 3506 1613 3744 1247 
L 4541 0 
L 3778 0 
L 3172 953 
Q 2906 1366 2734 1584 
Q 2563 1803 2427 1890 
Q 2291 1978 2150 2013 
Q 2047 2034 1813 2034 
L 1109 2034 
L 1109 0 
L 503 0 
z
M 1109 2559 
L 2413 2559 
Q 2828 2559 3062 2645 
Q 3297 2731 3419 2920 
Q 3541 3109 3541 3331 
Q 3541 3656 3305 3865 
Q 3069 4075 2559 4075 
L 1109 4075 
L 1109 2559 
z
" transform="scale(0.015625)"/>
      <path id="ArialMT-75" d="M 2597 0 
L 2597 488 
Q 2209 -75 1544 -75 
Q 1250 -75 995 37 
Q 741 150 617 320 
Q 494 491 444 738 
Q 409 903 409 1263 
L 409 3319 
L 972 3319 
L 972 1478 
Q 972 1038 1006 884 
Q 1059 663 1231 536 
Q 1403 409 1656 409 
Q 1909 409 2131 539 
Q 2353 669 2445 892 
Q 2538 1116 2538 1541 
L 2538 3319 
L 3100 3319 
L 3100 0 
L 2597 0 
z
" transform="scale(0.015625)"/>
      <path id="ArialMT-53" d="M 288 1472 
L 859 1522 
Q 900 1178 1048 958 
Q 1197 738 1509 602 
Q 1822 466 2213 466 
Q 2559 466 2825 569 
Q 3091 672 3220 851 
Q 3350 1031 3350 1244 
Q 3350 1459 3225 1620 
Q 3100 1781 2813 1891 
Q 2628 1963 1997 2114 
Q 1366 2266 1113 2400 
Q 784 2572 623 2826 
Q 463 3081 463 3397 
Q 463 3744 659 4045 
Q 856 4347 1234 4503 
Q 1613 4659 2075 4659 
Q 2584 4659 2973 4495 
Q 3363 4331 3572 4012 
Q 3781 3694 3797 3291 
L 3216 3247 
Q 3169 3681 2898 3903 
Q 2628 4125 2100 4125 
Q 1550 4125 1298 3923 
Q 1047 3722 1047 3438 
Q 1047 3191 1225 3031 
Q 1400 2872 2139 2705 
Q 2878 2538 3153 2413 
Q 3553 2228 3743 1945 
Q 3934 1663 3934 1294 
Q 3934 928 3725 604 
Q 3516 281 3123 101 
Q 2731 -78 2241 -78 
Q 1619 -78 1198 103 
Q 778 284 539 648 
Q 300 1013 288 1472 
z
" transform="scale(0.015625)"/>
      <path id="ArialMT-76" d="M 1344 0 
L 81 3319 
L 675 3319 
L 1388 1331 
Q 1503 1009 1600 663 
Q 1675 925 1809 1294 
L 2547 3319 
L 3125 3319 
L 1869 0 
L 1344 0 
z
" transform="scale(0.015625)"/>
     </defs>
     <use xlink:href="#ArialMT-44"/>
     <use xlink:href="#ArialMT-65" transform="translate(72.216797 0)"/>
     <use xlink:href="#ArialMT-6c" transform="translate(127.832031 0)"/>
     <use xlink:href="#ArialMT-61" transform="translate(150.048828 0)"/>
     <use xlink:href="#ArialMT-79" transform="translate(205.664062 0)"/>
     <use xlink:href="#ArialMT-65" transform="translate(255.664062 0)"/>
     <use xlink:href="#ArialMT-64" transform="translate(311.279297 0)"/>
     <use xlink:href="#ArialMT-20" transform="translate(366.894531 0)"/>
     <use xlink:href="#ArialMT-44" transform="translate(394.677734 0)"/>
     <use xlink:href="#ArialMT-69" transform="translate(466.894531 0)"/>
     <use xlink:href="#ArialMT-61" transform="translate(489.111328 0)"/>
     <use xlink:href="#ArialMT-67" transform="translate(544.726562 0)"/>
     <use xlink:href="#ArialMT-6e" transform="translate(600.341797 0)"/>
     <use xlink:href="#ArialMT-6f" transform="translate(655.957031 0)"/>
     <use xlink:href="#ArialMT-73" transform="translate(711.572266 0)"/>
     <use xlink:href="#ArialMT-69" transform="translate(761.572266 0)"/>
     <use xlink:href="#ArialMT-73" transform="translate(783.789062 0)"/>
     <use xlink:href="#ArialMT-20" transform="translate(833.789062 0)"/>
     <use xlink:href="#ArialMT-2022" transform="translate(861.572266 0)"/>
     <use xlink:href="#ArialMT-20" transform="translate(896.582031 0)"/>
     <use xlink:href="#ArialMT-50" transform="translate(924.365234 0)"/>
     <use xlink:href="#ArialMT-6f" transform="translate(991.064453 0)"/>
     <use xlink:href="#ArialMT-6f" transform="translate(1046.679688 0)"/>
     <use xlink:href="#ArialMT-72" transform="translate(1102.294922 0)"/>
     <use xlink:href="#ArialMT-65" transform="translate(1135.595703 0)"/>
     <use xlink:href="#ArialMT-72" transform="translate(1191.210938 0)"/>
     <use xlink:href="#ArialMT-20" transform="translate(1224.511719 0)"/>
     <use xlink:href="#ArialMT-41" transform="translate(1246.794922 0)"/>
     <use xlink:href="#ArialMT-64" transform="translate(1313.494141 0)"/>
     <use xlink:href="#ArialMT-68" transform="translate(1369.109375 0)"/>
     <use xlink:href="#ArialMT-65" transform="translate(1424.724609 0)"/>
     <use xlink:href="#ArialMT-72" transform="translate(1480.339844 0)"/>
     <use xlink:href="#ArialMT-65" transform="translate(1513.640625 0)"/>
     <use xlink:href="#ArialMT-6e" transform="translate(1569.255859 0)"/>
     <use xlink:href="#ArialMT-63" transform="translate(1624.871094 0)"/>
     <use xlink:href="#ArialMT-65" transform="translate(1674.871094 0)"/>
     <use xlink:href="#ArialMT-20" transform="translate(1730.486328 0)"/>
     <use xlink:href="#ArialMT-2022" transform="translate(1758.269531 0)"/>
     <use xlink:href="#ArialMT-20" transform="translate(1793.279297 0)"/>
     <use xlink:href="#ArialMT-52" transform="translate(1821.0625 0)"/>
     <use xlink:href="#ArialMT-65" transform="translate(1893.279297 0)"/>
     <use xlink:href="#ArialMT-64" transform="translate(1948.894531 0)"/>
     <use xlink:href="#ArialMT-75" transform="translate(2004.509766 0)"/>
     <use xlink:href="#ArialMT-63" transform="translate(2060.125 0)"/>
     <use xlink:href="#ArialMT-65" transform="translate(2110.125 0)"/>
     <use xlink:href="#ArialMT-64" transform="translate(2165.740234 0)"/>
     <use xlink:href="#ArialMT-20" transform="translate(2221.355469 0)"/>
     <use xlink:href="#ArialMT-53" transform="translate(2249.138672 0)"/>
     <use xlink:href="#ArialMT-75" transform="translate(2315.837891 0)"/>
     <use xlink:href="#ArialMT-72" transform="translate(2371.453125 0)"/>
     <use xlink:href="#ArialMT-76" transform="translate(2404.753906 0)"/>
     <use xlink:href="#ArialMT-69" transform="translate(2454.753906 0)"/>
     <use xlink:href="#ArialMT-76" transform="translate(2476.970703 0)"/>
     <use xlink:href="#ArialMT-61" transform="translate(2526.970703 0)"/>
     <use xlink:href="#ArialMT-6c" transform="translate(2582.585938 0)"/>
    </g>
   </g>
   <g id="text_6">
    <!-- Barriers to Optimal Breast Cancer Care -->
    <g style="fill: #1f3a5f" transform="translate(81.45625 28.92) scale(0.16 -0.16)">
     <use xlink:href="#Arial-BoldMT-42"/>
     <use xlink:href="#Arial-BoldMT-61" transform="translate(72.216797 0)"/>
     <use xlink:href="#Arial-BoldMT-72" transform="translate(127.832031 0)"/>
     <use xlink:href="#Arial-BoldMT-72" transform="translate(166.748047 0)"/>
     <use xlink:href="#Arial-BoldMT-69" transform="translate(205.664062 0)"/>
     <use xlink:href="#Arial-BoldMT-65" transform="translate(233.447266 0)"/>
     <use xlink:href="#Arial-BoldMT-72" transform="translate(289.0625 0)"/>
     <use xlink:href="#Arial-BoldMT-73" transform="translate(327.978516 0)"/>
     <use xlink:href="#Arial-BoldMT-20" transform="translate(383.59375 0)"/>
     <use xlink:href="#Arial-BoldMT-74" transform="translate(411.376953 0)"/>
     <use xlink:href="#Arial-BoldMT-6f" transform="translate(444.677734 0)"/>
     <use xlink:href="#Arial-BoldMT-20" transform="translate(505.761719 0)"/>
     <use xlink:href="#Arial-BoldMT-4f" transform="translate(533.544922 0)"/>
     <use xlink:href="#Arial-BoldMT-70" transform="translate(611.328125 0)"/>
     <use xlink:href="#Arial-BoldMT-74" transform="translate(672.412109 0)"/>
     <use xlink:href="#Arial-BoldMT-69" transform="translate(705.712891 0)"/>
     <use xlink:href="#Arial-BoldMT-6d" transform="translate(733.496094 0)"/>
     <use xlink:href="#Arial-BoldMT-61" transform="translate(822.412109 0)"/>
     <use xlink:href="#Arial-BoldMT-6c" transform="translate(878.027344 0)"/>
     <use xlink:href="#Arial-BoldMT-20" transform="translate(905.810547 0)"/>
     <use xlink:href="#Arial-BoldMT-42" transform="translate(933.59375 0)"/>
     <use xlink:href="#Arial-BoldMT-72" transform="translate(1005.810547 0)"/>
     <use xlink:href="#Arial-BoldMT-65" transform="translate(1044.726562 0)"/>
     <use xlink:href="#Arial-BoldMT-61" transform="translate(1100.341797 0)"/>
     <use xlink:href="#Arial-BoldMT-73" transform="translate(1155.957031 0)"/>
     <use xlink:href="#Arial-BoldMT-74" transform="translate(1211.572266 0)"/>
     <use xlink:href="#Arial-BoldMT-20" transform="translate(1244.873047 0)"/>
     <use xlink:href="#Arial-BoldMT-43" transform="translate(1272.65625 0)"/>
     <use xlink:href="#Arial-BoldMT-61" transform="translate(1344.873047 0)"/>
     <use xlink:href="#Arial-BoldMT-6e" transform="translate(1400.488281 0)"/>
     <use xlink:href="#Arial-BoldMT-63" transform="translate(1461.572266 0)"/>
     <use xlink:href="#Arial-BoldMT-65" transform="translate(1517.1875 0)"/>
     <use xlink:href="#Arial-BoldMT-72" transform="translate(1572.802734 0)"/>
     <use xlink:href="#Arial-BoldMT-20" transform="translate(1611.71875 0)"/>
     <use xlink:href="#Arial-BoldMT-43" transform="translate(1639.501953 0)"/>
     <use xlink:href="#Arial-BoldMT-61" transform="translate(1711.71875 0)"/>
     <use xlink:href="#Arial-BoldMT-72" transform="translate(1767.333984 0)"/>
     <use xlink:href="#Arial-BoldMT-65" transform="translate(1806.25 0)"/>
    </g>
   </g>
  </g>
 </g>
 <defs>
  <clipPath id="pf4a8eb9923">
   <rect x="7.2" y="7.2" width="446.4" height="554.4"/>
  </clipPath>
 </defs>
</svg>
