<?xml version="1.0" encoding="utf-8" standalone="no"?>
<!DOCTYPE svg PUBLIC "-//W3C//DTD SVG 1.1//EN"
  "http://www.w3.org/Graphics/SVG/1.1/DTD/svg11.dtd">
<svg xmlns:xlink="http://www.w3.org/1999/xlink" width="572.4pt" height="489.5675pt" viewBox="0 0 572.4 489.5675" xmlns="http://www.w3.org/2000/svg" version="1.1">
 <metadata>
  <rdf:RDF xmlns:dc="http://purl.org/dc/elements/1.1/" xmlns:cc="http://creativecommons.org/ns#" xmlns:rdf="http://www.w3.org/1999/02/22-rdf-syntax-ns#">
   <cc:Work>
    <dc:type rdf:resource="http://purl.org/dc/dcmitype/StillImage"/>
    <dc:date>2026-06-15T19:33:03.488150</dc:date>
    <dc:format>image/svg+xml</dc:format>
    <dc:creator>
     <cc:Agent>
      <dc:title>Matplotlib v3.10.3, https://matplotlib.org/</dc:title>
     </cc:Agent>
    </dc:creator>
   </cc:Work>
  </rdf:RDF>
 </metadata>
 <defs>
  <style type="text/css">*{stroke-linejoin: round; stroke-linecap: butt}</style>
 </defs>
 <g id="figure_1">
  <g id="patch_1">
   <path d="M 0 489.5675 
L 572.4 489.5675 
L 572.4 0 
L 0 0 
z
" style="fill: #ffffff"/>
  </g>
  <g id="axes_1">
   <g id="patch_2">
    <path d="M 284.300224 108.01381 
Q 181.575868 141.663216 80.976478 174.616547 
" style="fill: none; stroke: #6c757d; stroke-width: 2; stroke-linecap: round"/>
    <path d="M 87.612242 175.599723 
L 80.976478 174.616547 
L 85.744477 169.897842 
z
" style="fill: #6c757d; stroke: #6c757d; stroke-width: 2; stroke-linecap: round"/>
   </g>
   <g id="patch_3">
    <path d="M 76.95 230.348182 
Q 76.95 282.782243 76.95 332.980236 
" style="fill: none; stroke: #6c757d; stroke-width: 2; stroke-linecap: round"/>
    <path d="M 79.95 326.980236 
L 76.95 332.980236 
L 73.95 326.980236 
z
" style="fill: #6c757d; stroke: #6c757d; stroke-width: 2; stroke-linecap: round"/>
   </g>
   <g id="patch_4">
    <path d="M 284.530112 108.48551 
Q 233.889883 141.661939 185.120066 173.612986 
" style="fill: none; stroke: #6c757d; stroke-width: 2; stroke-linecap: round"/>
    <path d="M 191.78293 172.834364 
L 185.120066 173.612986 
L 188.494887 167.815522 
z
" style="fill: #6c757d; stroke: #6c757d; stroke-width: 2; stroke-linecap: round"/>
   </g>
   <g id="patch_5">
    <path d="M 181.575 230.348182 
Q 181.575 282.782243 181.575 332.980236 
" style="fill: none; stroke: #6c757d; stroke-width: 2; stroke-linecap: round"/>
    <path d="M 184.575 326.980236 
L 181.575 332.980236 
L 178.575 326.980236 
z
" style="fill: #6c757d; stroke: #6c757d; stroke-width: 2; stroke-linecap: round"/>
   </g>
   <g id="patch_6">
    <path d="M 286.2 109.395441 
Q 286.2 141.664364 286.2 171.69722 
" style="fill: none; stroke: #6c757d; stroke-width: 2; stroke-linecap: round"/>
    <path d="M 289.2 165.69722 
L 286.2 171.69722 
L 283.2 165.69722 
z
" style="fill: #6c757d; stroke: #6c757d; stroke-width: 2; stroke-linecap: round"/>
   </g>
   <g id="patch_7">
    <path d="M 286.2 230.348182 
Q 286.2 282.782243 286.2 332.980236 
" style="fill: none; stroke: #6c757d; stroke-width: 2; stroke-linecap: round"/>
    <path d="M 289.2 326.980236 
L 286.2 332.980236 
L 283.2 326.980236 
z
" style="fill: #6c757d; stroke: #6c757d; stroke-width: 2; stroke-linecap: round"/>
   </g>
   <g id="patch_8">
    <path d="M 287.869888 108.48551 
Q 338.510117 141.661939 387.279934 173.612986 
" style="fill: none; stroke: #6c757d; stroke-width: 2; stroke-linecap: round"/>
    <path d="M 383.905113 167.815522 
L 387.279934 173.612986 
L 380.61707 172.834364 
z
" style="fill: #6c757d; stroke: #6c757d; stroke-width: 2; stroke-linecap: round"/>
   </g>
   <g id="patch_9">
    <path d="M 390.825 230.348182 
Q 390.825 282.782243 390.825 332.980236 
" style="fill: none; stroke: #6c757d; stroke-width: 2; stroke-linecap: round"/>
    <path d="M 393.825 326.980236 
L 390.825 332.980236 
L 387.825 326.980236 
z
" style="fill: #6c757d; stroke: #6c757d; stroke-width: 2; stroke-linecap: round"/>
   </g>
   <g id="patch_10">
    <path d="M 288.099776 108.01381 
Q 390.824132 141.663216 491.423522 174.616547 
" style="fill: none; stroke: #6c757d; stroke-width: 2; stroke-linecap: round"/>
    <path d="M 486.655523 169.897842 
L 491.423522 174.616547 
L 484.787758 175.599723 
z
" style="fill: #6c757d; stroke: #6c757d; stroke-width: 2; stroke-linecap: round"/>
   </g>
   <g id="patch_11">
    <path d="M 495.45 230.348182 
Q 495.45 282.782243 495.45 332.980236 
" style="fill: none; stroke: #6c757d; stroke-width: 2; stroke-linecap: round"/>
    <path d="M 498.45 326.980236 
L 495.45 332.980236 
L 492.45 326.980236 
z
" style="fill: #6c757d; stroke: #6c757d; stroke-width: 2; stroke-linecap: round"/>
   </g>
   <g id="patch_12">
    <path d="M 193.2 111.4235 
L 379.2 111.4235 
Q 388.5 111.4235 388.5 103.3595 
L 388.5 54.9755 
Q 388.5 46.9115 379.2 46.9115 
L 193.2 46.9115 
Q 183.9 46.9115 183.9 54.9755 
L 183.9 103.3595 
Q 183.9 111.4235 193.2 111.4235 
z
" clip-path="url(#pa9c8a12277)" style="fill: #1f3a5f"/>
   </g>
   <g id="patch_13">
    <path d="M 30.45 232.3835 
L 123.45 232.3835 
Q 132.75 232.3835 132.75 224.3195 
L 132.75 175.9355 
Q 132.75 167.8715 123.45 167.8715 
L 30.45 167.8715 
Q 21.15 167.8715 21.15 175.9355 
L 21.15 224.3195 
Q 21.15 232.3835 30.45 232.3835 
z
" clip-path="url(#pa9c8a12277)" style="fill: #7db7d5"/>
   </g>
   <g id="patch_14">
    <path d="M 30.45 393.6635 
L 123.45 393.6635 
Q 132.75 393.6635 132.75 385.5995 
L 132.75 337.2155 
Q 132.75 329.1515 123.45 329.1515 
L 30.45 329.1515 
Q 21.15 329.1515 21.15 337.2155 
L 21.15 385.5995 
Q 21.15 393.6635 30.45 393.6635 
z
" clip-path="url(#pa9c8a12277)" style="fill: #e9ecef"/>
   </g>
   <g id="patch_15">
    <path d="M 135.075 232.3835 
L 228.075 232.3835 
Q 237.375 232.3835 237.375 224.3195 
L 237.375 175.9355 
Q 237.375 167.8715 228.075 167.8715 
L 135.075 167.8715 
Q 125.775 167.8715 125.775 175.9355 
L 125.775 224.3195 
Q 125.775 232.3835 135.075 232.3835 
z
" clip-path="url(#pa9c8a12277)" style="fill: #2a9d8f"/>
   </g>
   <g id="patch_16">
    <path d="M 135.075 393.6635 
L 228.075 393.6635 
Q 237.375 393.6635 237.375 385.5995 
L 237.375 337.2155 
Q 237.375 329.1515 228.075 329.1515 
L 135.075 329.1515 
Q 125.775 329.1515 125.775 337.2155 
L 125.775 385.5995 
Q 125.775 393.6635 135.075 393.6635 
z
" clip-path="url(#pa9c8a12277)" style="fill: #e9ecef"/>
   </g>
   <g id="patch_17">
    <path d="M 239.7 232.3835 
L 332.7 232.3835 
Q 342 232.3835 342 224.3195 
L 342 175.9355 
Q 342 167.8715 332.7 167.8715 
L 239.7 167.8715 
Q 230.4 167.8715 230.4 175.9355 
L 230.4 224.3195 
Q 230.4 232.3835 239.7 232.3835 
z
" clip-path="url(#pa9c8a12277)" style="fill: #f4a261"/>
   </g>
   <g id="patch_18">
    <path d="M 239.7 393.6635 
L 332.7 393.6635 
Q 342 393.6635 342 385.5995 
L 342 337.2155 
Q 342 329.1515 332.7 329.1515 
L 239.7 329.1515 
Q 230.4 329.1515 230.4 337.2155 
L 230.4 385.5995 
Q 230.4 393.6635 239.7 393.6635 
z
" clip-path="url(#pa9c8a12277)" style="fill: #e9ecef"/>
   </g>
   <g id="patch_19">
    <path d="M 344.325 232.3835 
L 437.325 232.3835 
Q 446.625 232.3835 446.625 224.3195 
L 446.625 175.9355 
Q 446.625 167.8715 437.325 167.8715 
L 344.325 167.8715 
Q 335.025 167.8715 335.025 175.9355 
L 335.025 224.3195 
Q 335.025 232.3835 344.325 232.3835 
z
" clip-path="url(#pa9c8a12277)" style="fill: #e76f51"/>
   </g>
   <g id="patch_20">
    <path d="M 344.325 393.6635 
L 437.325 393.6635 
Q 446.625 393.6635 446.625 385.5995 
L 446.625 337.2155 
Q 446.625 329.1515 437.325 329.1515 
L 344.325 329.1515 
Q 335.025 329.1515 335.025 337.2155 
L 335.025 385.5995 
Q 335.025 393.6635 344.325 393.6635 
z
" clip-path="url(#pa9c8a12277)" style="fill: #e9ecef"/>
   </g>
   <g id="patch_21">
    <path d="M 448.95 232.3835 
L 541.95 232.3835 
Q 551.25 232.3835 551.25 224.3195 
L 551.25 175.9355 
Q 551.25 167.8715 541.95 167.8715 
L 448.95 167.8715 
Q 439.65 167.8715 439.65 175.9355 
L 439.65 224.3195 
Q 439.65 232.3835 448.95 232.3835 
z
" clip-path="url(#pa9c8a12277)" style="fill: #1f3a5f"/>
   </g>
   <g id="patch_22">
    <path d="M 448.95 393.6635 
L 541.95 393.6635 
Q 551.25 393.6635 551.25 385.5995 
L 551.25 337.2155 
Q 551.25 329.1515 541.95 329.1515 
L 448.95 329.1515 
Q 439.65 329.1515 439.65 337.2155 
L 439.65 385.5995 
Q 439.65 393.6635 448.95 393.6635 
z
" clip-path="url(#pa9c8a12277)" style="fill: #e9ecef"/>
   </g>
   <g id="text_1">
    <!-- Breast Cancer -->
    <g style="fill: #ffffff" transform="translate(252.295312 81.759687) scale(0.1 -0.1)">
     <defs>
      <path id="Arial-BoldMT-42" d="M 469 4581 
L 2300 4581 
Q 2844 4581 3111 4536 
Q 3378 4491 3589 4347 
Q 3800 4203 3940 3964 
Q 4081 3725 4081 3428 
Q 4081 3106 3907 2837 
Q 3734 2569 3438 2434 
Q 3856 2313 4081 2019 
Q 4306 1725 4306 1328 
Q 4306 1016 4161 720 
Q 4016 425 3764 248 
Q 3513 72 3144 31 
Q 2913 6 2028 0 
L 469 0 
L 469 4581 
z
M 1394 3819 
L 1394 2759 
L 2000 2759 
Q 2541 2759 2672 2775 
Q 2909 2803 3045 2939 
Q 3181 3075 3181 3297 
Q 3181 3509 3064 3642 
Q 2947 3775 2716 3803 
Q 2578 3819 1925 3819 
L 1394 3819 
z
M 1394 1997 
L 1394 772 
L 2250 772 
Q 2750 772 2884 800 
Q 3091 838 3220 983 
Q 3350 1128 3350 1372 
Q 3350 1578 3250 1722 
Q 3150 1866 2961 1931 
Q 2772 1997 2141 1997 
L 1394 1997 
z
" transform="scale(0.015625)"/>
      <path id="Arial-BoldMT-72" d="M 1300 0 
L 422 0 
L 422 3319 
L 1238 3319 
L 1238 2847 
Q 1447 3181 1614 3287 
Q 1781 3394 1994 3394 
Q 2294 3394 2572 3228 
L 2300 2463 
Q 2078 2606 1888 2606 
Q 1703 2606 1575 2504 
Q 1447 2403 1373 2137 
Q 1300 1872 1300 1025 
L 1300 0 
z
" transform="scale(0.015625)"/>
      <path id="Arial-BoldMT-65" d="M 2381 1056 
L 3256 909 
Q 3088 428 2723 176 
Q 2359 -75 1813 -75 
Q 947 -75 531 491 
Q 203 944 203 1634 
Q 203 2459 634 2926 
Q 1066 3394 1725 3394 
Q 2466 3394 2894 2905 
Q 3322 2416 3303 1406 
L 1103 1406 
Q 1113 1016 1316 798 
Q 1519 581 1822 581 
Q 2028 581 2168 693 
Q 2309 806 2381 1056 
z
M 2431 1944 
Q 2422 2325 2234 2523 
Q 2047 2722 1778 2722 
Q 1491 2722 1303 2513 
Q 1116 2303 1119 1944 
L 2431 1944 
z
" transform="scale(0.015625)"/>
      <path id="Arial-BoldMT-61" d="M 1116 2306 
L 319 2450 
Q 453 2931 781 3162 
Q 1109 3394 1756 3394 
Q 2344 3394 2631 3255 
Q 2919 3116 3036 2902 
Q 3153 2688 3153 2116 
L 3144 1091 
Q 3144 653 3186 445 
Q 3228 238 3344 0 
L 2475 0 
Q 2441 88 2391 259 
Q 2369 338 2359 363 
Q 2134 144 1878 34 
Q 1622 -75 1331 -75 
Q 819 -75 523 203 
Q 228 481 228 906 
Q 228 1188 362 1408 
Q 497 1628 739 1745 
Q 981 1863 1438 1950 
Q 2053 2066 2291 2166 
L 2291 2253 
Q 2291 2506 2166 2614 
Q 2041 2722 1694 2722 
Q 1459 2722 1328 2630 
Q 1197 2538 1116 2306 
z
M 2291 1594 
Q 2122 1538 1756 1459 
Q 1391 1381 1278 1306 
Q 1106 1184 1106 997 
Q 1106 813 1243 678 
Q 1381 544 1594 544 
Q 1831 544 2047 700 
Q 2206 819 2256 991 
Q 2291 1103 2291 1419 
L 2291 1594 
z
" transform="scale(0.015625)"/>
      <path id="Arial-BoldMT-73" d="M 150 947 
L 1031 1081 
Q 1088 825 1259 692 
Q 1431 559 1741 559 
Q 2081 559 2253 684 
Q 2369 772 2369 919 
Q 2369 1019 2306 1084 
Q 2241 1147 2013 1200 
Q 950 1434 666 1628 
Q 272 1897 272 2375 
Q 272 2806 612 3100 
Q 953 3394 1669 3394 
Q 2350 3394 2681 3172 
Q 3013 2950 3138 2516 
L 2309 2363 
Q 2256 2556 2107 2659 
Q 1959 2763 1684 2763 
Q 1338 2763 1188 2666 
Q 1088 2597 1088 2488 
Q 1088 2394 1175 2328 
Q 1294 2241 1995 2081 
Q 2697 1922 2975 1691 
Q 3250 1456 3250 1038 
Q 3250 581 2869 253 
Q 2488 -75 1741 -75 
Q 1063 -75 667 200 
Q 272 475 150 947 
z
" transform="scale(0.015625)"/>
      <path id="Arial-BoldMT-74" d="M 1981 3319 
L 1981 2619 
L 1381 2619 
L 1381 1281 
Q 1381 875 1398 808 
Q 1416 741 1477 697 
Q 1538 653 1625 653 
Q 1747 653 1978 738 
L 2053 56 
Q 1747 -75 1359 -75 
Q 1122 -75 931 4 
Q 741 84 652 211 
Q 563 338 528 553 
Q 500 706 500 1172 
L 500 2619 
L 97 2619 
L 97 3319 
L 500 3319 
L 500 3978 
L 1381 4491 
L 1381 3319 
L 1981 3319 
z
" transform="scale(0.015625)"/>
      <path id="Arial-BoldMT-20" transform="scale(0.015625)"/>
      <path id="Arial-BoldMT-43" d="M 3397 1684 
L 4294 1400 
Q 4088 650 3608 286 
Q 3128 -78 2391 -78 
Q 1478 -78 890 545 
Q 303 1169 303 2250 
Q 303 3394 893 4026 
Q 1484 4659 2447 4659 
Q 3288 4659 3813 4163 
Q 4125 3869 4281 3319 
L 3366 3100 
Q 3284 3456 3026 3662 
Q 2769 3869 2400 3869 
Q 1891 3869 1573 3503 
Q 1256 3138 1256 2319 
Q 1256 1450 1568 1081 
Q 1881 713 2381 713 
Q 2750 713 3015 947 
Q 3281 1181 3397 1684 
z
" transform="scale(0.015625)"/>
      <path id="Arial-BoldMT-6e" d="M 3478 0 
L 2600 0 
L 2600 1694 
Q 2600 2231 2544 2389 
Q 2488 2547 2361 2634 
Q 2234 2722 2056 2722 
Q 1828 2722 1647 2597 
Q 1466 2472 1398 2265 
Q 1331 2059 1331 1503 
L 1331 0 
L 453 0 
L 453 3319 
L 1269 3319 
L 1269 2831 
Q 1703 3394 2363 3394 
Q 2653 3394 2893 3289 
Q 3134 3184 3257 3021 
Q 3381 2859 3429 2653 
Q 3478 2447 3478 2063 
L 3478 0 
z
" transform="scale(0.015625)"/>
      <path id="Arial-BoldMT-63" d="M 3353 2338 
L 2488 2181 
Q 2444 2441 2289 2572 
Q 2134 2703 1888 2703 
Q 1559 2703 1364 2476 
Q 1169 2250 1169 1719 
Q 1169 1128 1367 884 
Q 1566 641 1900 641 
Q 2150 641 2309 783 
Q 2469 925 2534 1272 
L 3397 1125 
Q 3263 531 2881 228 
Q 2500 -75 1859 -75 
Q 1131 -75 698 384 
Q 266 844 266 1656 
Q 266 2478 700 2936 
Q 1134 3394 1875 3394 
Q 2481 3394 2839 3133 
Q 3197 2872 3353 2338 
z
" transform="scale(0.015625)"/>
     </defs>
     <use xlink:href="#Arial-BoldMT-42"/>
     <use xlink:href="#Arial-BoldMT-72" transform="translate(72.216797 0)"/>
     <use xlink:href="#Arial-BoldMT-65" transform="translate(111.132812 0)"/>
     <use xlink:href="#Arial-BoldMT-61" transform="translate(166.748047 0)"/>
     <use xlink:href="#Arial-BoldMT-73" transform="translate(222.363281 0)"/>
     <use xlink:href="#Arial-BoldMT-74" transform="translate(277.978516 0)"/>
     <use xlink:href="#Arial-BoldMT-20" transform="translate(311.279297 0)"/>
     <use xlink:href="#Arial-BoldMT-43" transform="translate(339.0625 0)"/>
     <use xlink:href="#Arial-BoldMT-61" transform="translate(411.279297 0)"/>
     <use xlink:href="#Arial-BoldMT-6e" transform="translate(466.894531 0)"/>
     <use xlink:href="#Arial-BoldMT-63" transform="translate(527.978516 0)"/>
     <use xlink:href="#Arial-BoldMT-65" transform="translate(583.59375 0)"/>
     <use xlink:href="#Arial-BoldMT-72" transform="translate(639.208984 0)"/>
    </g>
   </g>
   <g id="text_2">
    <!-- Luminal A -->
    <g style="fill: #ffffff" transform="translate(52.971094 197.299531) scale(0.1 -0.1)">
     <defs>
      <path id="Arial-BoldMT-4c" d="M 491 0 
L 491 4544 
L 1416 4544 
L 1416 772 
L 3716 772 
L 3716 0 
L 491 0 
z
" transform="scale(0.015625)"/>
      <path id="Arial-BoldMT-75" d="M 2644 0 
L 2644 497 
Q 2463 231 2167 78 
Q 1872 -75 1544 -75 
Q 1209 -75 943 72 
Q 678 219 559 484 
Q 441 750 441 1219 
L 441 3319 
L 1319 3319 
L 1319 1794 
Q 1319 1094 1367 936 
Q 1416 778 1544 686 
Q 1672 594 1869 594 
Q 2094 594 2272 717 
Q 2450 841 2515 1023 
Q 2581 1206 2581 1919 
L 2581 3319 
L 3459 3319 
L 3459 0 
L 2644 0 
z
" transform="scale(0.015625)"/>
      <path id="Arial-BoldMT-6d" d="M 394 3319 
L 1203 3319 
L 1203 2866 
Q 1638 3394 2238 3394 
Q 2556 3394 2790 3262 
Q 3025 3131 3175 2866 
Q 3394 3131 3647 3262 
Q 3900 3394 4188 3394 
Q 4553 3394 4806 3245 
Q 5059 3097 5184 2809 
Q 5275 2597 5275 2122 
L 5275 0 
L 4397 0 
L 4397 1897 
Q 4397 2391 4306 2534 
Q 4184 2722 3931 2722 
Q 3747 2722 3584 2609 
Q 3422 2497 3350 2280 
Q 3278 2063 3278 1594 
L 3278 0 
L 2400 0 
L 2400 1819 
Q 2400 2303 2353 2443 
Q 2306 2584 2207 2653 
Q 2109 2722 1941 2722 
Q 1738 2722 1575 2612 
Q 1413 2503 1342 2297 
Q 1272 2091 1272 1613 
L 1272 0 
L 394 0 
L 394 3319 
z
" transform="scale(0.015625)"/>
      <path id="Arial-BoldMT-69" d="M 459 3769 
L 459 4581 
L 1338 4581 
L 1338 3769 
L 459 3769 
z
M 459 0 
L 459 3319 
L 1338 3319 
L 1338 0 
L 459 0 
z
" transform="scale(0.015625)"/>
      <path id="Arial-BoldMT-6c" d="M 459 0 
L 459 4581 
L 1338 4581 
L 1338 0 
L 459 0 
z
" transform="scale(0.015625)"/>
      <path id="Arial-BoldMT-41" d="M 4597 0 
L 3591 0 
L 3191 1041 
L 1359 1041 
L 981 0 
L 0 0 
L 1784 4581 
L 2763 4581 
L 4597 0 
z
M 2894 1813 
L 2263 3513 
L 1644 1813 
L 2894 1813 
z
" transform="scale(0.015625)"/>
     </defs>
     <use xlink:href="#Arial-BoldMT-4c"/>
     <use xlink:href="#Arial-BoldMT-75" transform="translate(61.083984 0)"/>
     <use xlink:href="#Arial-BoldMT-6d" transform="translate(122.167969 0)"/>
     <use xlink:href="#Arial-BoldMT-69" transform="translate(211.083984 0)"/>
     <use xlink:href="#Arial-BoldMT-6e" transform="translate(238.867188 0)"/>
     <use xlink:href="#Arial-BoldMT-61" transform="translate(299.951172 0)"/>
     <use xlink:href="#Arial-BoldMT-6c" transform="translate(355.566406 0)"/>
     <use xlink:href="#Arial-BoldMT-20" transform="translate(383.349609 0)"/>
     <use xlink:href="#Arial-BoldMT-41" transform="translate(407.382812 0)"/>
    </g>
    <!-- (HR+, HER2-) -->
    <g style="fill: #ffffff" transform="translate(45.697656 208.008594) scale(0.1 -0.1)">
     <defs>
      <path id="Arial-BoldMT-28" d="M 1916 -1347 
L 1313 -1347 
Q 834 -625 584 153 
Q 334 931 334 1659 
Q 334 2563 644 3369 
Q 913 4069 1325 4659 
L 1925 4659 
Q 1497 3713 1336 3048 
Q 1175 2384 1175 1641 
Q 1175 1128 1270 590 
Q 1366 53 1531 -431 
Q 1641 -750 1916 -1347 
z
" transform="scale(0.015625)"/>
      <path id="Arial-BoldMT-48" d="M 469 0 
L 469 4581 
L 1394 4581 
L 1394 2778 
L 3206 2778 
L 3206 4581 
L 4131 4581 
L 4131 0 
L 3206 0 
L 3206 2003 
L 1394 2003 
L 1394 0 
L 469 0 
z
" transform="scale(0.015625)"/>
      <path id="Arial-BoldMT-52" d="M 469 0 
L 469 4581 
L 2416 4581 
Q 3150 4581 3483 4457 
Q 3816 4334 4016 4018 
Q 4216 3703 4216 3297 
Q 4216 2781 3912 2445 
Q 3609 2109 3006 2022 
Q 3306 1847 3501 1637 
Q 3697 1428 4028 894 
L 4588 0 
L 3481 0 
L 2813 997 
Q 2456 1531 2325 1670 
Q 2194 1809 2047 1861 
Q 1900 1913 1581 1913 
L 1394 1913 
L 1394 0 
L 469 0 
z
M 1394 2644 
L 2078 2644 
Q 2744 2644 2909 2700 
Q 3075 2756 3169 2893 
Q 3263 3031 3263 3238 
Q 3263 3469 3139 3611 
Q 3016 3753 2791 3791 
Q 2678 3806 2116 3806 
L 1394 3806 
L 1394 2644 
z
" transform="scale(0.015625)"/>
      <path id="Arial-BoldMT-2b" d="M 1466 659 
L 1466 1850 
L 266 1850 
L 266 2672 
L 1466 2672 
L 1466 3863 
L 2266 3863 
L 2266 2672 
L 3469 2672 
L 3469 1850 
L 2266 1850 
L 2266 659 
L 1466 659 
z
" transform="scale(0.015625)"/>
      <path id="Arial-BoldMT-2c" d="M 438 878 
L 1316 878 
L 1316 250 
Q 1316 -131 1250 -351 
Q 1184 -572 1001 -747 
Q 819 -922 538 -1022 
L 366 -659 
Q 631 -572 743 -419 
Q 856 -266 863 0 
L 438 0 
L 438 878 
z
" transform="scale(0.015625)"/>
      <path id="Arial-BoldMT-45" d="M 466 0 
L 466 4581 
L 3863 4581 
L 3863 3806 
L 1391 3806 
L 1391 2791 
L 3691 2791 
L 3691 2019 
L 1391 2019 
L 1391 772 
L 3950 772 
L 3950 0 
L 466 0 
z
" transform="scale(0.015625)"/>
      <path id="Arial-BoldMT-32" d="M 3238 816 
L 3238 0 
L 159 0 
Q 209 463 459 877 
Q 709 1291 1447 1975 
Q 2041 2528 2175 2725 
Q 2356 2997 2356 3263 
Q 2356 3556 2198 3714 
Q 2041 3872 1763 3872 
Q 1488 3872 1325 3706 
Q 1163 3541 1138 3156 
L 263 3244 
Q 341 3969 753 4284 
Q 1166 4600 1784 4600 
Q 2463 4600 2850 4234 
Q 3238 3869 3238 3325 
Q 3238 3016 3127 2736 
Q 3016 2456 2775 2150 
Q 2616 1947 2200 1565 
Q 1784 1184 1673 1059 
Q 1563 934 1494 816 
L 3238 816 
z
" transform="scale(0.015625)"/>
      <path id="Arial-BoldMT-2d" d="M 359 1222 
L 359 2100 
L 2084 2100 
L 2084 1222 
L 359 1222 
z
" transform="scale(0.015625)"/>
      <path id="Arial-BoldMT-29" d="M 216 -1347 
Q 475 -791 581 -494 
Q 688 -197 778 190 
Q 869 578 912 926 
Q 956 1275 956 1641 
Q 956 2384 797 3048 
Q 638 3713 209 4659 
L 806 4659 
Q 1278 3988 1539 3234 
Q 1800 2481 1800 1706 
Q 1800 1053 1594 306 
Q 1359 -531 822 -1347 
L 216 -1347 
z
" transform="scale(0.015625)"/>
     </defs>
     <use xlink:href="#Arial-BoldMT-28"/>
     <use xlink:href="#Arial-BoldMT-48" transform="translate(33.300781 0)"/>
     <use xlink:href="#Arial-BoldMT-52" transform="translate(105.517578 0)"/>
     <use xlink:href="#Arial-BoldMT-2b" transform="translate(177.734375 0)"/>
     <use xlink:href="#Arial-BoldMT-2c" transform="translate(236.132812 0)"/>
     <use xlink:href="#Arial-BoldMT-20" transform="translate(263.916016 0)"/>
     <use xlink:href="#Arial-BoldMT-48" transform="translate(291.699219 0)"/>
     <use xlink:href="#Arial-BoldMT-45" transform="translate(363.916016 0)"/>
     <use xlink:href="#Arial-BoldMT-52" transform="translate(430.615234 0)"/>
     <use xlink:href="#Arial-BoldMT-32" transform="translate(502.832031 0)"/>
     <use xlink:href="#Arial-BoldMT-2d" transform="translate(558.447266 0)"/>
     <use xlink:href="#Arial-BoldMT-29" transform="translate(591.748047 0)"/>
    </g>
   </g>
   <g id="text_3">
    <!-- Endocrine -->
    <g transform="translate(52.503125 358.652656) scale(0.1 -0.1)">
     <defs>
      <path id="Arial-BoldMT-64" d="M 3503 0 
L 2688 0 
L 2688 488 
Q 2484 203 2207 64 
Q 1931 -75 1650 -75 
Q 1078 -75 670 386 
Q 263 847 263 1672 
Q 263 2516 659 2955 
Q 1056 3394 1663 3394 
Q 2219 3394 2625 2931 
L 2625 4581 
L 3503 4581 
L 3503 0 
z
M 1159 1731 
Q 1159 1200 1306 963 
Q 1519 619 1900 619 
Q 2203 619 2415 876 
Q 2628 1134 2628 1647 
Q 2628 2219 2422 2470 
Q 2216 2722 1894 2722 
Q 1581 2722 1370 2473 
Q 1159 2225 1159 1731 
z
" transform="scale(0.015625)"/>
      <path id="Arial-BoldMT-6f" d="M 256 1706 
Q 256 2144 472 2553 
Q 688 2963 1083 3178 
Q 1478 3394 1966 3394 
Q 2719 3394 3200 2905 
Q 3681 2416 3681 1669 
Q 3681 916 3195 420 
Q 2709 -75 1972 -75 
Q 1516 -75 1102 131 
Q 688 338 472 736 
Q 256 1134 256 1706 
z
M 1156 1659 
Q 1156 1166 1390 903 
Q 1625 641 1969 641 
Q 2313 641 2545 903 
Q 2778 1166 2778 1666 
Q 2778 2153 2545 2415 
Q 2313 2678 1969 2678 
Q 1625 2678 1390 2415 
Q 1156 2153 1156 1659 
z
" transform="scale(0.015625)"/>
     </defs>
     <use xlink:href="#Arial-BoldMT-45"/>
     <use xlink:href="#Arial-BoldMT-6e" transform="translate(66.699219 0)"/>
     <use xlink:href="#Arial-BoldMT-64" transform="translate(127.783203 0)"/>
     <use xlink:href="#Arial-BoldMT-6f" transform="translate(188.867188 0)"/>
     <use xlink:href="#Arial-BoldMT-63" transform="translate(249.951172 0)"/>
     <use xlink:href="#Arial-BoldMT-72" transform="translate(305.566406 0)"/>
     <use xlink:href="#Arial-BoldMT-69" transform="translate(344.482422 0)"/>
     <use xlink:href="#Arial-BoldMT-6e" transform="translate(372.265625 0)"/>
     <use xlink:href="#Arial-BoldMT-65" transform="translate(433.349609 0)"/>
    </g>
    <!-- Therapy -->
    <g transform="translate(57.500781 369.215469) scale(0.1 -0.1)">
     <defs>
      <path id="Arial-BoldMT-54" d="M 1497 0 
L 1497 3806 
L 138 3806 
L 138 4581 
L 3778 4581 
L 3778 3806 
L 2422 3806 
L 2422 0 
L 1497 0 
z
" transform="scale(0.015625)"/>
      <path id="Arial-BoldMT-68" d="M 1334 4581 
L 1334 2897 
Q 1759 3394 2350 3394 
Q 2653 3394 2897 3281 
Q 3141 3169 3264 2994 
Q 3388 2819 3433 2606 
Q 3478 2394 3478 1947 
L 3478 0 
L 2600 0 
L 2600 1753 
Q 2600 2275 2550 2415 
Q 2500 2556 2373 2639 
Q 2247 2722 2056 2722 
Q 1838 2722 1666 2615 
Q 1494 2509 1414 2295 
Q 1334 2081 1334 1663 
L 1334 0 
L 456 0 
L 456 4581 
L 1334 4581 
z
" transform="scale(0.015625)"/>
      <path id="Arial-BoldMT-70" d="M 434 3319 
L 1253 3319 
L 1253 2831 
Q 1413 3081 1684 3237 
Q 1956 3394 2288 3394 
Q 2866 3394 3269 2941 
Q 3672 2488 3672 1678 
Q 3672 847 3265 386 
Q 2859 -75 2281 -75 
Q 2006 -75 1782 34 
Q 1559 144 1313 409 
L 1313 -1263 
L 434 -1263 
L 434 3319 
z
M 1303 1716 
Q 1303 1156 1525 889 
Q 1747 622 2066 622 
Q 2372 622 2575 867 
Q 2778 1113 2778 1672 
Q 2778 2194 2568 2447 
Q 2359 2700 2050 2700 
Q 1728 2700 1515 2451 
Q 1303 2203 1303 1716 
z
" transform="scale(0.015625)"/>
      <path id="Arial-BoldMT-79" d="M 44 3319 
L 978 3319 
L 1772 963 
L 2547 3319 
L 3456 3319 
L 2284 125 
L 2075 -453 
Q 1959 -744 1854 -897 
Q 1750 -1050 1614 -1145 
Q 1478 -1241 1279 -1294 
Q 1081 -1347 831 -1347 
Q 578 -1347 334 -1294 
L 256 -606 
Q 463 -647 628 -647 
Q 934 -647 1081 -467 
Q 1228 -288 1306 -9 
L 44 3319 
z
" transform="scale(0.015625)"/>
     </defs>
     <use xlink:href="#Arial-BoldMT-54"/>
     <use xlink:href="#Arial-BoldMT-68" transform="translate(61.083984 0)"/>
     <use xlink:href="#Arial-BoldMT-65" transform="translate(122.167969 0)"/>
     <use xlink:href="#Arial-BoldMT-72" transform="translate(177.783203 0)"/>
     <use xlink:href="#Arial-BoldMT-61" transform="translate(216.699219 0)"/>
     <use xlink:href="#Arial-BoldMT-70" transform="translate(272.314453 0)"/>
     <use xlink:href="#Arial-BoldMT-79" transform="translate(333.398438 0)"/>
    </g>
   </g>
   <g id="text_4">
    <!-- Luminal B -->
    <g style="fill: #ffffff" transform="translate(157.408594 197.299531) scale(0.1 -0.1)">
     <use xlink:href="#Arial-BoldMT-4c"/>
     <use xlink:href="#Arial-BoldMT-75" transform="translate(61.083984 0)"/>
     <use xlink:href="#Arial-BoldMT-6d" transform="translate(122.167969 0)"/>
     <use xlink:href="#Arial-BoldMT-69" transform="translate(211.083984 0)"/>
     <use xlink:href="#Arial-BoldMT-6e" transform="translate(238.867188 0)"/>
     <use xlink:href="#Arial-BoldMT-61" transform="translate(299.951172 0)"/>
     <use xlink:href="#Arial-BoldMT-6c" transform="translate(355.566406 0)"/>
     <use xlink:href="#Arial-BoldMT-20" transform="translate(383.349609 0)"/>
     <use xlink:href="#Arial-BoldMT-42" transform="translate(411.132812 0)"/>
    </g>
    <!-- (HR+, HER2+/-) -->
    <g style="fill: #ffffff" transform="translate(146.013281 208.008594) scale(0.1 -0.1)">
     <defs>
      <path id="Arial-BoldMT-2f" d="M -9 -78 
L 1125 4659 
L 1784 4659 
L 638 -78 
L -9 -78 
z
" transform="scale(0.015625)"/>
     </defs>
     <use xlink:href="#Arial-BoldMT-28"/>
     <use xlink:href="#Arial-BoldMT-48" transform="translate(33.300781 0)"/>
     <use xlink:href="#Arial-BoldMT-52" transform="translate(105.517578 0)"/>
     <use xlink:href="#Arial-BoldMT-2b" transform="translate(177.734375 0)"/>
     <use xlink:href="#Arial-BoldMT-2c" transform="translate(236.132812 0)"/>
     <use xlink:href="#Arial-BoldMT-20" transform="translate(263.916016 0)"/>
     <use xlink:href="#Arial-BoldMT-48" transform="translate(291.699219 0)"/>
     <use xlink:href="#Arial-BoldMT-45" transform="translate(363.916016 0)"/>
     <use xlink:href="#Arial-BoldMT-52" transform="translate(430.615234 0)"/>
     <use xlink:href="#Arial-BoldMT-32" transform="translate(502.832031 0)"/>
     <use xlink:href="#Arial-BoldMT-2b" transform="translate(558.447266 0)"/>
     <use xlink:href="#Arial-BoldMT-2f" transform="translate(616.845703 0)"/>
     <use xlink:href="#Arial-BoldMT-2d" transform="translate(644.628906 0)"/>
     <use xlink:href="#Arial-BoldMT-29" transform="translate(677.929688 0)"/>
    </g>
   </g>
   <g id="text_5">
    <!-- Endocrine + -->
    <g transform="translate(152.81875 358.579531) scale(0.1 -0.1)">
     <use xlink:href="#Arial-BoldMT-45"/>
     <use xlink:href="#Arial-BoldMT-6e" transform="translate(66.699219 0)"/>
     <use xlink:href="#Arial-BoldMT-64" transform="translate(127.783203 0)"/>
     <use xlink:href="#Arial-BoldMT-6f" transform="translate(188.867188 0)"/>
     <use xlink:href="#Arial-BoldMT-63" transform="translate(249.951172 0)"/>
     <use xlink:href="#Arial-BoldMT-72" transform="translate(305.566406 0)"/>
     <use xlink:href="#Arial-BoldMT-69" transform="translate(344.482422 0)"/>
     <use xlink:href="#Arial-BoldMT-6e" transform="translate(372.265625 0)"/>
     <use xlink:href="#Arial-BoldMT-65" transform="translate(433.349609 0)"/>
     <use xlink:href="#Arial-BoldMT-20" transform="translate(488.964844 0)"/>
     <use xlink:href="#Arial-BoldMT-2b" transform="translate(516.748047 0)"/>
    </g>
    <!-- Targeted/Chemo -->
    <g transform="translate(142.495312 369.288594) scale(0.1 -0.1)">
     <defs>
      <path id="Arial-BoldMT-67" d="M 378 -219 
L 1381 -341 
Q 1406 -516 1497 -581 
Q 1622 -675 1891 -675 
Q 2234 -675 2406 -572 
Q 2522 -503 2581 -350 
Q 2622 -241 2622 53 
L 2622 538 
Q 2228 0 1628 0 
Q 959 0 569 566 
Q 263 1013 263 1678 
Q 263 2513 664 2953 
Q 1066 3394 1663 3394 
Q 2278 3394 2678 2853 
L 2678 3319 
L 3500 3319 
L 3500 341 
Q 3500 -247 3403 -537 
Q 3306 -828 3131 -993 
Q 2956 -1159 2664 -1253 
Q 2372 -1347 1925 -1347 
Q 1081 -1347 728 -1058 
Q 375 -769 375 -325 
Q 375 -281 378 -219 
z
M 1163 1728 
Q 1163 1200 1367 954 
Q 1572 709 1872 709 
Q 2194 709 2416 961 
Q 2638 1213 2638 1706 
Q 2638 2222 2425 2472 
Q 2213 2722 1888 2722 
Q 1572 2722 1367 2476 
Q 1163 2231 1163 1728 
z
" transform="scale(0.015625)"/>
     </defs>
     <use xlink:href="#Arial-BoldMT-54"/>
     <use xlink:href="#Arial-BoldMT-61" transform="translate(53.708984 0)"/>
     <use xlink:href="#Arial-BoldMT-72" transform="translate(109.324219 0)"/>
     <use xlink:href="#Arial-BoldMT-67" transform="translate(148.240234 0)"/>
     <use xlink:href="#Arial-BoldMT-65" transform="translate(209.324219 0)"/>
     <use xlink:href="#Arial-BoldMT-74" transform="translate(264.939453 0)"/>
     <use xlink:href="#Arial-BoldMT-65" transform="translate(298.240234 0)"/>
     <use xlink:href="#Arial-BoldMT-64" transform="translate(353.855469 0)"/>
     <use xlink:href="#Arial-BoldMT-2f" transform="translate(414.939453 0)"/>
     <use xlink:href="#Arial-BoldMT-43" transform="translate(442.722656 0)"/>
     <use xlink:href="#Arial-BoldMT-68" transform="translate(514.939453 0)"/>
     <use xlink:href="#Arial-BoldMT-65" transform="translate(576.023438 0)"/>
     <use xlink:href="#Arial-BoldMT-6d" transform="translate(631.638672 0)"/>
     <use xlink:href="#Arial-BoldMT-6f" transform="translate(720.554688 0)"/>
    </g>
   </g>
   <g id="text_6">
    <!-- HER2-Enriched -->
    <g style="fill: #ffffff" transform="translate(249.804688 197.299531) scale(0.1 -0.1)">
     <use xlink:href="#Arial-BoldMT-48"/>
     <use xlink:href="#Arial-BoldMT-45" transform="translate(72.216797 0)"/>
     <use xlink:href="#Arial-BoldMT-52" transform="translate(138.916016 0)"/>
     <use xlink:href="#Arial-BoldMT-32" transform="translate(211.132812 0)"/>
     <use xlink:href="#Arial-BoldMT-2d" transform="translate(266.748047 0)"/>
     <use xlink:href="#Arial-BoldMT-45" transform="translate(300.048828 0)"/>
     <use xlink:href="#Arial-BoldMT-6e" transform="translate(366.748047 0)"/>
     <use xlink:href="#Arial-BoldMT-72" transform="translate(427.832031 0)"/>
     <use xlink:href="#Arial-BoldMT-69" transform="translate(466.748047 0)"/>
     <use xlink:href="#Arial-BoldMT-63" transform="translate(494.53125 0)"/>
     <use xlink:href="#Arial-BoldMT-68" transform="translate(550.146484 0)"/>
     <use xlink:href="#Arial-BoldMT-65" transform="translate(611.230469 0)"/>
     <use xlink:href="#Arial-BoldMT-64" transform="translate(666.845703 0)"/>
    </g>
    <!-- (HR-, HER2+) -->
    <g style="fill: #ffffff" transform="translate(254.947656 208.008594) scale(0.1 -0.1)">
     <use xlink:href="#Arial-BoldMT-28"/>
     <use xlink:href="#Arial-BoldMT-48" transform="translate(33.300781 0)"/>
     <use xlink:href="#Arial-BoldMT-52" transform="translate(105.517578 0)"/>
     <use xlink:href="#Arial-BoldMT-2d" transform="translate(177.734375 0)"/>
     <use xlink:href="#Arial-BoldMT-2c" transform="translate(211.035156 0)"/>
     <use xlink:href="#Arial-BoldMT-20" transform="translate(238.818359 0)"/>
     <use xlink:href="#Arial-BoldMT-48" transform="translate(266.601562 0)"/>
     <use xlink:href="#Arial-BoldMT-45" transform="translate(338.818359 0)"/>
     <use xlink:href="#Arial-BoldMT-52" transform="translate(405.517578 0)"/>
     <use xlink:href="#Arial-BoldMT-32" transform="translate(477.734375 0)"/>
     <use xlink:href="#Arial-BoldMT-2b" transform="translate(533.349609 0)"/>
     <use xlink:href="#Arial-BoldMT-29" transform="translate(591.748047 0)"/>
    </g>
   </g>
   <g id="text_7">
    <!-- Anti-HER2 -->
    <g transform="translate(261.478906 358.652656) scale(0.1 -0.1)">
     <use xlink:href="#Arial-BoldMT-41"/>
     <use xlink:href="#Arial-BoldMT-6e" transform="translate(72.216797 0)"/>
     <use xlink:href="#Arial-BoldMT-74" transform="translate(133.300781 0)"/>
     <use xlink:href="#Arial-BoldMT-69" transform="translate(166.601562 0)"/>
     <use xlink:href="#Arial-BoldMT-2d" transform="translate(194.384766 0)"/>
     <use xlink:href="#Arial-BoldMT-48" transform="translate(227.685547 0)"/>
     <use xlink:href="#Arial-BoldMT-45" transform="translate(299.902344 0)"/>
     <use xlink:href="#Arial-BoldMT-52" transform="translate(366.601562 0)"/>
     <use xlink:href="#Arial-BoldMT-32" transform="translate(438.818359 0)"/>
    </g>
    <!-- Targeted Therapy -->
    <g transform="translate(244.616406 369.215469) scale(0.1 -0.1)">
     <use xlink:href="#Arial-BoldMT-54"/>
     <use xlink:href="#Arial-BoldMT-61" transform="translate(53.708984 0)"/>
     <use xlink:href="#Arial-BoldMT-72" transform="translate(109.324219 0)"/>
     <use xlink:href="#Arial-BoldMT-67" transform="translate(148.240234 0)"/>
     <use xlink:href="#Arial-BoldMT-65" transform="translate(209.324219 0)"/>
     <use xlink:href="#Arial-BoldMT-74" transform="translate(264.939453 0)"/>
     <use xlink:href="#Arial-BoldMT-65" transform="translate(298.240234 0)"/>
     <use xlink:href="#Arial-BoldMT-64" transform="translate(353.855469 0)"/>
     <use xlink:href="#Arial-BoldMT-20" transform="translate(414.939453 0)"/>
     <use xlink:href="#Arial-BoldMT-54" transform="translate(442.722656 0)"/>
     <use xlink:href="#Arial-BoldMT-68" transform="translate(503.806641 0)"/>
     <use xlink:href="#Arial-BoldMT-65" transform="translate(564.890625 0)"/>
     <use xlink:href="#Arial-BoldMT-72" transform="translate(620.505859 0)"/>
     <use xlink:href="#Arial-BoldMT-61" transform="translate(659.421875 0)"/>
     <use xlink:href="#Arial-BoldMT-70" transform="translate(715.037109 0)"/>
     <use xlink:href="#Arial-BoldMT-79" transform="translate(776.121094 0)"/>
    </g>
   </g>
   <g id="text_8">
    <!-- TNBC -->
    <g style="fill: #ffffff" transform="translate(376.938281 197.299531) scale(0.1 -0.1)">
     <defs>
      <path id="Arial-BoldMT-4e" d="M 475 0 
L 475 4581 
L 1375 4581 
L 3250 1522 
L 3250 4581 
L 4109 4581 
L 4109 0 
L 3181 0 
L 1334 2988 
L 1334 0 
L 475 0 
z
" transform="scale(0.015625)"/>
     </defs>
     <use xlink:href="#Arial-BoldMT-54"/>
     <use xlink:href="#Arial-BoldMT-4e" transform="translate(61.083984 0)"/>
     <use xlink:href="#Arial-BoldMT-42" transform="translate(133.300781 0)"/>
     <use xlink:href="#Arial-BoldMT-43" transform="translate(205.517578 0)"/>
    </g>
    <!-- (HR-, HER2-) -->
    <g style="fill: #ffffff" transform="translate(360.828125 208.008594) scale(0.1 -0.1)">
     <use xlink:href="#Arial-BoldMT-28"/>
     <use xlink:href="#Arial-BoldMT-48" transform="translate(33.300781 0)"/>
     <use xlink:href="#Arial-BoldMT-52" transform="translate(105.517578 0)"/>
     <use xlink:href="#Arial-BoldMT-2d" transform="translate(177.734375 0)"/>
     <use xlink:href="#Arial-BoldMT-2c" transform="translate(211.035156 0)"/>
     <use xlink:href="#Arial-BoldMT-20" transform="translate(238.818359 0)"/>
     <use xlink:href="#Arial-BoldMT-48" transform="translate(266.601562 0)"/>
     <use xlink:href="#Arial-BoldMT-45" transform="translate(338.818359 0)"/>
     <use xlink:href="#Arial-BoldMT-52" transform="translate(405.517578 0)"/>
     <use xlink:href="#Arial-BoldMT-32" transform="translate(477.734375 0)"/>
     <use xlink:href="#Arial-BoldMT-2d" transform="translate(533.349609 0)"/>
     <use xlink:href="#Arial-BoldMT-29" transform="translate(566.650391 0)"/>
    </g>
   </g>
   <g id="text_9">
    <!-- Chemotherapy + -->
    <g transform="translate(351.510156 358.647969) scale(0.1 -0.1)">
     <use xlink:href="#Arial-BoldMT-43"/>
     <use xlink:href="#Arial-BoldMT-68" transform="translate(72.216797 0)"/>
     <use xlink:href="#Arial-BoldMT-65" transform="translate(133.300781 0)"/>
     <use xlink:href="#Arial-BoldMT-6d" transform="translate(188.916016 0)"/>
     <use xlink:href="#Arial-BoldMT-6f" transform="translate(277.832031 0)"/>
     <use xlink:href="#Arial-BoldMT-74" transform="translate(338.916016 0)"/>
     <use xlink:href="#Arial-BoldMT-68" transform="translate(372.216797 0)"/>
     <use xlink:href="#Arial-BoldMT-65" transform="translate(433.300781 0)"/>
     <use xlink:href="#Arial-BoldMT-72" transform="translate(488.916016 0)"/>
     <use xlink:href="#Arial-BoldMT-61" transform="translate(527.832031 0)"/>
     <use xlink:href="#Arial-BoldMT-70" transform="translate(583.447266 0)"/>
     <use xlink:href="#Arial-BoldMT-79" transform="translate(644.53125 0)"/>
     <use xlink:href="#Arial-BoldMT-20" transform="translate(700.146484 0)"/>
     <use xlink:href="#Arial-BoldMT-2b" transform="translate(727.929688 0)"/>
    </g>
    <!-- Immunotherapy -->
    <g transform="translate(353.321875 369.342031) scale(0.1 -0.1)">
     <defs>
      <path id="Arial-BoldMT-49" d="M 438 0 
L 438 4581 
L 1363 4581 
L 1363 0 
L 438 0 
z
" transform="scale(0.015625)"/>
     </defs>
     <use xlink:href="#Arial-BoldMT-49"/>
     <use xlink:href="#Arial-BoldMT-6d" transform="translate(27.783203 0)"/>
     <use xlink:href="#Arial-BoldMT-6d" transform="translate(116.699219 0)"/>
     <use xlink:href="#Arial-BoldMT-75" transform="translate(205.615234 0)"/>
     <use xlink:href="#Arial-BoldMT-6e" transform="translate(266.699219 0)"/>
     <use xlink:href="#Arial-BoldMT-6f" transform="translate(327.783203 0)"/>
     <use xlink:href="#Arial-BoldMT-74" transform="translate(388.867188 0)"/>
     <use xlink:href="#Arial-BoldMT-68" transform="translate(422.167969 0)"/>
     <use xlink:href="#Arial-BoldMT-65" transform="translate(483.251953 0)"/>
     <use xlink:href="#Arial-BoldMT-72" transform="translate(538.867188 0)"/>
     <use xlink:href="#Arial-BoldMT-61" transform="translate(577.783203 0)"/>
     <use xlink:href="#Arial-BoldMT-70" transform="translate(633.398438 0)"/>
     <use xlink:href="#Arial-BoldMT-79" transform="translate(694.482422 0)"/>
    </g>
   </g>
   <g id="text_10">
    <!-- HER2-Low -->
    <g style="fill: #ffffff" transform="translate(470.450781 197.299531) scale(0.1 -0.1)">
     <defs>
      <path id="Arial-BoldMT-77" d="M 1078 0 
L 28 3319 
L 881 3319 
L 1503 1144 
L 2075 3319 
L 2922 3319 
L 3475 1144 
L 4109 3319 
L 4975 3319 
L 3909 0 
L 3066 0 
L 2494 2134 
L 1931 0 
L 1078 0 
z
" transform="scale(0.015625)"/>
     </defs>
     <use xlink:href="#Arial-BoldMT-48"/>
     <use xlink:href="#Arial-BoldMT-45" transform="translate(72.216797 0)"/>
     <use xlink:href="#Arial-BoldMT-52" transform="translate(138.916016 0)"/>
     <use xlink:href="#Arial-BoldMT-32" transform="translate(211.132812 0)"/>
     <use xlink:href="#Arial-BoldMT-2d" transform="translate(266.748047 0)"/>
     <use xlink:href="#Arial-BoldMT-4c" transform="translate(300.048828 0)"/>
     <use xlink:href="#Arial-BoldMT-6f" transform="translate(361.132812 0)"/>
     <use xlink:href="#Arial-BoldMT-77" transform="translate(422.216797 0)"/>
    </g>
    <!-- (IHC 1+/2+, ISH-) -->
    <g style="fill: #ffffff" transform="translate(456.551562 208.008594) scale(0.1 -0.1)">
     <defs>
      <path id="Arial-BoldMT-31" d="M 2519 0 
L 1641 0 
L 1641 3309 
Q 1159 2859 506 2644 
L 506 3441 
Q 850 3553 1253 3867 
Q 1656 4181 1806 4600 
L 2519 4600 
L 2519 0 
z
" transform="scale(0.015625)"/>
      <path id="Arial-BoldMT-53" d="M 231 1491 
L 1131 1578 
Q 1213 1125 1461 912 
Q 1709 700 2131 700 
Q 2578 700 2804 889 
Q 3031 1078 3031 1331 
Q 3031 1494 2936 1608 
Q 2841 1722 2603 1806 
Q 2441 1863 1863 2006 
Q 1119 2191 819 2459 
Q 397 2838 397 3381 
Q 397 3731 595 4036 
Q 794 4341 1167 4500 
Q 1541 4659 2069 4659 
Q 2931 4659 3367 4281 
Q 3803 3903 3825 3272 
L 2900 3231 
Q 2841 3584 2645 3739 
Q 2450 3894 2059 3894 
Q 1656 3894 1428 3728 
Q 1281 3622 1281 3444 
Q 1281 3281 1419 3166 
Q 1594 3019 2269 2859 
Q 2944 2700 3267 2529 
Q 3591 2359 3773 2064 
Q 3956 1769 3956 1334 
Q 3956 941 3737 597 
Q 3519 253 3119 86 
Q 2719 -81 2122 -81 
Q 1253 -81 787 320 
Q 322 722 231 1491 
z
" transform="scale(0.015625)"/>
     </defs>
     <use xlink:href="#Arial-BoldMT-28"/>
     <use xlink:href="#Arial-BoldMT-49" transform="translate(33.300781 0)"/>
     <use xlink:href="#Arial-BoldMT-48" transform="translate(61.083984 0)"/>
     <use xlink:href="#Arial-BoldMT-43" transform="translate(133.300781 0)"/>
     <use xlink:href="#Arial-BoldMT-20" transform="translate(205.517578 0)"/>
     <use xlink:href="#Arial-BoldMT-31" transform="translate(233.300781 0)"/>
     <use xlink:href="#Arial-BoldMT-2b" transform="translate(288.916016 0)"/>
     <use xlink:href="#Arial-BoldMT-2f" transform="translate(347.314453 0)"/>
     <use xlink:href="#Arial-BoldMT-32" transform="translate(375.097656 0)"/>
     <use xlink:href="#Arial-BoldMT-2b" transform="translate(430.712891 0)"/>
     <use xlink:href="#Arial-BoldMT-2c" transform="translate(489.111328 0)"/>
     <use xlink:href="#Arial-BoldMT-20" transform="translate(516.894531 0)"/>
     <use xlink:href="#Arial-BoldMT-49" transform="translate(544.677734 0)"/>
     <use xlink:href="#Arial-BoldMT-53" transform="translate(572.460938 0)"/>
     <use xlink:href="#Arial-BoldMT-48" transform="translate(639.160156 0)"/>
     <use xlink:href="#Arial-BoldMT-2d" transform="translate(711.376953 0)"/>
     <use xlink:href="#Arial-BoldMT-29" transform="translate(744.677734 0)"/>
    </g>
   </g>
   <g id="text_11">
    <!-- Antibody-Drug -->
    <g transform="translate(460.459375 358.513906) scale(0.1 -0.1)">
     <defs>
      <path id="Arial-BoldMT-62" d="M 422 0 
L 422 4581 
L 1300 4581 
L 1300 2931 
Q 1706 3394 2263 3394 
Q 2869 3394 3266 2955 
Q 3663 2516 3663 1694 
Q 3663 844 3258 384 
Q 2853 -75 2275 -75 
Q 1991 -75 1714 67 
Q 1438 209 1238 488 
L 1238 0 
L 422 0 
z
M 1294 1731 
Q 1294 1216 1456 969 
Q 1684 619 2063 619 
Q 2353 619 2558 867 
Q 2763 1116 2763 1650 
Q 2763 2219 2556 2470 
Q 2350 2722 2028 2722 
Q 1713 2722 1503 2476 
Q 1294 2231 1294 1731 
z
" transform="scale(0.015625)"/>
      <path id="Arial-BoldMT-44" d="M 463 4581 
L 2153 4581 
Q 2725 4581 3025 4494 
Q 3428 4375 3715 4072 
Q 4003 3769 4153 3330 
Q 4303 2891 4303 2247 
Q 4303 1681 4163 1272 
Q 3991 772 3672 463 
Q 3431 228 3022 97 
Q 2716 0 2203 0 
L 463 0 
L 463 4581 
z
M 1388 3806 
L 1388 772 
L 2078 772 
Q 2466 772 2638 816 
Q 2863 872 3011 1006 
Q 3159 1141 3253 1448 
Q 3347 1756 3347 2288 
Q 3347 2819 3253 3103 
Q 3159 3388 2990 3547 
Q 2822 3706 2563 3763 
Q 2369 3806 1803 3806 
L 1388 3806 
z
" transform="scale(0.015625)"/>
     </defs>
     <use xlink:href="#Arial-BoldMT-41"/>
     <use xlink:href="#Arial-BoldMT-6e" transform="translate(72.216797 0)"/>
     <use xlink:href="#Arial-BoldMT-74" transform="translate(133.300781 0)"/>
     <use xlink:href="#Arial-BoldMT-69" transform="translate(166.601562 0)"/>
     <use xlink:href="#Arial-BoldMT-62" transform="translate(194.384766 0)"/>
     <use xlink:href="#Arial-BoldMT-6f" transform="translate(255.46875 0)"/>
     <use xlink:href="#Arial-BoldMT-64" transform="translate(316.552734 0)"/>
     <use xlink:href="#Arial-BoldMT-79" transform="translate(377.636719 0)"/>
     <use xlink:href="#Arial-BoldMT-2d" transform="translate(433.251953 0)"/>
     <use xlink:href="#Arial-BoldMT-44" transform="translate(466.552734 0)"/>
     <use xlink:href="#Arial-BoldMT-72" transform="translate(538.769531 0)"/>
     <use xlink:href="#Arial-BoldMT-75" transform="translate(577.685547 0)"/>
     <use xlink:href="#Arial-BoldMT-67" transform="translate(638.769531 0)"/>
    </g>
    <!-- Conjugates (T-DXd) -->
    <g transform="translate(449.065625 369.354219) scale(0.1 -0.1)">
     <defs>
      <path id="Arial-BoldMT-6a" d="M 441 3769 
L 441 4581 
L 1319 4581 
L 1319 3769 
L 441 3769 
z
M 1319 3319 
L 1319 103 
Q 1319 -531 1236 -792 
Q 1153 -1053 917 -1200 
Q 681 -1347 316 -1347 
Q 184 -1347 32 -1323 
Q -119 -1300 -294 -1253 
L -141 -503 
Q -78 -516 -23 -523 
Q 31 -531 78 -531 
Q 213 -531 298 -473 
Q 384 -416 412 -334 
Q 441 -253 441 153 
L 441 3319 
L 1319 3319 
z
" transform="scale(0.015625)"/>
      <path id="Arial-BoldMT-58" d="M 0 0 
L 1566 2391 
L 147 4581 
L 1228 4581 
L 2147 3109 
L 3047 4581 
L 4119 4581 
L 2694 2356 
L 4259 0 
L 3144 0 
L 2128 1584 
L 1109 0 
L 0 0 
z
" transform="scale(0.015625)"/>
     </defs>
     <use xlink:href="#Arial-BoldMT-43"/>
     <use xlink:href="#Arial-BoldMT-6f" transform="translate(72.216797 0)"/>
     <use xlink:href="#Arial-BoldMT-6e" transform="translate(133.300781 0)"/>
     <use xlink:href="#Arial-BoldMT-6a" transform="translate(194.384766 0)"/>
     <use xlink:href="#Arial-BoldMT-75" transform="translate(222.167969 0)"/>
     <use xlink:href="#Arial-BoldMT-67" transform="translate(283.251953 0)"/>
     <use xlink:href="#Arial-BoldMT-61" transform="translate(344.335938 0)"/>
     <use xlink:href="#Arial-BoldMT-74" transform="translate(399.951172 0)"/>
     <use xlink:href="#Arial-BoldMT-65" transform="translate(433.251953 0)"/>
     <use xlink:href="#Arial-BoldMT-73" transform="translate(488.867188 0)"/>
     <use xlink:href="#Arial-BoldMT-20" transform="translate(544.482422 0)"/>
     <use xlink:href="#Arial-BoldMT-28" transform="translate(572.265625 0)"/>
     <use xlink:href="#Arial-BoldMT-54" transform="translate(605.566406 0)"/>
     <use xlink:href="#Arial-BoldMT-2d" transform="translate(661.150391 0)"/>
     <use xlink:href="#Arial-BoldMT-44" transform="translate(694.451172 0)"/>
     <use xlink:href="#Arial-BoldMT-58" transform="translate(766.667969 0)"/>
     <use xlink:href="#Arial-BoldMT-64" transform="translate(833.367188 0)"/>
     <use xlink:href="#Arial-BoldMT-29" transform="translate(894.451172 0)"/>
    </g>
   </g>
   <g id="text_12">
    <!-- Molecular Subtypes and Precision Treatment Framework -->
    <g style="fill: #1f3a5f" transform="translate(70.59 18.8475) scale(0.16 -0.16)">
     <defs>
      <path id="Arial-BoldMT-4d" d="M 453 0 
L 453 4581 
L 1838 4581 
L 2669 1456 
L 3491 4581 
L 4878 4581 
L 4878 0 
L 4019 0 
L 4019 3606 
L 3109 0 
L 2219 0 
L 1313 3606 
L 1313 0 
L 453 0 
z
" transform="scale(0.015625)"/>
      <path id="Arial-BoldMT-50" d="M 466 0 
L 466 4581 
L 1950 4581 
Q 2794 4581 3050 4513 
Q 3444 4409 3709 4064 
Q 3975 3719 3975 3172 
Q 3975 2750 3822 2462 
Q 3669 2175 3433 2011 
Q 3197 1847 2953 1794 
Q 2622 1728 1994 1728 
L 1391 1728 
L 1391 0 
L 466 0 
z
M 1391 3806 
L 1391 2506 
L 1897 2506 
Q 2444 2506 2628 2578 
Q 2813 2650 2917 2803 
Q 3022 2956 3022 3159 
Q 3022 3409 2875 3571 
Q 2728 3734 2503 3775 
Q 2338 3806 1838 3806 
L 1391 3806 
z
" transform="scale(0.015625)"/>
      <path id="Arial-BoldMT-46" d="M 472 0 
L 472 4581 
L 3613 4581 
L 3613 3806 
L 1397 3806 
L 1397 2722 
L 3309 2722 
L 3309 1947 
L 1397 1947 
L 1397 0 
L 472 0 
z
" transform="scale(0.015625)"/>
      <path id="Arial-BoldMT-6b" d="M 428 0 
L 428 4581 
L 1306 4581 
L 1306 2150 
L 2334 3319 
L 3416 3319 
L 2281 2106 
L 3497 0 
L 2550 0 
L 1716 1491 
L 1306 1063 
L 1306 0 
L 428 0 
z
" transform="scale(0.015625)"/>
     </defs>
     <use xlink:href="#Arial-BoldMT-4d"/>
     <use xlink:href="#Arial-BoldMT-6f" transform="translate(83.300781 0)"/>
     <use xlink:href="#Arial-BoldMT-6c" transform="translate(144.384766 0)"/>
     <use xlink:href="#Arial-BoldMT-65" transform="translate(172.167969 0)"/>
     <use xlink:href="#Arial-BoldMT-63" transform="translate(227.783203 0)"/>
     <use xlink:href="#Arial-BoldMT-75" transform="translate(283.398438 0)"/>
     <use xlink:href="#Arial-BoldMT-6c" transform="translate(344.482422 0)"/>
     <use xlink:href="#Arial-BoldMT-61" transform="translate(372.265625 0)"/>
     <use xlink:href="#Arial-BoldMT-72" transform="translate(427.880859 0)"/>
     <use xlink:href="#Arial-BoldMT-20" transform="translate(466.796875 0)"/>
     <use xlink:href="#Arial-BoldMT-53" transform="translate(494.580078 0)"/>
     <use xlink:href="#Arial-BoldMT-75" transform="translate(561.279297 0)"/>
     <use xlink:href="#Arial-BoldMT-62" transform="translate(622.363281 0)"/>
     <use xlink:href="#Arial-BoldMT-74" transform="translate(683.447266 0)"/>
     <use xlink:href="#Arial-BoldMT-79" transform="translate(716.748047 0)"/>
     <use xlink:href="#Arial-BoldMT-70" transform="translate(772.363281 0)"/>
     <use xlink:href="#Arial-BoldMT-65" transform="translate(833.447266 0)"/>
     <use xlink:href="#Arial-BoldMT-73" transform="translate(889.0625 0)"/>
     <use xlink:href="#Arial-BoldMT-20" transform="translate(944.677734 0)"/>
     <use xlink:href="#Arial-BoldMT-61" transform="translate(972.460938 0)"/>
     <use xlink:href="#Arial-BoldMT-6e" transform="translate(1028.076172 0)"/>
     <use xlink:href="#Arial-BoldMT-64" transform="translate(1089.160156 0)"/>
     <use xlink:href="#Arial-BoldMT-20" transform="translate(1150.244141 0)"/>
     <use xlink:href="#Arial-BoldMT-50" transform="translate(1178.027344 0)"/>
     <use xlink:href="#Arial-BoldMT-72" transform="translate(1244.726562 0)"/>
     <use xlink:href="#Arial-BoldMT-65" transform="translate(1283.642578 0)"/>
     <use xlink:href="#Arial-BoldMT-63" transform="translate(1339.257812 0)"/>
     <use xlink:href="#Arial-BoldMT-69" transform="translate(1394.873047 0)"/>
     <use xlink:href="#Arial-BoldMT-73" transform="translate(1422.65625 0)"/>
     <use xlink:href="#Arial-BoldMT-69" transform="translate(1478.271484 0)"/>
     <use xlink:href="#Arial-BoldMT-6f" transform="translate(1506.054688 0)"/>
     <use xlink:href="#Arial-BoldMT-6e" transform="translate(1567.138672 0)"/>
     <use xlink:href="#Arial-BoldMT-20" transform="translate(1628.222656 0)"/>
     <use xlink:href="#Arial-BoldMT-54" transform="translate(1656.005859 0)"/>
     <use xlink:href="#Arial-BoldMT-72" transform="translate(1711.589844 0)"/>
     <use xlink:href="#Arial-BoldMT-65" transform="translate(1750.505859 0)"/>
     <use xlink:href="#Arial-BoldMT-61" transform="translate(1806.121094 0)"/>
     <use xlink:href="#Arial-BoldMT-74" transform="translate(1861.736328 0)"/>
     <use xlink:href="#Arial-BoldMT-6d" transform="translate(1895.037109 0)"/>
     <use xlink:href="#Arial-BoldMT-65" transform="translate(1983.953125 0)"/>
     <use xlink:href="#Arial-BoldMT-6e" transform="translate(2039.568359 0)"/>
     <use xlink:href="#Arial-BoldMT-74" transform="translate(2100.652344 0)"/>
     <use xlink:href="#Arial-BoldMT-20" transform="translate(2133.953125 0)"/>
     <use xlink:href="#Arial-BoldMT-46" transform="translate(2161.736328 0)"/>
     <use xlink:href="#Arial-BoldMT-72" transform="translate(2222.820312 0)"/>
     <use xlink:href="#Arial-BoldMT-61" transform="translate(2261.736328 0)"/>
     <use xlink:href="#Arial-BoldMT-6d" transform="translate(2317.351562 0)"/>
     <use xlink:href="#Arial-BoldMT-65" transform="translate(2406.267578 0)"/>
     <use xlink:href="#Arial-BoldMT-77" transform="translate(2461.882812 0)"/>
     <use xlink:href="#Arial-BoldMT-6f" transform="translate(2539.666016 0)"/>
     <use xlink:href="#Arial-BoldMT-72" transform="translate(2600.75 0)"/>
     <use xlink:href="#Arial-BoldMT-6b" transform="translate(2639.666016 0)"/>
    </g>
   </g>
  </g>
 </g>
 <defs>
  <clipPath id="pa9c8a12277">
   <rect x="7.2" y="38.8475" width="558" height="443.52"/>
  </clipPath>
 </defs>
</svg>
